M48
; DRILL file {KiCad 8.0.6} date 2024-12-17T00:01:18+0530
; FORMAT={-:-/ absolute / metric / decimal}
; #@! TF.CreationDate,2024-12-17T00:01:18+05:30
; #@! TF.GenerationSoftware,Kicad,Pcbnew,8.0.6
; #@! TF.FileFunction,Plated,1,4,PTH
FMAT,2
METRIC
; #@! TA.AperFunction,Plated,PTH,ViaDrill
T1C0.300
; #@! TA.AperFunction,Plated,PTH,ComponentDrill
T2C0.300
; #@! TA.AperFunction,Plated,PTH,ComponentDrill
T3C0.600
; #@! TA.AperFunction,Plated,PTH,ComponentDrill
T4C1.000
; #@! TA.AperFunction,Plated,PTH,ComponentDrill
T5C1.726
%
G90
G05
T1
X134.7Y-67.8
X135.1Y-55.8
X135.8Y-63.843
X136.1Y-66.2
X136.2Y-85.1
X137.0Y-108.5
X137.1Y-63.843
X137.8Y-62.1
X137.9Y-63.843
X138.7Y-63.843
X138.7Y-90.1
X139.5Y-63.843
X139.528Y-55.78
X140.214Y-55.368
X140.35Y-59.611
X140.6Y-114.5
X141.03Y-55.368
X141.76Y-55.695
X143.1Y-128.4
X143.2Y-62.3
X143.8Y-57.1
X145.1Y-81.711
X145.1Y-104.411
X145.3Y-56.8
X145.4Y-70.7
X145.6Y-93.2
X145.7Y-128.011
X145.8Y-130.3
X145.9Y-81.711
X145.9Y-104.411
X146.3Y-121.2
X146.5Y-128.011
X146.5Y-117.0
X146.7Y-81.711
X146.7Y-104.411
X147.1Y-130.5
X147.3Y-128.011
X147.5Y-81.711
X147.5Y-104.411
X148.0Y-76.2
X148.0Y-78.6
X148.1Y-128.011
X148.1Y-98.8
X148.1Y-100.8
X148.3Y-81.711
X148.3Y-104.411
X148.5Y-73.143
X148.513Y-56.543
X148.6Y-95.011
X148.8Y-72.243
X148.9Y-118.611
X148.9Y-128.011
X149.392Y-95.124
X149.5Y-119.177
X149.5Y-123.711
X149.7Y-95.911
X149.995Y-72.317
X150.132Y-118.686
X150.4Y-56.043
X150.6Y-69.2
X150.6Y-116.111
X150.7Y-92.443
X152.0Y-56.343
X152.1Y-74.4
X152.1Y-96.8
X152.1Y-120.9
X152.981Y-69.0
X153.7Y-115.7
X157.6Y-108.6
X159.6Y-100.811
X159.7Y-77.811
X159.7Y-125.211
X160.073Y-113.411
X160.4Y-100.811
X160.5Y-77.811
X160.673Y-114.211
X160.8Y-125.211
X161.073Y-89.03
X161.2Y-81.6
X161.2Y-100.811
X161.3Y-77.811
X161.3Y-115.0
X161.773Y-89.484
X161.9Y-125.211
X162.173Y-67.311
X162.2Y-31.3
X162.2Y-110.711
X162.773Y-68.211
X162.8Y-69.211
X162.8Y-128.5
X162.9Y-103.7
X162.916Y-90.295
X162.965Y-48.778
X162.965Y-49.578
X162.965Y-50.378
X163.0Y-73.511
X163.1Y-59.6
X163.2Y-121.784
X163.3Y-110.711
X163.5Y-97.311
X163.7Y-86.83
X163.8Y-117.2
X163.8Y-73.511
X163.924Y-65.311
X164.0Y-121.784
X164.3Y-97.311
X164.4Y-110.711
X164.565Y-86.435
X164.6Y-73.511
X164.7Y-31.3
X164.737Y-65.035
X164.8Y-69.3
X164.8Y-121.784
X165.0Y-45.0
X165.0Y-63.3
X165.1Y-97.311
X165.126Y-55.943
X165.219Y-42.989
X165.4Y-64.587
X165.5Y-86.011
X165.749Y-42.365
X165.8Y-24.7
X165.892Y-55.635
X165.9Y-110.811
X165.9Y-112.011
X165.9Y-122.411
X165.9Y-124.068
X165.9Y-125.211
X166.0Y-113.711
X166.2Y-95.2
X166.2Y-41.043
X166.3Y-86.511
X166.3Y-89.611
X166.3Y-38.843
X166.3Y-40.043
X166.35Y-87.861
X166.5Y-98.511
X166.5Y-99.968
X166.5Y-101.611
X166.6Y-54.743
X166.681Y-51.964
X166.681Y-53.212
X166.7Y-42.3
X166.744Y-62.368
X166.744Y-74.368
X166.744Y-75.968
X166.744Y-77.668
X166.8Y-63.968
X166.82Y-65.641
X166.87Y-53.99
X167.437Y-76.882
X167.437Y-100.932
X167.444Y-68.882
X167.444Y-92.932
X167.447Y-80.872
X167.447Y-104.922
X167.454Y-72.872
X167.454Y-96.922
X167.487Y-52.932
X167.49Y-124.922
X167.494Y-44.932
X167.494Y-60.882
X167.494Y-84.932
X167.497Y-116.922
X167.497Y-56.922
X167.5Y-128.911
X167.504Y-48.922
X167.504Y-64.872
X167.504Y-88.922
X167.507Y-120.911
X167.544Y-36.932
X167.547Y-108.922
X167.554Y-40.922
X167.557Y-112.911
X171.426Y-76.892
X171.426Y-100.942
X171.433Y-68.892
X171.433Y-92.942
X171.437Y-80.882
X171.437Y-104.932
X171.444Y-72.882
X171.444Y-96.932
X171.476Y-52.942
X171.479Y-124.932
X171.483Y-44.942
X171.483Y-60.892
X171.483Y-84.942
X171.487Y-116.932
X171.487Y-56.932
X171.49Y-128.922
X171.494Y-48.932
X171.494Y-64.882
X171.494Y-88.932
X171.497Y-120.922
X171.533Y-36.942
X171.537Y-108.932
X171.544Y-40.932
X171.547Y-112.922
X175.429Y-76.882
X175.429Y-100.932
X175.437Y-68.882
X175.437Y-92.932
X175.44Y-80.872
X175.44Y-104.922
X175.447Y-72.872
X175.447Y-96.922
X175.479Y-52.932
X175.482Y-124.922
X175.487Y-44.932
X175.487Y-60.882
X175.487Y-84.932
X175.49Y-116.922
X175.49Y-56.922
X175.493Y-128.911
X175.497Y-48.922
X175.497Y-64.872
X175.497Y-88.922
X175.5Y-120.911
X175.537Y-36.932
X175.54Y-108.922
X175.547Y-40.922
X175.55Y-112.911
X179.419Y-76.892
X179.419Y-100.942
X179.426Y-68.892
X179.426Y-92.942
X179.429Y-80.882
X179.429Y-104.932
X179.437Y-72.882
X179.437Y-96.932
X179.469Y-52.942
X179.472Y-124.932
X179.476Y-44.942
X179.476Y-60.892
X179.476Y-84.942
X179.479Y-116.932
X179.479Y-56.932
X179.482Y-128.922
X179.487Y-48.932
X179.487Y-64.882
X179.487Y-88.932
X179.49Y-120.922
X179.526Y-36.942
X179.529Y-108.932
X179.537Y-40.932
X179.54Y-112.922
X181.7Y-31.6
X183.429Y-76.882
X183.429Y-100.932
X183.437Y-68.882
X183.437Y-92.932
X183.44Y-80.872
X183.44Y-104.922
X183.447Y-72.872
X183.447Y-96.922
X183.479Y-52.932
X183.482Y-124.922
X183.487Y-44.932
X183.487Y-60.882
X183.487Y-84.932
X183.49Y-116.922
X183.49Y-56.922
X183.493Y-128.911
X183.497Y-48.922
X183.497Y-64.872
X183.497Y-88.922
X183.5Y-120.911
X183.537Y-36.932
X183.54Y-108.922
X183.547Y-40.922
X183.55Y-112.911
X187.419Y-76.892
X187.419Y-100.942
X187.426Y-68.892
X187.426Y-92.942
X187.429Y-80.882
X187.429Y-104.932
X187.437Y-72.882
X187.437Y-96.932
X187.469Y-52.942
X187.472Y-124.932
X187.476Y-44.942
X187.476Y-60.892
X187.476Y-84.942
X187.479Y-116.932
X187.479Y-56.932
X187.482Y-128.922
X187.487Y-48.932
X187.487Y-64.882
X187.487Y-88.932
X187.49Y-120.922
X187.526Y-36.942
X187.529Y-108.932
X187.537Y-40.932
X187.54Y-112.922
X188.8Y-31.1
X190.2Y-24.0
X191.1Y-37.0
X191.422Y-76.882
X191.422Y-100.932
X191.429Y-68.882
X191.429Y-92.932
X191.432Y-80.872
X191.432Y-104.922
X191.44Y-72.872
X191.44Y-96.922
X191.472Y-52.932
X191.475Y-124.922
X191.479Y-44.932
X191.479Y-60.882
X191.479Y-84.932
X191.482Y-116.922
X191.482Y-56.922
X191.485Y-128.911
X191.49Y-48.922
X191.49Y-64.872
X191.49Y-88.922
X191.493Y-120.911
X191.532Y-108.922
X191.54Y-40.922
X191.543Y-112.911
X195.1Y-25.5
X195.104Y-31.015
X195.116Y-30.179
X195.412Y-76.892
X195.412Y-100.942
X195.419Y-68.892
X195.419Y-92.942
X195.422Y-80.882
X195.422Y-104.932
X195.429Y-72.882
X195.429Y-96.932
X195.462Y-52.942
X195.465Y-124.932
X195.469Y-44.942
X195.469Y-60.892
X195.469Y-84.942
X195.472Y-116.932
X195.472Y-56.932
X195.475Y-128.922
X195.479Y-48.932
X195.479Y-64.882
X195.479Y-88.932
X195.482Y-120.922
X195.519Y-36.942
X195.522Y-108.932
X195.529Y-40.932
X195.532Y-112.922
X195.6Y-29.5
X199.429Y-76.882
X199.429Y-100.932
X199.437Y-68.882
X199.437Y-92.932
X199.44Y-80.872
X199.44Y-104.922
X199.447Y-72.872
X199.447Y-96.922
X199.479Y-52.932
X199.482Y-124.922
X199.487Y-44.932
X199.487Y-60.882
X199.487Y-84.932
X199.49Y-116.922
X199.49Y-56.922
X199.493Y-128.911
X199.497Y-48.922
X199.497Y-64.872
X199.497Y-88.922
X199.5Y-120.911
X199.537Y-36.932
X199.54Y-108.922
X199.547Y-40.922
X199.55Y-112.911
X200.05Y-25.5
X203.3Y-29.4
X203.419Y-76.892
X203.419Y-100.942
X203.426Y-68.892
X203.426Y-92.942
X203.429Y-80.882
X203.429Y-104.932
X203.437Y-72.882
X203.437Y-96.932
X203.469Y-52.942
X203.472Y-124.932
X203.476Y-44.942
X203.476Y-60.892
X203.476Y-84.942
X203.479Y-116.932
X203.479Y-56.932
X203.482Y-128.922
X203.487Y-48.932
X203.487Y-64.882
X203.487Y-88.932
X203.49Y-120.922
X203.526Y-36.942
X203.529Y-108.932
X203.537Y-40.932
X203.54Y-112.922
X204.65Y-29.4
X205.0Y-25.5
X206.0Y-29.4
X207.422Y-76.882
X207.422Y-100.932
X207.429Y-68.882
X207.429Y-92.932
X207.432Y-80.872
X207.432Y-104.922
X207.44Y-72.872
X207.44Y-96.922
X207.472Y-52.932
X207.475Y-124.922
X207.479Y-44.932
X207.479Y-60.882
X207.479Y-84.932
X207.482Y-116.922
X207.482Y-56.922
X207.485Y-128.911
X207.49Y-48.922
X207.49Y-64.872
X207.49Y-88.922
X207.493Y-120.911
X207.529Y-36.932
X207.532Y-108.922
X207.54Y-40.922
X207.543Y-112.911
X208.3Y-26.9
X208.3Y-28.3
X212.574Y-86.426
X212.7Y-87.4
X213.7Y-87.2
X215.8Y-41.9
X215.9Y-29.1
X216.6Y-64.8
X217.8Y-88.7
X220.8Y-69.0
X220.8Y-89.6
X222.0Y-91.3
X224.9Y-92.7
X224.9Y-93.5
X230.5Y-93.0
X240.8Y-56.2
X241.575Y-64.6
X242.0Y-59.0
X242.425Y-64.6
X243.143Y-56.057
X247.9Y-91.3
X255.5Y-67.1
X256.4Y-70.8
X258.6Y-61.2
X258.8Y-121.8
X264.3Y-121.9
T2
X199.26Y-29.0
X199.26Y-29.95
X199.26Y-30.9
X200.26Y-29.0
X200.26Y-29.95
X200.26Y-30.9
X201.31Y-29.0
X201.31Y-29.95
X201.31Y-30.9
T4
X221.625Y-63.3
X221.625Y-65.84
T5
X223.575Y-54.7
X228.275Y-54.7
X232.975Y-54.7
T3
X237.68Y-52.135G85X237.68Y-52.935
G05
X237.68Y-56.165G85X237.68Y-57.265
G05
X246.32Y-52.135G85X246.32Y-52.935
G05
X246.32Y-56.165G85X246.32Y-57.265
G05
M30
