%TF.GenerationSoftware,KiCad,Pcbnew,8.0.6*%
%TF.CreationDate,2024-12-17T00:00:42+05:30*%
%TF.ProjectId,FF1-LP-Badge,4646312d-4c50-42d4-9261-6467652e6b69,rev?*%
%TF.SameCoordinates,Original*%
%TF.FileFunction,Paste,Bot*%
%TF.FilePolarity,Positive*%
%FSLAX46Y46*%
G04 Gerber Fmt 4.6, Leading zero omitted, Abs format (unit mm)*
G04 Created by KiCad (PCBNEW 8.0.6) date 2024-12-17 00:00:42*
%MOMM*%
%LPD*%
G01*
G04 APERTURE LIST*
G04 Aperture macros list*
%AMRoundRect*
0 Rectangle with rounded corners*
0 $1 Rounding radius*
0 $2 $3 $4 $5 $6 $7 $8 $9 X,Y pos of 4 corners*
0 Add a 4 corners polygon primitive as box body*
4,1,4,$2,$3,$4,$5,$6,$7,$8,$9,$2,$3,0*
0 Add four circle primitives for the rounded corners*
1,1,$1+$1,$2,$3*
1,1,$1+$1,$4,$5*
1,1,$1+$1,$6,$7*
1,1,$1+$1,$8,$9*
0 Add four rect primitives between the rounded corners*
20,1,$1+$1,$2,$3,$4,$5,0*
20,1,$1+$1,$4,$5,$6,$7,0*
20,1,$1+$1,$6,$7,$8,$9,0*
20,1,$1+$1,$8,$9,$2,$3,0*%
G04 Aperture macros list end*
%ADD10RoundRect,0.237500X-0.237500X0.250000X-0.237500X-0.250000X0.237500X-0.250000X0.237500X0.250000X0*%
%ADD11RoundRect,0.237500X0.250000X0.237500X-0.250000X0.237500X-0.250000X-0.237500X0.250000X-0.237500X0*%
%ADD12RoundRect,0.250000X-0.337500X-0.475000X0.337500X-0.475000X0.337500X0.475000X-0.337500X0.475000X0*%
%ADD13R,0.850000X0.200000*%
%ADD14R,0.200000X0.850000*%
%ADD15R,3.600000X3.600000*%
%ADD16RoundRect,0.250000X-0.250000X-0.250000X0.250000X-0.250000X0.250000X0.250000X-0.250000X0.250000X0*%
%ADD17RoundRect,0.250000X-0.475000X0.337500X-0.475000X-0.337500X0.475000X-0.337500X0.475000X0.337500X0*%
%ADD18R,0.900000X1.250000*%
%ADD19R,0.600000X1.550000*%
%ADD20R,1.200000X1.800000*%
%ADD21RoundRect,0.237500X-0.237500X0.300000X-0.237500X-0.300000X0.237500X-0.300000X0.237500X0.300000X0*%
%ADD22RoundRect,0.237500X-0.300000X-0.237500X0.300000X-0.237500X0.300000X0.237500X-0.300000X0.237500X0*%
%ADD23RoundRect,0.375000X-0.625000X-0.375000X0.625000X-0.375000X0.625000X0.375000X-0.625000X0.375000X0*%
%ADD24RoundRect,0.500000X-0.500000X-1.400000X0.500000X-1.400000X0.500000X1.400000X-0.500000X1.400000X0*%
%ADD25RoundRect,0.237500X0.237500X-0.300000X0.237500X0.300000X-0.237500X0.300000X-0.237500X-0.300000X0*%
%ADD26RoundRect,0.150000X-0.150000X-0.425000X0.150000X-0.425000X0.150000X0.425000X-0.150000X0.425000X0*%
%ADD27RoundRect,0.075000X-0.075000X-0.500000X0.075000X-0.500000X0.075000X0.500000X-0.075000X0.500000X0*%
%ADD28O,1.000000X1.800000*%
%ADD29O,1.000000X2.100000*%
%ADD30RoundRect,0.237500X-0.250000X-0.237500X0.250000X-0.237500X0.250000X0.237500X-0.250000X0.237500X0*%
%ADD31RoundRect,0.237500X0.300000X0.237500X-0.300000X0.237500X-0.300000X-0.237500X0.300000X-0.237500X0*%
%ADD32RoundRect,0.250000X0.337500X0.475000X-0.337500X0.475000X-0.337500X-0.475000X0.337500X-0.475000X0*%
%ADD33RoundRect,0.237500X0.237500X-0.250000X0.237500X0.250000X-0.237500X0.250000X-0.237500X-0.250000X0*%
%ADD34R,0.700000X0.700000*%
%ADD35R,1.500000X0.900000*%
%ADD36RoundRect,0.087500X-0.187500X-0.087500X0.187500X-0.087500X0.187500X0.087500X-0.187500X0.087500X0*%
%ADD37RoundRect,0.087500X-0.087500X-0.187500X0.087500X-0.187500X0.087500X0.187500X-0.087500X0.187500X0*%
%ADD38RoundRect,0.250000X0.850000X0.350000X-0.850000X0.350000X-0.850000X-0.350000X0.850000X-0.350000X0*%
%ADD39RoundRect,0.250000X1.275000X1.125000X-1.275000X1.125000X-1.275000X-1.125000X1.275000X-1.125000X0*%
%ADD40RoundRect,0.150000X-0.150000X0.512500X-0.150000X-0.512500X0.150000X-0.512500X0.150000X0.512500X0*%
G04 APERTURE END LIST*
D10*
%TO.C,R82*%
X123200001Y-57430202D03*
X123200001Y-59255202D03*
%TD*%
D11*
%TO.C,R58*%
X158512500Y-77211297D03*
X156687500Y-77211297D03*
%TD*%
%TO.C,R22*%
X158518019Y-123661298D03*
X156693019Y-123661298D03*
%TD*%
D10*
%TO.C,R27*%
X133000000Y-118911297D03*
X133000000Y-120736297D03*
%TD*%
%TO.C,R50*%
X140500000Y-94786297D03*
X140500000Y-96611297D03*
%TD*%
D12*
%TO.C,C12*%
X251562500Y-75600000D03*
X253637500Y-75600000D03*
%TD*%
D11*
%TO.C,R39*%
X158512500Y-97611297D03*
X156687500Y-97611297D03*
%TD*%
D13*
%TO.C,U9*%
X142800000Y-57811297D03*
X142800000Y-58211297D03*
X142800000Y-58611297D03*
X142800001Y-59011297D03*
X142800000Y-59411297D03*
X142800000Y-59811297D03*
X142800001Y-60211297D03*
X142800000Y-60611297D03*
X142800000Y-61011297D03*
X142800000Y-61411297D03*
D14*
X142150000Y-62061297D03*
X141750000Y-62061297D03*
X141350000Y-62061297D03*
X140950000Y-62061298D03*
X140550000Y-62061297D03*
X140150000Y-62061297D03*
X139750000Y-62061298D03*
X139350000Y-62061297D03*
X138950000Y-62061297D03*
X138550000Y-62061297D03*
D13*
X137900000Y-61411297D03*
X137900000Y-61011297D03*
X137900000Y-60611297D03*
X137899999Y-60211297D03*
X137900000Y-59811297D03*
X137900000Y-59411297D03*
X137899999Y-59011297D03*
X137900000Y-58611297D03*
X137900000Y-58211297D03*
X137900000Y-57811297D03*
D14*
X138550000Y-57161297D03*
X138950000Y-57161297D03*
X139350000Y-57161297D03*
X139750000Y-57161296D03*
X140150000Y-57161297D03*
X140550000Y-57161297D03*
X140950000Y-57161296D03*
X141350000Y-57161297D03*
X141750000Y-57161297D03*
X142150000Y-57161297D03*
D15*
X140350000Y-59611297D03*
%TD*%
D10*
%TO.C,R70*%
X143600000Y-72898797D03*
X143600000Y-74723797D03*
%TD*%
D16*
%TO.C,D2*%
X232450001Y-63600000D03*
X234949999Y-63600000D03*
%TD*%
D17*
%TO.C,C1*%
X215100000Y-24762500D03*
X215100000Y-26837500D03*
%TD*%
D10*
%TO.C,R81*%
X121600001Y-57430202D03*
X121600001Y-59255202D03*
%TD*%
D18*
%TO.C,SW1*%
X217650001Y-56725000D03*
X217650001Y-52875000D03*
X216149999Y-56725000D03*
X216149999Y-52875000D03*
%TD*%
D11*
%TO.C,R61*%
X158512500Y-82011297D03*
X156687500Y-82011297D03*
%TD*%
%TO.C,R25*%
X158518020Y-128661298D03*
X156693020Y-128661298D03*
%TD*%
%TO.C,R35*%
X158512500Y-91011297D03*
X156687500Y-91011297D03*
%TD*%
D19*
%TO.C,J1*%
X166800000Y-28700000D03*
X165800000Y-28700001D03*
X164800000Y-28700000D03*
D20*
X168100001Y-26175000D03*
X163499999Y-26175000D03*
%TD*%
D21*
%TO.C,C6*%
X260325000Y-118737499D03*
X260325000Y-120462501D03*
%TD*%
D10*
%TO.C,R69*%
X142000000Y-72886297D03*
X142000000Y-74711297D03*
%TD*%
D22*
%TO.C,C30*%
X143100001Y-55642702D03*
X144825003Y-55642702D03*
%TD*%
D10*
%TO.C,R80*%
X120000001Y-57442702D03*
X120000001Y-59267702D03*
%TD*%
D11*
%TO.C,R54*%
X158512500Y-70811297D03*
X156687500Y-70811297D03*
%TD*%
D22*
%TO.C,C8*%
X228612500Y-95300000D03*
X230337502Y-95300000D03*
%TD*%
D10*
%TO.C,R30*%
X137900000Y-118898797D03*
X137900000Y-120723797D03*
%TD*%
D23*
%TO.C,U3*%
X245250000Y-70700000D03*
X245250001Y-68400000D03*
D24*
X251549999Y-68400000D03*
D23*
X245250000Y-66100000D03*
%TD*%
D10*
%TO.C,R64*%
X134000000Y-72898797D03*
X134000000Y-74723797D03*
%TD*%
D25*
%TO.C,C22*%
X152000000Y-95362501D03*
X152000000Y-93637499D03*
%TD*%
D11*
%TO.C,R23*%
X158518020Y-125261298D03*
X156693020Y-125261298D03*
%TD*%
D10*
%TO.C,R62*%
X130800000Y-72898797D03*
X130800000Y-74723797D03*
%TD*%
D11*
%TO.C,R24*%
X158518020Y-126961298D03*
X156693020Y-126961298D03*
%TD*%
%TO.C,R21*%
X158518020Y-122061299D03*
X156693020Y-122061299D03*
%TD*%
D10*
%TO.C,R45*%
X132500000Y-94798797D03*
X132500000Y-96623797D03*
%TD*%
D12*
%TO.C,C10*%
X244862500Y-61400000D03*
X246937500Y-61400000D03*
%TD*%
D11*
%TO.C,R59*%
X158512500Y-78811297D03*
X156687500Y-78811297D03*
%TD*%
D10*
%TO.C,R49*%
X138900000Y-94798797D03*
X138900000Y-96623797D03*
%TD*%
D26*
%TO.C,J2*%
X238800000Y-57290000D03*
X239600000Y-57290000D03*
D27*
X240750000Y-57289999D03*
X241750000Y-57290000D03*
X242250000Y-57290000D03*
X243250000Y-57289999D03*
D26*
X244400000Y-57290000D03*
X245200000Y-57290000D03*
X245200000Y-57290000D03*
X244400000Y-57290000D03*
D27*
X243750000Y-57290000D03*
X242750000Y-57290000D03*
X241250000Y-57290000D03*
X240250000Y-57290000D03*
D26*
X239600000Y-57290000D03*
X238800000Y-57290000D03*
D28*
X237680000Y-52535000D03*
D29*
X237680000Y-56715000D03*
D28*
X246320000Y-52535000D03*
D29*
X246320000Y-56715000D03*
%TD*%
D30*
%TO.C,R14*%
X225887500Y-70100000D03*
X227712500Y-70100000D03*
%TD*%
D10*
%TO.C,R77*%
X158400001Y-57430202D03*
X158400001Y-59255202D03*
%TD*%
%TO.C,R63*%
X132400000Y-72898797D03*
X132400000Y-74723797D03*
%TD*%
D31*
%TO.C,C25*%
X148762502Y-83042702D03*
X147037500Y-83042702D03*
%TD*%
D10*
%TO.C,R67*%
X138800000Y-72898797D03*
X138800000Y-74723797D03*
%TD*%
%TO.C,R87*%
X131200001Y-57430202D03*
X131200001Y-59255202D03*
%TD*%
D13*
%TO.C,U7*%
X151644796Y-98070916D03*
X151644796Y-98470916D03*
X151644796Y-98870916D03*
X151644797Y-99270916D03*
X151644796Y-99670916D03*
X151644796Y-100070916D03*
X151644797Y-100470916D03*
X151644796Y-100870916D03*
X151644796Y-101270916D03*
X151644796Y-101670916D03*
D14*
X150994796Y-102320916D03*
X150594796Y-102320916D03*
X150194796Y-102320916D03*
X149794796Y-102320917D03*
X149394796Y-102320916D03*
X148994796Y-102320916D03*
X148594796Y-102320917D03*
X148194796Y-102320916D03*
X147794796Y-102320916D03*
X147394796Y-102320916D03*
D13*
X146744796Y-101670916D03*
X146744796Y-101270916D03*
X146744796Y-100870916D03*
X146744795Y-100470916D03*
X146744796Y-100070916D03*
X146744796Y-99670916D03*
X146744795Y-99270916D03*
X146744796Y-98870916D03*
X146744796Y-98470916D03*
X146744796Y-98070916D03*
D14*
X147394796Y-97420916D03*
X147794796Y-97420916D03*
X148194796Y-97420916D03*
X148594796Y-97420915D03*
X148994796Y-97420916D03*
X149394796Y-97420916D03*
X149794796Y-97420915D03*
X150194796Y-97420916D03*
X150594796Y-97420916D03*
X150994796Y-97420916D03*
D15*
X149194796Y-99870916D03*
%TD*%
D10*
%TO.C,R28*%
X134600000Y-118898797D03*
X134600000Y-120723797D03*
%TD*%
D12*
%TO.C,C11*%
X244862500Y-63600000D03*
X246937500Y-63600000D03*
%TD*%
D21*
%TO.C,C7*%
X253800000Y-63737499D03*
X253800000Y-65462501D03*
%TD*%
D31*
%TO.C,C21*%
X148300000Y-105611297D03*
X146574998Y-105611297D03*
%TD*%
D21*
%TO.C,C2*%
X213200000Y-24737499D03*
X213200000Y-26462501D03*
%TD*%
D10*
%TO.C,R52*%
X143700000Y-94786297D03*
X143700000Y-96611297D03*
%TD*%
D11*
%TO.C,R41*%
X158512500Y-100811297D03*
X156687500Y-100811297D03*
%TD*%
D31*
%TO.C,C17*%
X149462501Y-129211297D03*
X147737499Y-129211297D03*
%TD*%
D25*
%TO.C,C18*%
X152100000Y-119573798D03*
X152100000Y-117848796D03*
%TD*%
D11*
%TO.C,R12*%
X227712500Y-68400000D03*
X225887500Y-68400000D03*
%TD*%
D30*
%TO.C,R6*%
X246487500Y-88900000D03*
X248312500Y-88900000D03*
%TD*%
D10*
%TO.C,R76*%
X156800001Y-57430202D03*
X156800001Y-59255202D03*
%TD*%
D32*
%TO.C,C16*%
X236637500Y-75400000D03*
X234562500Y-75400000D03*
%TD*%
D10*
%TO.C,R83*%
X124800001Y-57442702D03*
X124800001Y-59267702D03*
%TD*%
D11*
%TO.C,R17*%
X158518020Y-115661299D03*
X156693020Y-115661299D03*
%TD*%
D33*
%TO.C,R5*%
X262000000Y-120512500D03*
X262000000Y-118687500D03*
%TD*%
D11*
%TO.C,R57*%
X158512500Y-75611297D03*
X156687500Y-75611297D03*
%TD*%
D31*
%TO.C,C24*%
X147162501Y-95611297D03*
X145437499Y-95611297D03*
%TD*%
D11*
%TO.C,R60*%
X158512500Y-80411297D03*
X156687500Y-80411297D03*
%TD*%
D25*
%TO.C,C3*%
X214600000Y-54662501D03*
X214600000Y-52937499D03*
%TD*%
D10*
%TO.C,R9*%
X242800000Y-72387500D03*
X242800000Y-74212500D03*
%TD*%
D22*
%TO.C,C4*%
X225212499Y-96900000D03*
X226937501Y-96900000D03*
%TD*%
D33*
%TO.C,R4*%
X223700000Y-91312500D03*
X223700000Y-89487500D03*
%TD*%
D10*
%TO.C,R51*%
X142100000Y-94786297D03*
X142100000Y-96611297D03*
%TD*%
D11*
%TO.C,R71*%
X148512501Y-57942702D03*
X146687501Y-57942702D03*
%TD*%
%TO.C,R40*%
X158512500Y-99211297D03*
X156687500Y-99211297D03*
%TD*%
D10*
%TO.C,R86*%
X129600001Y-57430202D03*
X129600001Y-59255202D03*
%TD*%
%TO.C,R29*%
X136200000Y-118898798D03*
X136200000Y-120723798D03*
%TD*%
D11*
%TO.C,R38*%
X158512500Y-96011297D03*
X156687500Y-96011297D03*
%TD*%
D10*
%TO.C,R48*%
X137300000Y-94798797D03*
X137300000Y-96623797D03*
%TD*%
%TO.C,R74*%
X153600001Y-57430202D03*
X153600001Y-59255202D03*
%TD*%
%TO.C,R47*%
X135700000Y-94798797D03*
X135700000Y-96623797D03*
%TD*%
%TO.C,R65*%
X135600000Y-72898797D03*
X135600000Y-74723797D03*
%TD*%
D11*
%TO.C,R36*%
X158512500Y-92711297D03*
X156687500Y-92711297D03*
%TD*%
%TO.C,R37*%
X158512500Y-94411297D03*
X156687500Y-94411297D03*
%TD*%
D10*
%TO.C,R2*%
X215700000Y-31787500D03*
X215700000Y-33612500D03*
%TD*%
D31*
%TO.C,C29*%
X138462502Y-65042702D03*
X136737500Y-65042702D03*
%TD*%
D34*
%TO.C,U1*%
X201400000Y-31100000D03*
X201400000Y-30000000D03*
X201400000Y-28900000D03*
X200300000Y-31100000D03*
X200300000Y-30000000D03*
X200300000Y-28900000D03*
X199200000Y-31100000D03*
X199200000Y-30000000D03*
X199200000Y-28900000D03*
D35*
X210010000Y-23800000D03*
X210010000Y-25300000D03*
X210010000Y-26800000D03*
X210010000Y-28300000D03*
X210010000Y-29800000D03*
X210010000Y-31300000D03*
X210010000Y-32800000D03*
X210010000Y-34300000D03*
X210010000Y-35800000D03*
X192510000Y-35800000D03*
X192510000Y-34300000D03*
X192510000Y-32800000D03*
X192510000Y-31300000D03*
X192510000Y-29800000D03*
X192510000Y-28300000D03*
X192510000Y-26800000D03*
X192510000Y-25300000D03*
X192510000Y-23800000D03*
%TD*%
D11*
%TO.C,R18*%
X158518020Y-117261300D03*
X156693020Y-117261300D03*
%TD*%
D10*
%TO.C,R8*%
X242800000Y-68987500D03*
X242800000Y-70812500D03*
%TD*%
%TO.C,R44*%
X130900000Y-94798797D03*
X130900000Y-96623797D03*
%TD*%
%TO.C,R32*%
X141100000Y-118898797D03*
X141100000Y-120723797D03*
%TD*%
%TO.C,R73*%
X152000001Y-57430202D03*
X152000001Y-59255202D03*
%TD*%
D32*
%TO.C,C14*%
X229737500Y-63600000D03*
X227662500Y-63600000D03*
%TD*%
D10*
%TO.C,R88*%
X132900001Y-57430203D03*
X132900001Y-59255203D03*
%TD*%
%TO.C,R85*%
X128000001Y-57430202D03*
X128000001Y-59255202D03*
%TD*%
D22*
%TO.C,C5*%
X225212498Y-95300000D03*
X226937500Y-95300000D03*
%TD*%
D11*
%TO.C,R56*%
X158512500Y-74011297D03*
X156687500Y-74011297D03*
%TD*%
D31*
%TO.C,C23*%
X150162501Y-93711297D03*
X148437499Y-93711297D03*
%TD*%
D10*
%TO.C,R31*%
X139500000Y-118898797D03*
X139500000Y-120723797D03*
%TD*%
D11*
%TO.C,R43*%
X158512500Y-104011297D03*
X156687500Y-104011297D03*
%TD*%
D30*
%TO.C,R7*%
X259287500Y-67200000D03*
X261112500Y-67200000D03*
%TD*%
D31*
%TO.C,C28*%
X147062501Y-73211297D03*
X145337499Y-73211297D03*
%TD*%
D36*
%TO.C,U2*%
X226475000Y-93700000D03*
X226475000Y-93200000D03*
X226475000Y-92700000D03*
X226475000Y-92200000D03*
X226475000Y-91700000D03*
D37*
X227200000Y-91475000D03*
X227700000Y-91475000D03*
X228200000Y-91475000D03*
D36*
X228925000Y-91700000D03*
X228925000Y-92200000D03*
X228925000Y-92700000D03*
X228925000Y-93200000D03*
X228925000Y-93700000D03*
D37*
X228200000Y-93925000D03*
X227700000Y-93925000D03*
X227200000Y-93925000D03*
%TD*%
D32*
%TO.C,C15*%
X236637500Y-73300000D03*
X234562500Y-73300000D03*
%TD*%
D30*
%TO.C,R3*%
X214287500Y-51200000D03*
X216112500Y-51200000D03*
%TD*%
D10*
%TO.C,R75*%
X155200001Y-57430202D03*
X155200001Y-59255202D03*
%TD*%
%TO.C,R34*%
X144300000Y-118898798D03*
X144300000Y-120723798D03*
%TD*%
%TO.C,R68*%
X140400001Y-72886297D03*
X140400001Y-74711297D03*
%TD*%
D30*
%TO.C,R15*%
X225887500Y-71700000D03*
X227712500Y-71700000D03*
%TD*%
D10*
%TO.C,R84*%
X126400001Y-57430202D03*
X126400001Y-59255202D03*
%TD*%
%TO.C,R78*%
X160000001Y-58530202D03*
X160000001Y-60355202D03*
%TD*%
%TO.C,R66*%
X137200000Y-72898797D03*
X137200000Y-74723797D03*
%TD*%
D11*
%TO.C,R19*%
X158518020Y-118861298D03*
X156693020Y-118861298D03*
%TD*%
D10*
%TO.C,R33*%
X142700001Y-118898797D03*
X142700001Y-120723797D03*
%TD*%
D31*
%TO.C,C19*%
X150462501Y-117411297D03*
X148737499Y-117411297D03*
%TD*%
D11*
%TO.C,R53*%
X158512500Y-69211297D03*
X156687500Y-69211297D03*
%TD*%
D22*
%TO.C,C9*%
X244737499Y-90500000D03*
X246462501Y-90500000D03*
%TD*%
D11*
%TO.C,R55*%
X158512500Y-72411297D03*
X156687500Y-72411297D03*
%TD*%
D25*
%TO.C,C26*%
X151900000Y-72862501D03*
X151900000Y-71137499D03*
%TD*%
D11*
%TO.C,R42*%
X158512500Y-102411297D03*
X156687500Y-102411297D03*
%TD*%
D13*
%TO.C,U8*%
X151644796Y-75611297D03*
X151644796Y-76011297D03*
X151644796Y-76411297D03*
X151644797Y-76811297D03*
X151644796Y-77211297D03*
X151644796Y-77611297D03*
X151644797Y-78011297D03*
X151644796Y-78411297D03*
X151644796Y-78811297D03*
X151644796Y-79211297D03*
D14*
X150994796Y-79861297D03*
X150594796Y-79861297D03*
X150194796Y-79861297D03*
X149794796Y-79861298D03*
X149394796Y-79861297D03*
X148994796Y-79861297D03*
X148594796Y-79861298D03*
X148194796Y-79861297D03*
X147794796Y-79861297D03*
X147394796Y-79861297D03*
D13*
X146744796Y-79211297D03*
X146744796Y-78811297D03*
X146744796Y-78411297D03*
X146744795Y-78011297D03*
X146744796Y-77611297D03*
X146744796Y-77211297D03*
X146744795Y-76811297D03*
X146744796Y-76411297D03*
X146744796Y-76011297D03*
X146744796Y-75611297D03*
D14*
X147394796Y-74961297D03*
X147794796Y-74961297D03*
X148194796Y-74961297D03*
X148594796Y-74961296D03*
X148994796Y-74961297D03*
X149394796Y-74961297D03*
X149794796Y-74961296D03*
X150194796Y-74961297D03*
X150594796Y-74961297D03*
X150994796Y-74961297D03*
D15*
X149194796Y-77411297D03*
%TD*%
D10*
%TO.C,R79*%
X161600001Y-58530202D03*
X161600001Y-60355202D03*
%TD*%
D13*
%TO.C,U6*%
X151950000Y-121911297D03*
X151950000Y-122311297D03*
X151950000Y-122711297D03*
X151950001Y-123111297D03*
X151950000Y-123511297D03*
X151950000Y-123911297D03*
X151950001Y-124311297D03*
X151950000Y-124711297D03*
X151950000Y-125111297D03*
X151950000Y-125511297D03*
D14*
X151300000Y-126161297D03*
X150900000Y-126161297D03*
X150500000Y-126161297D03*
X150100000Y-126161298D03*
X149700000Y-126161297D03*
X149300000Y-126161297D03*
X148900000Y-126161298D03*
X148500000Y-126161297D03*
X148100000Y-126161297D03*
X147700000Y-126161297D03*
D13*
X147050000Y-125511297D03*
X147050000Y-125111297D03*
X147050000Y-124711297D03*
X147049999Y-124311297D03*
X147050000Y-123911297D03*
X147050000Y-123511297D03*
X147049999Y-123111297D03*
X147050000Y-122711297D03*
X147050000Y-122311297D03*
X147050000Y-121911297D03*
D14*
X147700000Y-121261297D03*
X148100000Y-121261297D03*
X148500000Y-121261297D03*
X148900000Y-121261296D03*
X149300000Y-121261297D03*
X149700000Y-121261297D03*
X150100000Y-121261296D03*
X150500000Y-121261297D03*
X150900000Y-121261297D03*
X151300000Y-121261297D03*
D15*
X149500000Y-123711297D03*
%TD*%
D11*
%TO.C,R13*%
X227712500Y-66700000D03*
X225887500Y-66700000D03*
%TD*%
D31*
%TO.C,C20*%
X147762501Y-119611297D03*
X146037499Y-119611297D03*
%TD*%
D10*
%TO.C,R26*%
X131400000Y-118898797D03*
X131400000Y-120723797D03*
%TD*%
D12*
%TO.C,C13*%
X251562500Y-73200000D03*
X253637500Y-73200000D03*
%TD*%
D38*
%TO.C,D1*%
X228700000Y-78832500D03*
X228700000Y-81112500D03*
D39*
X224075000Y-82637500D03*
X224075000Y-79587500D03*
X220725000Y-82637500D03*
X220725000Y-79587500D03*
D38*
X228700000Y-83392500D03*
%TD*%
D40*
%TO.C,U4*%
X241050001Y-60262500D03*
X242000000Y-60262500D03*
X242949999Y-60262500D03*
X242949999Y-62537500D03*
X242000000Y-62537500D03*
X241050001Y-62537500D03*
%TD*%
D31*
%TO.C,C32*%
X138262501Y-55542702D03*
X136537501Y-55542702D03*
%TD*%
D10*
%TO.C,R46*%
X134100000Y-94798797D03*
X134100000Y-96623797D03*
%TD*%
D30*
%TO.C,R16*%
X227687500Y-73300000D03*
X229512500Y-73300000D03*
%TD*%
D10*
%TO.C,R72*%
X150400001Y-57130202D03*
X150400001Y-58955202D03*
%TD*%
D11*
%TO.C,R20*%
X158518020Y-120461296D03*
X156693020Y-120461296D03*
%TD*%
D10*
%TO.C,R1*%
X214100000Y-31787500D03*
X214100000Y-33612500D03*
%TD*%
D31*
%TO.C,C27*%
X150262502Y-71142702D03*
X148537500Y-71142702D03*
%TD*%
D23*
%TO.C,U5*%
X229950000Y-70700000D03*
X229950001Y-68400000D03*
D24*
X236249999Y-68400000D03*
D23*
X229950000Y-66100000D03*
%TD*%
M02*
