%TF.GenerationSoftware,KiCad,Pcbnew,8.0.6*%
%TF.CreationDate,2024-12-17T00:01:34+05:30*%
%TF.ProjectId,FF1-LP-Badge,4646312d-4c50-42d4-9261-6467652e6b69,rev?*%
%TF.SameCoordinates,Original*%
%TF.FileFunction,Drillmap*%
%TF.FilePolarity,Positive*%
%FSLAX45Y45*%
G04 Gerber Fmt 4.5, Leading zero omitted, Abs format (unit mm)*
G04 Created by KiCad (PCBNEW 8.0.6) date 2024-12-17 00:01:34*
%MOMM*%
%LPD*%
G01*
G04 APERTURE LIST*
%ADD10C,0.050000*%
%ADD11C,0.200000*%
%ADD12C,0.100000*%
%ADD13C,0.172643*%
G04 APERTURE END LIST*
D10*
X16000000Y-4900000D02*
X16000000Y-2400000D01*
X10100000Y-13300000D02*
G75*
G02*
X10000000Y-13200000I0J100000D01*
G01*
X16000000Y-2400000D02*
G75*
G02*
X16100000Y-2300000I100000J0D01*
G01*
X10100000Y-5000000D02*
X15900000Y-5000000D01*
X21900000Y-5000000D02*
G75*
G02*
X21800000Y-4900000I0J100000D01*
G01*
X27800000Y-5100000D02*
X27800000Y-13200000D01*
X10000000Y-5100000D02*
G75*
G02*
X10100000Y-5000000I100000J0D01*
G01*
X27800000Y-13200000D02*
G75*
G02*
X27700000Y-13300000I-100000J0D01*
G01*
X27700000Y-13300000D02*
X10100000Y-13300000D01*
X16000000Y-4900000D02*
G75*
G02*
X15900000Y-5000000I-100000J0D01*
G01*
X10000000Y-13200000D02*
X10000000Y-5100000D01*
X16100000Y-2300000D02*
X21700000Y-2300000D01*
X21900000Y-5000000D02*
X27700000Y-5000000D01*
X27700000Y-5000000D02*
G75*
G02*
X27800000Y-5100000I0J-100000D01*
G01*
X21700000Y-2300000D02*
G75*
G02*
X21800000Y-2400000I0J-100000D01*
G01*
X21800000Y-2400000D02*
X21800000Y-4900000D01*
D11*
D12*
X13455000Y-6765000D02*
X13485000Y-6795000D01*
X13485000Y-6765000D02*
X13455000Y-6795000D01*
X13495000Y-5565000D02*
X13525000Y-5595000D01*
X13525000Y-5565000D02*
X13495000Y-5595000D01*
X13565000Y-6369270D02*
X13595000Y-6399270D01*
X13595000Y-6369270D02*
X13565000Y-6399270D01*
X13595000Y-6605000D02*
X13625000Y-6635000D01*
X13625000Y-6605000D02*
X13595000Y-6635000D01*
X13605000Y-8495000D02*
X13635000Y-8525000D01*
X13635000Y-8495000D02*
X13605000Y-8525000D01*
X13685000Y-10835000D02*
X13715000Y-10865000D01*
X13715000Y-10835000D02*
X13685000Y-10865000D01*
X13694999Y-6369270D02*
X13724999Y-6399270D01*
X13724999Y-6369270D02*
X13694999Y-6399270D01*
X13765000Y-6195000D02*
X13795000Y-6225000D01*
X13795000Y-6195000D02*
X13765000Y-6225000D01*
X13774999Y-6369270D02*
X13804999Y-6399270D01*
X13804999Y-6369270D02*
X13774999Y-6399270D01*
X13855000Y-6369270D02*
X13885000Y-6399270D01*
X13885000Y-6369270D02*
X13855000Y-6399270D01*
X13855000Y-8995000D02*
X13885000Y-9025000D01*
X13885000Y-8995000D02*
X13855000Y-9025000D01*
X13935000Y-6369270D02*
X13965000Y-6399270D01*
X13965000Y-6369270D02*
X13935000Y-6399270D01*
X13937815Y-5562960D02*
X13967815Y-5592960D01*
X13967815Y-5562960D02*
X13937815Y-5592960D01*
X14006396Y-5521770D02*
X14036396Y-5551770D01*
X14036396Y-5521770D02*
X14006396Y-5551770D01*
X14020000Y-5946130D02*
X14050000Y-5976130D01*
X14050000Y-5946130D02*
X14020000Y-5976130D01*
X14045000Y-11435000D02*
X14075000Y-11465000D01*
X14075000Y-11435000D02*
X14045000Y-11465000D01*
X14088028Y-5521770D02*
X14118028Y-5551770D01*
X14118028Y-5521770D02*
X14088028Y-5551770D01*
X14161011Y-5554534D02*
X14191011Y-5584534D01*
X14191011Y-5554534D02*
X14161011Y-5584534D01*
X14295000Y-12825000D02*
X14325000Y-12855000D01*
X14325000Y-12825000D02*
X14295000Y-12855000D01*
X14305000Y-6215000D02*
X14335000Y-6245000D01*
X14335000Y-6215000D02*
X14305000Y-6245000D01*
X14365000Y-5695000D02*
X14395000Y-5725000D01*
X14395000Y-5695000D02*
X14365000Y-5725000D01*
X14494999Y-8156130D02*
X14524999Y-8186130D01*
X14524999Y-8156130D02*
X14494999Y-8186130D01*
X14494999Y-10426130D02*
X14524999Y-10456130D01*
X14524999Y-10426130D02*
X14494999Y-10456130D01*
X14515000Y-5665000D02*
X14545000Y-5695000D01*
X14545000Y-5665000D02*
X14515000Y-5695000D01*
X14525000Y-7055000D02*
X14555000Y-7085000D01*
X14555000Y-7055000D02*
X14525000Y-7085000D01*
X14545000Y-9305000D02*
X14575000Y-9335000D01*
X14575000Y-9305000D02*
X14545000Y-9335000D01*
X14554999Y-12786130D02*
X14584999Y-12816130D01*
X14584999Y-12786130D02*
X14554999Y-12816130D01*
X14565000Y-13015000D02*
X14595000Y-13045000D01*
X14595000Y-13015000D02*
X14565000Y-13045000D01*
X14574999Y-8156130D02*
X14604999Y-8186130D01*
X14604999Y-8156130D02*
X14574999Y-8186130D01*
X14574999Y-10426130D02*
X14604999Y-10456130D01*
X14604999Y-10426130D02*
X14574999Y-10456130D01*
X14615000Y-12105000D02*
X14645000Y-12135000D01*
X14645000Y-12105000D02*
X14615000Y-12135000D01*
X14634999Y-12786130D02*
X14664999Y-12816130D01*
X14664999Y-12786130D02*
X14634999Y-12816130D01*
X14635000Y-11685000D02*
X14665000Y-11715000D01*
X14665000Y-11685000D02*
X14635000Y-11715000D01*
X14654999Y-8156130D02*
X14684999Y-8186130D01*
X14684999Y-8156130D02*
X14654999Y-8186130D01*
X14654999Y-10426130D02*
X14684999Y-10456130D01*
X14684999Y-10426130D02*
X14654999Y-10456130D01*
X14695000Y-13035000D02*
X14725000Y-13065000D01*
X14725000Y-13035000D02*
X14695000Y-13065000D01*
X14714999Y-12786130D02*
X14744999Y-12816130D01*
X14744999Y-12786130D02*
X14714999Y-12816130D01*
X14735000Y-8156130D02*
X14765000Y-8186130D01*
X14765000Y-8156130D02*
X14735000Y-8186130D01*
X14735000Y-10426130D02*
X14765000Y-10456130D01*
X14765000Y-10426130D02*
X14735000Y-10456130D01*
X14785000Y-7605000D02*
X14815000Y-7635000D01*
X14815000Y-7605000D02*
X14785000Y-7635000D01*
X14785000Y-7845000D02*
X14815000Y-7875000D01*
X14815000Y-7845000D02*
X14785000Y-7875000D01*
X14795000Y-12786130D02*
X14825000Y-12816130D01*
X14825000Y-12786130D02*
X14795000Y-12816130D01*
X14795000Y-9865000D02*
X14825000Y-9895000D01*
X14825000Y-9865000D02*
X14795000Y-9895000D01*
X14795000Y-10065000D02*
X14825000Y-10095000D01*
X14825000Y-10065000D02*
X14795000Y-10095000D01*
X14815000Y-8156130D02*
X14845000Y-8186130D01*
X14845000Y-8156130D02*
X14815000Y-8186130D01*
X14815000Y-10426130D02*
X14845000Y-10456130D01*
X14845000Y-10426130D02*
X14815000Y-10456130D01*
X14835000Y-7299270D02*
X14865000Y-7329270D01*
X14865000Y-7299270D02*
X14835000Y-7329270D01*
X14836250Y-5639270D02*
X14866250Y-5669270D01*
X14866250Y-5639270D02*
X14836250Y-5669270D01*
X14845000Y-9486130D02*
X14875000Y-9516130D01*
X14875000Y-9486130D02*
X14845000Y-9516130D01*
X14865000Y-7209270D02*
X14895000Y-7239270D01*
X14895000Y-7209270D02*
X14865000Y-7239270D01*
X14875000Y-11846130D02*
X14905000Y-11876130D01*
X14905000Y-11846130D02*
X14875000Y-11876130D01*
X14875000Y-12786130D02*
X14905000Y-12816130D01*
X14905000Y-12786130D02*
X14875000Y-12816130D01*
X14924196Y-9497443D02*
X14954196Y-9527443D01*
X14954196Y-9497443D02*
X14924196Y-9527443D01*
X14935000Y-11902698D02*
X14965000Y-11932698D01*
X14965000Y-11902698D02*
X14935000Y-11932698D01*
X14935000Y-12356130D02*
X14965000Y-12386130D01*
X14965000Y-12356130D02*
X14935000Y-12386130D01*
X14955000Y-9576130D02*
X14985000Y-9606130D01*
X14985000Y-9576130D02*
X14955000Y-9606130D01*
X14984480Y-7216697D02*
X15014480Y-7246697D01*
X15014480Y-7216697D02*
X14984480Y-7246697D01*
X14998198Y-11853647D02*
X15028198Y-11883647D01*
X15028198Y-11853647D02*
X14998198Y-11883647D01*
X15025000Y-5589270D02*
X15055000Y-5619270D01*
X15055000Y-5589270D02*
X15025000Y-5619270D01*
X15045000Y-6905000D02*
X15075000Y-6935000D01*
X15075000Y-6905000D02*
X15045000Y-6935000D01*
X15045000Y-11596130D02*
X15075000Y-11626130D01*
X15075000Y-11596130D02*
X15045000Y-11626130D01*
X15055000Y-9229270D02*
X15085000Y-9259270D01*
X15085000Y-9229270D02*
X15055000Y-9259270D01*
X15185000Y-5619270D02*
X15215000Y-5649270D01*
X15215000Y-5619270D02*
X15185000Y-5649270D01*
X15195000Y-7425000D02*
X15225000Y-7455000D01*
X15225000Y-7425000D02*
X15195000Y-7455000D01*
X15195000Y-9665000D02*
X15225000Y-9695000D01*
X15225000Y-9665000D02*
X15195000Y-9695000D01*
X15195000Y-12075000D02*
X15225000Y-12105000D01*
X15225000Y-12075000D02*
X15195000Y-12105000D01*
X15283100Y-6885000D02*
X15313100Y-6915000D01*
X15313100Y-6885000D02*
X15283100Y-6915000D01*
X15355000Y-11555000D02*
X15385000Y-11585000D01*
X15385000Y-11555000D02*
X15355000Y-11585000D01*
X15745000Y-10845000D02*
X15775000Y-10875000D01*
X15775000Y-10845000D02*
X15745000Y-10875000D01*
X15945000Y-10066130D02*
X15975000Y-10096130D01*
X15975000Y-10066130D02*
X15945000Y-10096130D01*
X15955000Y-7766130D02*
X15985000Y-7796130D01*
X15985000Y-7766130D02*
X15955000Y-7796130D01*
X15955000Y-12506130D02*
X15985000Y-12536130D01*
X15985000Y-12506130D02*
X15955000Y-12536130D01*
X15992300Y-11326130D02*
X16022300Y-11356130D01*
X16022300Y-11326130D02*
X15992300Y-11356130D01*
X16025000Y-10066130D02*
X16055000Y-10096130D01*
X16055000Y-10066130D02*
X16025000Y-10096130D01*
X16035000Y-7766130D02*
X16065000Y-7796130D01*
X16065000Y-7766130D02*
X16035000Y-7796130D01*
X16052300Y-11406130D02*
X16082300Y-11436130D01*
X16082300Y-11406130D02*
X16052300Y-11436130D01*
X16065000Y-12506130D02*
X16095000Y-12536130D01*
X16095000Y-12506130D02*
X16065000Y-12536130D01*
X16092300Y-8888030D02*
X16122300Y-8918030D01*
X16122300Y-8888030D02*
X16092300Y-8918030D01*
X16105000Y-8145000D02*
X16135000Y-8175000D01*
X16135000Y-8145000D02*
X16105000Y-8175000D01*
X16105001Y-10066130D02*
X16135001Y-10096130D01*
X16135001Y-10066130D02*
X16105001Y-10096130D01*
X16115000Y-7766130D02*
X16145000Y-7796130D01*
X16145000Y-7766130D02*
X16115000Y-7796130D01*
X16115000Y-11484995D02*
X16145000Y-11514995D01*
X16145000Y-11484995D02*
X16115000Y-11514995D01*
X16162300Y-8933430D02*
X16192300Y-8963430D01*
X16192300Y-8933430D02*
X16162300Y-8963430D01*
X16175000Y-12506130D02*
X16205000Y-12536130D01*
X16205000Y-12506130D02*
X16175000Y-12536130D01*
X16202300Y-6716130D02*
X16232300Y-6746130D01*
X16232300Y-6716130D02*
X16202300Y-6746130D01*
X16205000Y-3115000D02*
X16235000Y-3145000D01*
X16235000Y-3115000D02*
X16205000Y-3145000D01*
X16205000Y-11056130D02*
X16235000Y-11086130D01*
X16235000Y-11056130D02*
X16205000Y-11086130D01*
X16262300Y-6806130D02*
X16292300Y-6836130D01*
X16292300Y-6806130D02*
X16262300Y-6836130D01*
X16265000Y-6906130D02*
X16295000Y-6936130D01*
X16295000Y-6906130D02*
X16265000Y-6936130D01*
X16265000Y-12835000D02*
X16295000Y-12865000D01*
X16295000Y-12835000D02*
X16265000Y-12865000D01*
X16275000Y-10355000D02*
X16305000Y-10385000D01*
X16305000Y-10355000D02*
X16275000Y-10385000D01*
X16276595Y-9014534D02*
X16306595Y-9044534D01*
X16306595Y-9014534D02*
X16276595Y-9044534D01*
X16281500Y-4862799D02*
X16311500Y-4892799D01*
X16311500Y-4862799D02*
X16281500Y-4892799D01*
X16281500Y-4942800D02*
X16311500Y-4972800D01*
X16311500Y-4942800D02*
X16281500Y-4972800D01*
X16281500Y-5022800D02*
X16311500Y-5052800D01*
X16311500Y-5022800D02*
X16281500Y-5052800D01*
X16285000Y-7336130D02*
X16315000Y-7366130D01*
X16315000Y-7336130D02*
X16285000Y-7366130D01*
X16295000Y-5945000D02*
X16325000Y-5975000D01*
X16325000Y-5945000D02*
X16295000Y-5975000D01*
X16305000Y-12163430D02*
X16335000Y-12193430D01*
X16335000Y-12163430D02*
X16305000Y-12193430D01*
X16315000Y-11056130D02*
X16345000Y-11086130D01*
X16345000Y-11056130D02*
X16315000Y-11086130D01*
X16335000Y-9716130D02*
X16365000Y-9746130D01*
X16365000Y-9716130D02*
X16335000Y-9746130D01*
X16355000Y-8668030D02*
X16385000Y-8698030D01*
X16385000Y-8668030D02*
X16355000Y-8698030D01*
X16365000Y-11705000D02*
X16395000Y-11735000D01*
X16395000Y-11705000D02*
X16365000Y-11735000D01*
X16365000Y-7336130D02*
X16395000Y-7366130D01*
X16395000Y-7336130D02*
X16365000Y-7366130D01*
X16377447Y-6516130D02*
X16407447Y-6546130D01*
X16407447Y-6516130D02*
X16377447Y-6546130D01*
X16385000Y-12163430D02*
X16415000Y-12193430D01*
X16415000Y-12163430D02*
X16385000Y-12193430D01*
X16415000Y-9716130D02*
X16445000Y-9746130D01*
X16445000Y-9716130D02*
X16415000Y-9746130D01*
X16425000Y-11056130D02*
X16455000Y-11086130D01*
X16455000Y-11056130D02*
X16425000Y-11086130D01*
X16441471Y-8628529D02*
X16471471Y-8658529D01*
X16471471Y-8628529D02*
X16441471Y-8658529D01*
X16445001Y-7336130D02*
X16475001Y-7366130D01*
X16475001Y-7336130D02*
X16445001Y-7366130D01*
X16455000Y-3115000D02*
X16485000Y-3145000D01*
X16485000Y-3115000D02*
X16455000Y-3145000D01*
X16458743Y-6488537D02*
X16488743Y-6518537D01*
X16488743Y-6488537D02*
X16458743Y-6518537D01*
X16465000Y-6915000D02*
X16495000Y-6945000D01*
X16495000Y-6915000D02*
X16465000Y-6945000D01*
X16465000Y-12163430D02*
X16495000Y-12193430D01*
X16495000Y-12163430D02*
X16465000Y-12193430D01*
X16485000Y-4485000D02*
X16515000Y-4515000D01*
X16515000Y-4485000D02*
X16485000Y-4515000D01*
X16485000Y-6315000D02*
X16515000Y-6345000D01*
X16515000Y-6315000D02*
X16485000Y-6345000D01*
X16495000Y-9716130D02*
X16525000Y-9746130D01*
X16525000Y-9716130D02*
X16495000Y-9746130D01*
X16497574Y-5579270D02*
X16527574Y-5609270D01*
X16527574Y-5579270D02*
X16497574Y-5609270D01*
X16506900Y-4283916D02*
X16536900Y-4313916D01*
X16536900Y-4283916D02*
X16506900Y-4313916D01*
X16525000Y-6443703D02*
X16555000Y-6473703D01*
X16555000Y-6443703D02*
X16525000Y-6473703D01*
X16535000Y-8586130D02*
X16565000Y-8616130D01*
X16565000Y-8586130D02*
X16535000Y-8616130D01*
X16559858Y-4221471D02*
X16589858Y-4251471D01*
X16589858Y-4221471D02*
X16559858Y-4251471D01*
X16565000Y-2455000D02*
X16595000Y-2485000D01*
X16595000Y-2455000D02*
X16565000Y-2485000D01*
X16574233Y-5548503D02*
X16604233Y-5578503D01*
X16604233Y-5548503D02*
X16574233Y-5578503D01*
X16575000Y-11066130D02*
X16605000Y-11096130D01*
X16605000Y-11066130D02*
X16575000Y-11096130D01*
X16575000Y-11186130D02*
X16605000Y-11216130D01*
X16605000Y-11186130D02*
X16575000Y-11216130D01*
X16575000Y-12226130D02*
X16605000Y-12256130D01*
X16605000Y-12226130D02*
X16575000Y-12256130D01*
X16575000Y-12391769D02*
X16605000Y-12421769D01*
X16605000Y-12391769D02*
X16575000Y-12421769D01*
X16575000Y-12506130D02*
X16605000Y-12536130D01*
X16605000Y-12506130D02*
X16575000Y-12536130D01*
X16585000Y-11356130D02*
X16615000Y-11386130D01*
X16615000Y-11356130D02*
X16585000Y-11386130D01*
X16605000Y-9505000D02*
X16635000Y-9535000D01*
X16635000Y-9505000D02*
X16605000Y-9535000D01*
X16605000Y-4089270D02*
X16635000Y-4119270D01*
X16635000Y-4089270D02*
X16605000Y-4119270D01*
X16615000Y-8636130D02*
X16645000Y-8666130D01*
X16645000Y-8636130D02*
X16615000Y-8666130D01*
X16615000Y-8946130D02*
X16645000Y-8976130D01*
X16645000Y-8946130D02*
X16615000Y-8976130D01*
X16615000Y-3869270D02*
X16645000Y-3899270D01*
X16645000Y-3869270D02*
X16615000Y-3899270D01*
X16615000Y-3989270D02*
X16645000Y-4019270D01*
X16645000Y-3989270D02*
X16615000Y-4019270D01*
X16620000Y-8771130D02*
X16650000Y-8801130D01*
X16650000Y-8771130D02*
X16620000Y-8801130D01*
X16635000Y-9836130D02*
X16665000Y-9866130D01*
X16665000Y-9836130D02*
X16635000Y-9866130D01*
X16635000Y-9981769D02*
X16665000Y-10011769D01*
X16665000Y-9981769D02*
X16635000Y-10011769D01*
X16635000Y-10146130D02*
X16665000Y-10176130D01*
X16665000Y-10146130D02*
X16635000Y-10176130D01*
X16645000Y-5459270D02*
X16675000Y-5489270D01*
X16675000Y-5459270D02*
X16645000Y-5489270D01*
X16653100Y-5181417D02*
X16683100Y-5211417D01*
X16683100Y-5181417D02*
X16653100Y-5211417D01*
X16653100Y-5306223D02*
X16683100Y-5336223D01*
X16683100Y-5306223D02*
X16653100Y-5336223D01*
X16655000Y-4215000D02*
X16685000Y-4245000D01*
X16685000Y-4215000D02*
X16655000Y-4245000D01*
X16659361Y-6221769D02*
X16689361Y-6251769D01*
X16689361Y-6221769D02*
X16659361Y-6251769D01*
X16659361Y-7421769D02*
X16689361Y-7451769D01*
X16689361Y-7421769D02*
X16659361Y-7451769D01*
X16659361Y-7581769D02*
X16689361Y-7611769D01*
X16689361Y-7581769D02*
X16659361Y-7611769D01*
X16659361Y-7751769D02*
X16689361Y-7781769D01*
X16689361Y-7751769D02*
X16659361Y-7781769D01*
X16665000Y-6381769D02*
X16695000Y-6411769D01*
X16695000Y-6381769D02*
X16665000Y-6411769D01*
X16666990Y-6549069D02*
X16696990Y-6579069D01*
X16696990Y-6549069D02*
X16666990Y-6579069D01*
X16671990Y-5383961D02*
X16701990Y-5413961D01*
X16701990Y-5383961D02*
X16671990Y-5413961D01*
X16728651Y-7673208D02*
X16758651Y-7703208D01*
X16758651Y-7673208D02*
X16728651Y-7703208D01*
X16728651Y-10078209D02*
X16758651Y-10108209D01*
X16758651Y-10078209D02*
X16728651Y-10108209D01*
X16729380Y-6873208D02*
X16759380Y-6903208D01*
X16759380Y-6873208D02*
X16729380Y-6903208D01*
X16729380Y-9278209D02*
X16759380Y-9308209D01*
X16759380Y-9278209D02*
X16729380Y-9308209D01*
X16729690Y-8072169D02*
X16759690Y-8102169D01*
X16759690Y-8072169D02*
X16729690Y-8102169D01*
X16729690Y-10477169D02*
X16759690Y-10507169D01*
X16759690Y-10477169D02*
X16729690Y-10507169D01*
X16730420Y-7272169D02*
X16760420Y-7302169D01*
X16760420Y-7272169D02*
X16730420Y-7302169D01*
X16730420Y-9677169D02*
X16760420Y-9707169D01*
X16760420Y-9677169D02*
X16730420Y-9707169D01*
X16733651Y-5278209D02*
X16763651Y-5308209D01*
X16763651Y-5278209D02*
X16733651Y-5308209D01*
X16733961Y-12477169D02*
X16763961Y-12507169D01*
X16763961Y-12477169D02*
X16733961Y-12507169D01*
X16734380Y-4478209D02*
X16764380Y-4508209D01*
X16764380Y-4478209D02*
X16734380Y-4508209D01*
X16734380Y-6073208D02*
X16764380Y-6103208D01*
X16764380Y-6073208D02*
X16734380Y-6103208D01*
X16734380Y-8478209D02*
X16764380Y-8508209D01*
X16764380Y-8478209D02*
X16734380Y-8508209D01*
X16734690Y-11677169D02*
X16764690Y-11707169D01*
X16764690Y-11677169D02*
X16734690Y-11707169D01*
X16734690Y-5677169D02*
X16764690Y-5707169D01*
X16764690Y-5677169D02*
X16734690Y-5707169D01*
X16735000Y-12876130D02*
X16765000Y-12906130D01*
X16765000Y-12876130D02*
X16735000Y-12906130D01*
X16735420Y-4877169D02*
X16765420Y-4907169D01*
X16765420Y-4877169D02*
X16735420Y-4907169D01*
X16735420Y-6472169D02*
X16765420Y-6502169D01*
X16765420Y-6472169D02*
X16735420Y-6502169D01*
X16735420Y-8877169D02*
X16765420Y-8907169D01*
X16765420Y-8877169D02*
X16735420Y-8907169D01*
X16735729Y-12076130D02*
X16765729Y-12106130D01*
X16765729Y-12076130D02*
X16735729Y-12106130D01*
X16739380Y-3678208D02*
X16769380Y-3708208D01*
X16769380Y-3678208D02*
X16739380Y-3708208D01*
X16739690Y-10877169D02*
X16769690Y-10907169D01*
X16769690Y-10877169D02*
X16739690Y-10907169D01*
X16740420Y-4077169D02*
X16770420Y-4107169D01*
X16770420Y-4077169D02*
X16740420Y-4107169D01*
X16740729Y-11276130D02*
X16770729Y-11306130D01*
X16770729Y-11276130D02*
X16740729Y-11306130D01*
X17127611Y-7674248D02*
X17157611Y-7704248D01*
X17157611Y-7674248D02*
X17127611Y-7704248D01*
X17127611Y-10079248D02*
X17157611Y-10109248D01*
X17157611Y-10079248D02*
X17127611Y-10109248D01*
X17128341Y-6874248D02*
X17158341Y-6904248D01*
X17158341Y-6874248D02*
X17128341Y-6904248D01*
X17128341Y-9279248D02*
X17158341Y-9309248D01*
X17158341Y-9279248D02*
X17128341Y-9309248D01*
X17128651Y-8073208D02*
X17158651Y-8103208D01*
X17158651Y-8073208D02*
X17128651Y-8103208D01*
X17128651Y-10478209D02*
X17158651Y-10508209D01*
X17158651Y-10478209D02*
X17128651Y-10508209D01*
X17129380Y-7273208D02*
X17159380Y-7303208D01*
X17159380Y-7273208D02*
X17129380Y-7303208D01*
X17129380Y-9678209D02*
X17159380Y-9708209D01*
X17159380Y-9678209D02*
X17129380Y-9708209D01*
X17132611Y-5279248D02*
X17162611Y-5309248D01*
X17162611Y-5279248D02*
X17132611Y-5309248D01*
X17132921Y-12478208D02*
X17162921Y-12508208D01*
X17162921Y-12478208D02*
X17132921Y-12508208D01*
X17133341Y-4479248D02*
X17163341Y-4509248D01*
X17163341Y-4479248D02*
X17133341Y-4509248D01*
X17133341Y-6074248D02*
X17163341Y-6104248D01*
X17163341Y-6074248D02*
X17133341Y-6104248D01*
X17133341Y-8479248D02*
X17163341Y-8509248D01*
X17163341Y-8479248D02*
X17133341Y-8509248D01*
X17133651Y-11678208D02*
X17163651Y-11708208D01*
X17163651Y-11678208D02*
X17133651Y-11708208D01*
X17133651Y-5678208D02*
X17163651Y-5708208D01*
X17163651Y-5678208D02*
X17133651Y-5708208D01*
X17133961Y-12877169D02*
X17163961Y-12907169D01*
X17163961Y-12877169D02*
X17133961Y-12907169D01*
X17134380Y-4878209D02*
X17164380Y-4908209D01*
X17164380Y-4878209D02*
X17134380Y-4908209D01*
X17134380Y-6473208D02*
X17164380Y-6503208D01*
X17164380Y-6473208D02*
X17134380Y-6503208D01*
X17134380Y-8878209D02*
X17164380Y-8908209D01*
X17164380Y-8878209D02*
X17134380Y-8908209D01*
X17134690Y-12077169D02*
X17164690Y-12107169D01*
X17164690Y-12077169D02*
X17134690Y-12107169D01*
X17138341Y-3679248D02*
X17168341Y-3709248D01*
X17168341Y-3679248D02*
X17138341Y-3709248D01*
X17138651Y-10878209D02*
X17168651Y-10908209D01*
X17168651Y-10878209D02*
X17138651Y-10908209D01*
X17139380Y-4078208D02*
X17169380Y-4108208D01*
X17169380Y-4078208D02*
X17139380Y-4108208D01*
X17139690Y-11277169D02*
X17169690Y-11307169D01*
X17169690Y-11277169D02*
X17139690Y-11307169D01*
X17527921Y-7673208D02*
X17557921Y-7703208D01*
X17557921Y-7673208D02*
X17527921Y-7703208D01*
X17527921Y-10078209D02*
X17557921Y-10108209D01*
X17557921Y-10078209D02*
X17527921Y-10108209D01*
X17528651Y-6873208D02*
X17558651Y-6903208D01*
X17558651Y-6873208D02*
X17528651Y-6903208D01*
X17528651Y-9278209D02*
X17558651Y-9308209D01*
X17558651Y-9278209D02*
X17528651Y-9308209D01*
X17528961Y-8072169D02*
X17558961Y-8102169D01*
X17558961Y-8072169D02*
X17528961Y-8102169D01*
X17528961Y-10477169D02*
X17558961Y-10507169D01*
X17558961Y-10477169D02*
X17528961Y-10507169D01*
X17529690Y-7272169D02*
X17559690Y-7302169D01*
X17559690Y-7272169D02*
X17529690Y-7302169D01*
X17529690Y-9677169D02*
X17559690Y-9707169D01*
X17559690Y-9677169D02*
X17529690Y-9707169D01*
X17532921Y-5278209D02*
X17562921Y-5308209D01*
X17562921Y-5278209D02*
X17532921Y-5308209D01*
X17533231Y-12477169D02*
X17563231Y-12507169D01*
X17563231Y-12477169D02*
X17533231Y-12507169D01*
X17533651Y-4478209D02*
X17563651Y-4508209D01*
X17563651Y-4478209D02*
X17533651Y-4508209D01*
X17533651Y-6073208D02*
X17563651Y-6103208D01*
X17563651Y-6073208D02*
X17533651Y-6103208D01*
X17533651Y-8478209D02*
X17563651Y-8508209D01*
X17563651Y-8478209D02*
X17533651Y-8508209D01*
X17533961Y-11677169D02*
X17563961Y-11707169D01*
X17563961Y-11677169D02*
X17533961Y-11707169D01*
X17533961Y-5677169D02*
X17563961Y-5707169D01*
X17563961Y-5677169D02*
X17533961Y-5707169D01*
X17534270Y-12876130D02*
X17564270Y-12906130D01*
X17564270Y-12876130D02*
X17534270Y-12906130D01*
X17534690Y-4877169D02*
X17564690Y-4907169D01*
X17564690Y-4877169D02*
X17534690Y-4907169D01*
X17534690Y-6472169D02*
X17564690Y-6502169D01*
X17564690Y-6472169D02*
X17534690Y-6502169D01*
X17534690Y-8877169D02*
X17564690Y-8907169D01*
X17564690Y-8877169D02*
X17534690Y-8907169D01*
X17535000Y-12076130D02*
X17565000Y-12106130D01*
X17565000Y-12076130D02*
X17535000Y-12106130D01*
X17538651Y-3678208D02*
X17568651Y-3708208D01*
X17568651Y-3678208D02*
X17538651Y-3708208D01*
X17538961Y-10877169D02*
X17568961Y-10907169D01*
X17568961Y-10877169D02*
X17538961Y-10907169D01*
X17539690Y-4077169D02*
X17569690Y-4107169D01*
X17569690Y-4077169D02*
X17539690Y-4107169D01*
X17540000Y-11276130D02*
X17570000Y-11306130D01*
X17570000Y-11276130D02*
X17540000Y-11306130D01*
X17926882Y-7674248D02*
X17956882Y-7704248D01*
X17956882Y-7674248D02*
X17926882Y-7704248D01*
X17926882Y-10079248D02*
X17956882Y-10109248D01*
X17956882Y-10079248D02*
X17926882Y-10109248D01*
X17927611Y-6874248D02*
X17957611Y-6904248D01*
X17957611Y-6874248D02*
X17927611Y-6904248D01*
X17927611Y-9279248D02*
X17957611Y-9309248D01*
X17957611Y-9279248D02*
X17927611Y-9309248D01*
X17927921Y-8073208D02*
X17957921Y-8103208D01*
X17957921Y-8073208D02*
X17927921Y-8103208D01*
X17927921Y-10478209D02*
X17957921Y-10508209D01*
X17957921Y-10478209D02*
X17927921Y-10508209D01*
X17928651Y-7273208D02*
X17958651Y-7303208D01*
X17958651Y-7273208D02*
X17928651Y-7303208D01*
X17928651Y-9678209D02*
X17958651Y-9708209D01*
X17958651Y-9678209D02*
X17928651Y-9708209D01*
X17931882Y-5279248D02*
X17961882Y-5309248D01*
X17961882Y-5279248D02*
X17931882Y-5309248D01*
X17932192Y-12478208D02*
X17962192Y-12508208D01*
X17962192Y-12478208D02*
X17932192Y-12508208D01*
X17932611Y-4479248D02*
X17962611Y-4509248D01*
X17962611Y-4479248D02*
X17932611Y-4509248D01*
X17932611Y-6074248D02*
X17962611Y-6104248D01*
X17962611Y-6074248D02*
X17932611Y-6104248D01*
X17932611Y-8479248D02*
X17962611Y-8509248D01*
X17962611Y-8479248D02*
X17932611Y-8509248D01*
X17932921Y-11678208D02*
X17962921Y-11708208D01*
X17962921Y-11678208D02*
X17932921Y-11708208D01*
X17932921Y-5678208D02*
X17962921Y-5708208D01*
X17962921Y-5678208D02*
X17932921Y-5708208D01*
X17933231Y-12877169D02*
X17963231Y-12907169D01*
X17963231Y-12877169D02*
X17933231Y-12907169D01*
X17933651Y-4878209D02*
X17963651Y-4908209D01*
X17963651Y-4878209D02*
X17933651Y-4908209D01*
X17933651Y-6473208D02*
X17963651Y-6503208D01*
X17963651Y-6473208D02*
X17933651Y-6503208D01*
X17933651Y-8878209D02*
X17963651Y-8908209D01*
X17963651Y-8878209D02*
X17933651Y-8908209D01*
X17933961Y-12077169D02*
X17963961Y-12107169D01*
X17963961Y-12077169D02*
X17933961Y-12107169D01*
X17937611Y-3679248D02*
X17967611Y-3709248D01*
X17967611Y-3679248D02*
X17937611Y-3709248D01*
X17937921Y-10878209D02*
X17967921Y-10908209D01*
X17967921Y-10878209D02*
X17937921Y-10908209D01*
X17938651Y-4078208D02*
X17968651Y-4108208D01*
X17968651Y-4078208D02*
X17938651Y-4108208D01*
X17938961Y-11277169D02*
X17968961Y-11307169D01*
X17968961Y-11277169D02*
X17938961Y-11307169D01*
X18155000Y-3145000D02*
X18185000Y-3175000D01*
X18185000Y-3145000D02*
X18155000Y-3175000D01*
X18327921Y-7673208D02*
X18357921Y-7703208D01*
X18357921Y-7673208D02*
X18327921Y-7703208D01*
X18327921Y-10078209D02*
X18357921Y-10108209D01*
X18357921Y-10078209D02*
X18327921Y-10108209D01*
X18328651Y-6873208D02*
X18358651Y-6903208D01*
X18358651Y-6873208D02*
X18328651Y-6903208D01*
X18328651Y-9278209D02*
X18358651Y-9308209D01*
X18358651Y-9278209D02*
X18328651Y-9308209D01*
X18328961Y-8072169D02*
X18358961Y-8102169D01*
X18358961Y-8072169D02*
X18328961Y-8102169D01*
X18328961Y-10477169D02*
X18358961Y-10507169D01*
X18358961Y-10477169D02*
X18328961Y-10507169D01*
X18329690Y-7272169D02*
X18359690Y-7302169D01*
X18359690Y-7272169D02*
X18329690Y-7302169D01*
X18329690Y-9677169D02*
X18359690Y-9707169D01*
X18359690Y-9677169D02*
X18329690Y-9707169D01*
X18332921Y-5278209D02*
X18362921Y-5308209D01*
X18362921Y-5278209D02*
X18332921Y-5308209D01*
X18333231Y-12477169D02*
X18363231Y-12507169D01*
X18363231Y-12477169D02*
X18333231Y-12507169D01*
X18333651Y-4478209D02*
X18363651Y-4508209D01*
X18363651Y-4478209D02*
X18333651Y-4508209D01*
X18333651Y-6073208D02*
X18363651Y-6103208D01*
X18363651Y-6073208D02*
X18333651Y-6103208D01*
X18333651Y-8478209D02*
X18363651Y-8508209D01*
X18363651Y-8478209D02*
X18333651Y-8508209D01*
X18333961Y-11677169D02*
X18363961Y-11707169D01*
X18363961Y-11677169D02*
X18333961Y-11707169D01*
X18333961Y-5677169D02*
X18363961Y-5707169D01*
X18363961Y-5677169D02*
X18333961Y-5707169D01*
X18334271Y-12876130D02*
X18364271Y-12906130D01*
X18364271Y-12876130D02*
X18334271Y-12906130D01*
X18334690Y-4877169D02*
X18364690Y-4907169D01*
X18364690Y-4877169D02*
X18334690Y-4907169D01*
X18334690Y-6472169D02*
X18364690Y-6502169D01*
X18364690Y-6472169D02*
X18334690Y-6502169D01*
X18334690Y-8877169D02*
X18364690Y-8907169D01*
X18364690Y-8877169D02*
X18334690Y-8907169D01*
X18335000Y-12076130D02*
X18365000Y-12106130D01*
X18365000Y-12076130D02*
X18335000Y-12106130D01*
X18338651Y-3678208D02*
X18368651Y-3708208D01*
X18368651Y-3678208D02*
X18338651Y-3708208D01*
X18338961Y-10877169D02*
X18368961Y-10907169D01*
X18368961Y-10877169D02*
X18338961Y-10907169D01*
X18339690Y-4077169D02*
X18369690Y-4107169D01*
X18369690Y-4077169D02*
X18339690Y-4107169D01*
X18340000Y-11276130D02*
X18370000Y-11306130D01*
X18370000Y-11276130D02*
X18340000Y-11306130D01*
X18726882Y-7674248D02*
X18756882Y-7704248D01*
X18756882Y-7674248D02*
X18726882Y-7704248D01*
X18726882Y-10079248D02*
X18756882Y-10109248D01*
X18756882Y-10079248D02*
X18726882Y-10109248D01*
X18727611Y-6874248D02*
X18757611Y-6904248D01*
X18757611Y-6874248D02*
X18727611Y-6904248D01*
X18727611Y-9279248D02*
X18757611Y-9309248D01*
X18757611Y-9279248D02*
X18727611Y-9309248D01*
X18727921Y-8073208D02*
X18757921Y-8103208D01*
X18757921Y-8073208D02*
X18727921Y-8103208D01*
X18727921Y-10478209D02*
X18757921Y-10508209D01*
X18757921Y-10478209D02*
X18727921Y-10508209D01*
X18728651Y-7273208D02*
X18758651Y-7303208D01*
X18758651Y-7273208D02*
X18728651Y-7303208D01*
X18728651Y-9678209D02*
X18758651Y-9708209D01*
X18758651Y-9678209D02*
X18728651Y-9708209D01*
X18731882Y-5279248D02*
X18761882Y-5309248D01*
X18761882Y-5279248D02*
X18731882Y-5309248D01*
X18732192Y-12478208D02*
X18762192Y-12508208D01*
X18762192Y-12478208D02*
X18732192Y-12508208D01*
X18732611Y-4479248D02*
X18762611Y-4509248D01*
X18762611Y-4479248D02*
X18732611Y-4509248D01*
X18732611Y-6074248D02*
X18762611Y-6104248D01*
X18762611Y-6074248D02*
X18732611Y-6104248D01*
X18732611Y-8479248D02*
X18762611Y-8509248D01*
X18762611Y-8479248D02*
X18732611Y-8509248D01*
X18732921Y-11678208D02*
X18762921Y-11708208D01*
X18762921Y-11678208D02*
X18732921Y-11708208D01*
X18732921Y-5678208D02*
X18762921Y-5708208D01*
X18762921Y-5678208D02*
X18732921Y-5708208D01*
X18733231Y-12877169D02*
X18763231Y-12907169D01*
X18763231Y-12877169D02*
X18733231Y-12907169D01*
X18733651Y-4878209D02*
X18763651Y-4908209D01*
X18763651Y-4878209D02*
X18733651Y-4908209D01*
X18733651Y-6473208D02*
X18763651Y-6503208D01*
X18763651Y-6473208D02*
X18733651Y-6503208D01*
X18733651Y-8878209D02*
X18763651Y-8908209D01*
X18763651Y-8878209D02*
X18733651Y-8908209D01*
X18733961Y-12077169D02*
X18763961Y-12107169D01*
X18763961Y-12077169D02*
X18733961Y-12107169D01*
X18737611Y-3679248D02*
X18767611Y-3709248D01*
X18767611Y-3679248D02*
X18737611Y-3709248D01*
X18737921Y-10878209D02*
X18767921Y-10908209D01*
X18767921Y-10878209D02*
X18737921Y-10908209D01*
X18738651Y-4078208D02*
X18768651Y-4108208D01*
X18768651Y-4078208D02*
X18738651Y-4108208D01*
X18738961Y-11277169D02*
X18768961Y-11307169D01*
X18768961Y-11277169D02*
X18738961Y-11307169D01*
X18865000Y-3095000D02*
X18895000Y-3125000D01*
X18895000Y-3095000D02*
X18865000Y-3125000D01*
X19005000Y-2385000D02*
X19035000Y-2415000D01*
X19035000Y-2385000D02*
X19005000Y-2415000D01*
X19095000Y-3685000D02*
X19125000Y-3715000D01*
X19125000Y-3685000D02*
X19095000Y-3715000D01*
X19127192Y-7673208D02*
X19157192Y-7703208D01*
X19157192Y-7673208D02*
X19127192Y-7703208D01*
X19127192Y-10078209D02*
X19157192Y-10108209D01*
X19157192Y-10078209D02*
X19127192Y-10108209D01*
X19127921Y-6873208D02*
X19157921Y-6903208D01*
X19157921Y-6873208D02*
X19127921Y-6903208D01*
X19127921Y-9278209D02*
X19157921Y-9308209D01*
X19157921Y-9278209D02*
X19127921Y-9308209D01*
X19128231Y-8072169D02*
X19158231Y-8102169D01*
X19158231Y-8072169D02*
X19128231Y-8102169D01*
X19128231Y-10477169D02*
X19158231Y-10507169D01*
X19158231Y-10477169D02*
X19128231Y-10507169D01*
X19128961Y-7272169D02*
X19158961Y-7302169D01*
X19158961Y-7272169D02*
X19128961Y-7302169D01*
X19128961Y-9677169D02*
X19158961Y-9707169D01*
X19158961Y-9677169D02*
X19128961Y-9707169D01*
X19132192Y-5278209D02*
X19162192Y-5308209D01*
X19162192Y-5278209D02*
X19132192Y-5308209D01*
X19132502Y-12477169D02*
X19162502Y-12507169D01*
X19162502Y-12477169D02*
X19132502Y-12507169D01*
X19132921Y-4478209D02*
X19162921Y-4508209D01*
X19162921Y-4478209D02*
X19132921Y-4508209D01*
X19132921Y-6073208D02*
X19162921Y-6103208D01*
X19162921Y-6073208D02*
X19132921Y-6103208D01*
X19132921Y-8478209D02*
X19162921Y-8508209D01*
X19162921Y-8478209D02*
X19132921Y-8508209D01*
X19133231Y-11677169D02*
X19163231Y-11707169D01*
X19163231Y-11677169D02*
X19133231Y-11707169D01*
X19133231Y-5677169D02*
X19163231Y-5707169D01*
X19163231Y-5677169D02*
X19133231Y-5707169D01*
X19133541Y-12876130D02*
X19163541Y-12906130D01*
X19163541Y-12876130D02*
X19133541Y-12906130D01*
X19133961Y-4877169D02*
X19163961Y-4907169D01*
X19163961Y-4877169D02*
X19133961Y-4907169D01*
X19133961Y-6472169D02*
X19163961Y-6502169D01*
X19163961Y-6472169D02*
X19133961Y-6502169D01*
X19133961Y-8877169D02*
X19163961Y-8907169D01*
X19163961Y-8877169D02*
X19133961Y-8907169D01*
X19134270Y-12076130D02*
X19164270Y-12106130D01*
X19164270Y-12076130D02*
X19134270Y-12106130D01*
X19138231Y-10877169D02*
X19168231Y-10907169D01*
X19168231Y-10877169D02*
X19138231Y-10907169D01*
X19138961Y-4077169D02*
X19168961Y-4107169D01*
X19168961Y-4077169D02*
X19138961Y-4107169D01*
X19139270Y-11276130D02*
X19169270Y-11306130D01*
X19169270Y-11276130D02*
X19139270Y-11306130D01*
X19495000Y-2535000D02*
X19525000Y-2565000D01*
X19525000Y-2535000D02*
X19495000Y-2565000D01*
X19495422Y-3086516D02*
X19525422Y-3116516D01*
X19525422Y-3086516D02*
X19495422Y-3116516D01*
X19496626Y-3002867D02*
X19526626Y-3032867D01*
X19526626Y-3002867D02*
X19496626Y-3032867D01*
X19526152Y-7674248D02*
X19556152Y-7704248D01*
X19556152Y-7674248D02*
X19526152Y-7704248D01*
X19526152Y-10079248D02*
X19556152Y-10109248D01*
X19556152Y-10079248D02*
X19526152Y-10109248D01*
X19526882Y-6874248D02*
X19556882Y-6904248D01*
X19556882Y-6874248D02*
X19526882Y-6904248D01*
X19526882Y-9279248D02*
X19556882Y-9309248D01*
X19556882Y-9279248D02*
X19526882Y-9309248D01*
X19527192Y-8073208D02*
X19557192Y-8103208D01*
X19557192Y-8073208D02*
X19527192Y-8103208D01*
X19527192Y-10478209D02*
X19557192Y-10508209D01*
X19557192Y-10478209D02*
X19527192Y-10508209D01*
X19527921Y-7273208D02*
X19557921Y-7303208D01*
X19557921Y-7273208D02*
X19527921Y-7303208D01*
X19527921Y-9678209D02*
X19557921Y-9708209D01*
X19557921Y-9678209D02*
X19527921Y-9708209D01*
X19531152Y-5279248D02*
X19561152Y-5309248D01*
X19561152Y-5279248D02*
X19531152Y-5309248D01*
X19531462Y-12478208D02*
X19561462Y-12508208D01*
X19561462Y-12478208D02*
X19531462Y-12508208D01*
X19531882Y-4479248D02*
X19561882Y-4509248D01*
X19561882Y-4479248D02*
X19531882Y-4509248D01*
X19531882Y-6074248D02*
X19561882Y-6104248D01*
X19561882Y-6074248D02*
X19531882Y-6104248D01*
X19531882Y-8479248D02*
X19561882Y-8509248D01*
X19561882Y-8479248D02*
X19531882Y-8509248D01*
X19532192Y-11678208D02*
X19562192Y-11708208D01*
X19562192Y-11678208D02*
X19532192Y-11708208D01*
X19532192Y-5678208D02*
X19562192Y-5708208D01*
X19562192Y-5678208D02*
X19532192Y-5708208D01*
X19532502Y-12877169D02*
X19562502Y-12907169D01*
X19562502Y-12877169D02*
X19532502Y-12907169D01*
X19532921Y-4878209D02*
X19562921Y-4908209D01*
X19562921Y-4878209D02*
X19532921Y-4908209D01*
X19532921Y-6473208D02*
X19562921Y-6503208D01*
X19562921Y-6473208D02*
X19532921Y-6503208D01*
X19532921Y-8878209D02*
X19562921Y-8908209D01*
X19562921Y-8878209D02*
X19532921Y-8908209D01*
X19533231Y-12077169D02*
X19563231Y-12107169D01*
X19563231Y-12077169D02*
X19533231Y-12107169D01*
X19536882Y-3679248D02*
X19566882Y-3709248D01*
X19566882Y-3679248D02*
X19536882Y-3709248D01*
X19537192Y-10878209D02*
X19567192Y-10908209D01*
X19567192Y-10878209D02*
X19537192Y-10908209D01*
X19537921Y-4078208D02*
X19567921Y-4108208D01*
X19567921Y-4078208D02*
X19537921Y-4108208D01*
X19538231Y-11277169D02*
X19568231Y-11307169D01*
X19568231Y-11277169D02*
X19538231Y-11307169D01*
X19545000Y-2935000D02*
X19575000Y-2965000D01*
X19575000Y-2935000D02*
X19545000Y-2965000D01*
X19927921Y-7673208D02*
X19957921Y-7703208D01*
X19957921Y-7673208D02*
X19927921Y-7703208D01*
X19927921Y-10078209D02*
X19957921Y-10108209D01*
X19957921Y-10078209D02*
X19927921Y-10108209D01*
X19928651Y-6873208D02*
X19958651Y-6903208D01*
X19958651Y-6873208D02*
X19928651Y-6903208D01*
X19928651Y-9278209D02*
X19958651Y-9308209D01*
X19958651Y-9278209D02*
X19928651Y-9308209D01*
X19928961Y-8072169D02*
X19958961Y-8102169D01*
X19958961Y-8072169D02*
X19928961Y-8102169D01*
X19928961Y-10477169D02*
X19958961Y-10507169D01*
X19958961Y-10477169D02*
X19928961Y-10507169D01*
X19929690Y-7272169D02*
X19959690Y-7302169D01*
X19959690Y-7272169D02*
X19929690Y-7302169D01*
X19929690Y-9677169D02*
X19959690Y-9707169D01*
X19959690Y-9677169D02*
X19929690Y-9707169D01*
X19932921Y-5278209D02*
X19962921Y-5308209D01*
X19962921Y-5278209D02*
X19932921Y-5308209D01*
X19933231Y-12477169D02*
X19963231Y-12507169D01*
X19963231Y-12477169D02*
X19933231Y-12507169D01*
X19933651Y-4478209D02*
X19963651Y-4508209D01*
X19963651Y-4478209D02*
X19933651Y-4508209D01*
X19933651Y-6073208D02*
X19963651Y-6103208D01*
X19963651Y-6073208D02*
X19933651Y-6103208D01*
X19933651Y-8478209D02*
X19963651Y-8508209D01*
X19963651Y-8478209D02*
X19933651Y-8508209D01*
X19933961Y-11677169D02*
X19963961Y-11707169D01*
X19963961Y-11677169D02*
X19933961Y-11707169D01*
X19933961Y-5677169D02*
X19963961Y-5707169D01*
X19963961Y-5677169D02*
X19933961Y-5707169D01*
X19934271Y-12876130D02*
X19964271Y-12906130D01*
X19964271Y-12876130D02*
X19934271Y-12906130D01*
X19934690Y-4877169D02*
X19964690Y-4907169D01*
X19964690Y-4877169D02*
X19934690Y-4907169D01*
X19934690Y-6472169D02*
X19964690Y-6502169D01*
X19964690Y-6472169D02*
X19934690Y-6502169D01*
X19934690Y-8877169D02*
X19964690Y-8907169D01*
X19964690Y-8877169D02*
X19934690Y-8907169D01*
X19935000Y-12076130D02*
X19965000Y-12106130D01*
X19965000Y-12076130D02*
X19935000Y-12106130D01*
X19938651Y-3678208D02*
X19968651Y-3708208D01*
X19968651Y-3678208D02*
X19938651Y-3708208D01*
X19938961Y-10877169D02*
X19968961Y-10907169D01*
X19968961Y-10877169D02*
X19938961Y-10907169D01*
X19939690Y-4077169D02*
X19969690Y-4107169D01*
X19969690Y-4077169D02*
X19939690Y-4107169D01*
X19940000Y-11276130D02*
X19970000Y-11306130D01*
X19970000Y-11276130D02*
X19940000Y-11306130D01*
X19990000Y-2535000D02*
X20020000Y-2565000D01*
X20020000Y-2535000D02*
X19990000Y-2565000D01*
X20315000Y-2925000D02*
X20345000Y-2955000D01*
X20345000Y-2925000D02*
X20315000Y-2955000D01*
X20326882Y-7674248D02*
X20356882Y-7704248D01*
X20356882Y-7674248D02*
X20326882Y-7704248D01*
X20326882Y-10079248D02*
X20356882Y-10109248D01*
X20356882Y-10079248D02*
X20326882Y-10109248D01*
X20327611Y-6874248D02*
X20357611Y-6904248D01*
X20357611Y-6874248D02*
X20327611Y-6904248D01*
X20327611Y-9279248D02*
X20357611Y-9309248D01*
X20357611Y-9279248D02*
X20327611Y-9309248D01*
X20327921Y-8073208D02*
X20357921Y-8103208D01*
X20357921Y-8073208D02*
X20327921Y-8103208D01*
X20327921Y-10478209D02*
X20357921Y-10508209D01*
X20357921Y-10478209D02*
X20327921Y-10508209D01*
X20328651Y-7273208D02*
X20358651Y-7303208D01*
X20358651Y-7273208D02*
X20328651Y-7303208D01*
X20328651Y-9678209D02*
X20358651Y-9708209D01*
X20358651Y-9678209D02*
X20328651Y-9708209D01*
X20331882Y-5279248D02*
X20361882Y-5309248D01*
X20361882Y-5279248D02*
X20331882Y-5309248D01*
X20332192Y-12478208D02*
X20362192Y-12508208D01*
X20362192Y-12478208D02*
X20332192Y-12508208D01*
X20332611Y-4479248D02*
X20362611Y-4509248D01*
X20362611Y-4479248D02*
X20332611Y-4509248D01*
X20332611Y-6074248D02*
X20362611Y-6104248D01*
X20362611Y-6074248D02*
X20332611Y-6104248D01*
X20332611Y-8479248D02*
X20362611Y-8509248D01*
X20362611Y-8479248D02*
X20332611Y-8509248D01*
X20332921Y-11678208D02*
X20362921Y-11708208D01*
X20362921Y-11678208D02*
X20332921Y-11708208D01*
X20332921Y-5678208D02*
X20362921Y-5708208D01*
X20362921Y-5678208D02*
X20332921Y-5708208D01*
X20333231Y-12877169D02*
X20363231Y-12907169D01*
X20363231Y-12877169D02*
X20333231Y-12907169D01*
X20333651Y-4878209D02*
X20363651Y-4908209D01*
X20363651Y-4878209D02*
X20333651Y-4908209D01*
X20333651Y-6473208D02*
X20363651Y-6503208D01*
X20363651Y-6473208D02*
X20333651Y-6503208D01*
X20333651Y-8878209D02*
X20363651Y-8908209D01*
X20363651Y-8878209D02*
X20333651Y-8908209D01*
X20333961Y-12077169D02*
X20363961Y-12107169D01*
X20363961Y-12077169D02*
X20333961Y-12107169D01*
X20337611Y-3679248D02*
X20367611Y-3709248D01*
X20367611Y-3679248D02*
X20337611Y-3709248D01*
X20337921Y-10878209D02*
X20367921Y-10908209D01*
X20367921Y-10878209D02*
X20337921Y-10908209D01*
X20338651Y-4078208D02*
X20368651Y-4108208D01*
X20368651Y-4078208D02*
X20338651Y-4108208D01*
X20338961Y-11277169D02*
X20368961Y-11307169D01*
X20368961Y-11277169D02*
X20338961Y-11307169D01*
X20450000Y-2925000D02*
X20480000Y-2955000D01*
X20480000Y-2925000D02*
X20450000Y-2955000D01*
X20485000Y-2535000D02*
X20515000Y-2565000D01*
X20515000Y-2535000D02*
X20485000Y-2565000D01*
X20585000Y-2925000D02*
X20615000Y-2955000D01*
X20615000Y-2925000D02*
X20585000Y-2955000D01*
X20727192Y-7673208D02*
X20757192Y-7703208D01*
X20757192Y-7673208D02*
X20727192Y-7703208D01*
X20727192Y-10078209D02*
X20757192Y-10108209D01*
X20757192Y-10078209D02*
X20727192Y-10108209D01*
X20727921Y-6873208D02*
X20757921Y-6903208D01*
X20757921Y-6873208D02*
X20727921Y-6903208D01*
X20727921Y-9278209D02*
X20757921Y-9308209D01*
X20757921Y-9278209D02*
X20727921Y-9308209D01*
X20728231Y-8072169D02*
X20758231Y-8102169D01*
X20758231Y-8072169D02*
X20728231Y-8102169D01*
X20728231Y-10477169D02*
X20758231Y-10507169D01*
X20758231Y-10477169D02*
X20728231Y-10507169D01*
X20728961Y-7272169D02*
X20758961Y-7302169D01*
X20758961Y-7272169D02*
X20728961Y-7302169D01*
X20728961Y-9677169D02*
X20758961Y-9707169D01*
X20758961Y-9677169D02*
X20728961Y-9707169D01*
X20732192Y-5278209D02*
X20762192Y-5308209D01*
X20762192Y-5278209D02*
X20732192Y-5308209D01*
X20732502Y-12477169D02*
X20762502Y-12507169D01*
X20762502Y-12477169D02*
X20732502Y-12507169D01*
X20732921Y-4478209D02*
X20762921Y-4508209D01*
X20762921Y-4478209D02*
X20732921Y-4508209D01*
X20732921Y-6073208D02*
X20762921Y-6103208D01*
X20762921Y-6073208D02*
X20732921Y-6103208D01*
X20732921Y-8478209D02*
X20762921Y-8508209D01*
X20762921Y-8478209D02*
X20732921Y-8508209D01*
X20733231Y-11677169D02*
X20763231Y-11707169D01*
X20763231Y-11677169D02*
X20733231Y-11707169D01*
X20733231Y-5677169D02*
X20763231Y-5707169D01*
X20763231Y-5677169D02*
X20733231Y-5707169D01*
X20733541Y-12876130D02*
X20763541Y-12906130D01*
X20763541Y-12876130D02*
X20733541Y-12906130D01*
X20733961Y-4877169D02*
X20763961Y-4907169D01*
X20763961Y-4877169D02*
X20733961Y-4907169D01*
X20733961Y-6472169D02*
X20763961Y-6502169D01*
X20763961Y-6472169D02*
X20733961Y-6502169D01*
X20733961Y-8877169D02*
X20763961Y-8907169D01*
X20763961Y-8877169D02*
X20733961Y-8907169D01*
X20734270Y-12076130D02*
X20764270Y-12106130D01*
X20764270Y-12076130D02*
X20734270Y-12106130D01*
X20737921Y-3678208D02*
X20767921Y-3708208D01*
X20767921Y-3678208D02*
X20737921Y-3708208D01*
X20738231Y-10877169D02*
X20768231Y-10907169D01*
X20768231Y-10877169D02*
X20738231Y-10907169D01*
X20738961Y-4077169D02*
X20768961Y-4107169D01*
X20768961Y-4077169D02*
X20738961Y-4107169D01*
X20739270Y-11276130D02*
X20769270Y-11306130D01*
X20769270Y-11276130D02*
X20739270Y-11306130D01*
X20815000Y-2675000D02*
X20845000Y-2705000D01*
X20845000Y-2675000D02*
X20815000Y-2705000D01*
X20815000Y-2815000D02*
X20845000Y-2845000D01*
X20845000Y-2815000D02*
X20815000Y-2845000D01*
X21242427Y-8627574D02*
X21272427Y-8657574D01*
X21272427Y-8627574D02*
X21242427Y-8657574D01*
X21255000Y-8725000D02*
X21285000Y-8755000D01*
X21285000Y-8725000D02*
X21255000Y-8755000D01*
X21355000Y-8705000D02*
X21385000Y-8735000D01*
X21385000Y-8705000D02*
X21355000Y-8735000D01*
X21565000Y-4175000D02*
X21595000Y-4205000D01*
X21595000Y-4175000D02*
X21565000Y-4205000D01*
X21575000Y-2895000D02*
X21605000Y-2925000D01*
X21605000Y-2895000D02*
X21575000Y-2925000D01*
X21645000Y-6465000D02*
X21675000Y-6495000D01*
X21675000Y-6465000D02*
X21645000Y-6495000D01*
X21765000Y-8855000D02*
X21795000Y-8885000D01*
X21795000Y-8855000D02*
X21765000Y-8885000D01*
X22065000Y-6885000D02*
X22095000Y-6915000D01*
X22095000Y-6885000D02*
X22065000Y-6915000D01*
X22065000Y-8945000D02*
X22095000Y-8975000D01*
X22095000Y-8945000D02*
X22065000Y-8975000D01*
X22185000Y-9115000D02*
X22215000Y-9145000D01*
X22215000Y-9115000D02*
X22185000Y-9145000D01*
X22475000Y-9255000D02*
X22505000Y-9285000D01*
X22505000Y-9255000D02*
X22475000Y-9285000D01*
X22475000Y-9335000D02*
X22505000Y-9365000D01*
X22505000Y-9335000D02*
X22475000Y-9365000D01*
X23035000Y-9285000D02*
X23065000Y-9315000D01*
X23065000Y-9285000D02*
X23035000Y-9315000D01*
X24065000Y-5605000D02*
X24095000Y-5635000D01*
X24095000Y-5605000D02*
X24065000Y-5635000D01*
X24142500Y-6445000D02*
X24172500Y-6475000D01*
X24172500Y-6445000D02*
X24142500Y-6475000D01*
X24185000Y-5885000D02*
X24215000Y-5915000D01*
X24215000Y-5885000D02*
X24185000Y-5915000D01*
X24227500Y-6445000D02*
X24257500Y-6475000D01*
X24257500Y-6445000D02*
X24227500Y-6475000D01*
X24299336Y-5590664D02*
X24329336Y-5620664D01*
X24329336Y-5590664D02*
X24299336Y-5620664D01*
X24775000Y-9115000D02*
X24805000Y-9145000D01*
X24805000Y-9115000D02*
X24775000Y-9145000D01*
X25535000Y-6695000D02*
X25565000Y-6725000D01*
X25565000Y-6695000D02*
X25535000Y-6725000D01*
X25625000Y-7065000D02*
X25655000Y-7095000D01*
X25655000Y-7065000D02*
X25625000Y-7095000D01*
X25845000Y-6105000D02*
X25875000Y-6135000D01*
X25875000Y-6105000D02*
X25845000Y-6135000D01*
X25865000Y-12165000D02*
X25895000Y-12195000D01*
X25895000Y-12165000D02*
X25865000Y-12195000D01*
X26415000Y-12175000D02*
X26445000Y-12205000D01*
X26445000Y-12175000D02*
X26415000Y-12205000D01*
X19941000Y-2900000D02*
G75*
G02*
X19911000Y-2900000I-15000J0D01*
G01*
X19911000Y-2900000D02*
G75*
G02*
X19941000Y-2900000I15000J0D01*
G01*
X19941000Y-2995000D02*
G75*
G02*
X19911000Y-2995000I-15000J0D01*
G01*
X19911000Y-2995000D02*
G75*
G02*
X19941000Y-2995000I15000J0D01*
G01*
X19941000Y-3090000D02*
G75*
G02*
X19911000Y-3090000I-15000J0D01*
G01*
X19911000Y-3090000D02*
G75*
G02*
X19941000Y-3090000I15000J0D01*
G01*
X20041000Y-2900000D02*
G75*
G02*
X20011000Y-2900000I-15000J0D01*
G01*
X20011000Y-2900000D02*
G75*
G02*
X20041000Y-2900000I15000J0D01*
G01*
X20041000Y-2995000D02*
G75*
G02*
X20011000Y-2995000I-15000J0D01*
G01*
X20011000Y-2995000D02*
G75*
G02*
X20041000Y-2995000I15000J0D01*
G01*
X20041000Y-3090000D02*
G75*
G02*
X20011000Y-3090000I-15000J0D01*
G01*
X20011000Y-3090000D02*
G75*
G02*
X20041000Y-3090000I15000J0D01*
G01*
X20146000Y-2900000D02*
G75*
G02*
X20116000Y-2900000I-15000J0D01*
G01*
X20116000Y-2900000D02*
G75*
G02*
X20146000Y-2900000I15000J0D01*
G01*
X20146000Y-2995000D02*
G75*
G02*
X20116000Y-2995000I-15000J0D01*
G01*
X20116000Y-2995000D02*
G75*
G02*
X20146000Y-2995000I15000J0D01*
G01*
X20146000Y-3090000D02*
G75*
G02*
X20116000Y-3090000I-15000J0D01*
G01*
X20116000Y-3090000D02*
G75*
G02*
X20146000Y-3090000I15000J0D01*
G01*
X23768000Y-5223500D02*
X23768000Y-5283500D01*
X23738000Y-5253500D02*
X23798000Y-5253500D01*
X23738000Y-5213500D02*
X23738000Y-5293500D01*
X23798000Y-5293500D02*
G75*
G02*
X23738000Y-5293500I-30000J0D01*
G01*
X23798000Y-5293500D02*
X23798000Y-5213500D01*
X23798000Y-5213500D02*
G75*
G03*
X23738000Y-5213500I-30000J0D01*
G01*
X23768000Y-5641500D02*
X23768000Y-5701500D01*
X23738000Y-5671500D02*
X23798000Y-5671500D01*
X23738000Y-5616500D02*
X23738000Y-5726500D01*
X23798000Y-5726500D02*
G75*
G02*
X23738000Y-5726500I-30000J0D01*
G01*
X23798000Y-5726500D02*
X23798000Y-5616500D01*
X23798000Y-5616500D02*
G75*
G03*
X23738000Y-5616500I-30000J0D01*
G01*
X24632000Y-5223500D02*
X24632000Y-5283500D01*
X24602000Y-5253500D02*
X24662000Y-5253500D01*
X24602000Y-5213500D02*
X24602000Y-5293500D01*
X24662000Y-5293500D02*
G75*
G02*
X24602000Y-5293500I-30000J0D01*
G01*
X24662000Y-5293500D02*
X24662000Y-5213500D01*
X24662000Y-5213500D02*
G75*
G03*
X24602000Y-5213500I-30000J0D01*
G01*
X24632000Y-5641500D02*
X24632000Y-5701500D01*
X24602000Y-5671500D02*
X24662000Y-5671500D01*
X24602000Y-5616500D02*
X24602000Y-5726500D01*
X24662000Y-5726500D02*
G75*
G02*
X24602000Y-5726500I-30000J0D01*
G01*
X24662000Y-5726500D02*
X24662000Y-5616500D01*
X24662000Y-5616500D02*
G75*
G03*
X24602000Y-5616500I-30000J0D01*
G01*
X22197856Y-6365356D02*
X22197856Y-6294644D01*
X22127144Y-6294644D01*
X22127144Y-6365356D01*
X22197856Y-6365356D01*
X22197856Y-6619356D02*
X22197856Y-6548644D01*
X22127144Y-6548644D01*
X22127144Y-6619356D01*
X22197856Y-6619356D01*
D13*
X22357500Y-5556322D02*
X22443821Y-5470000D01*
X22357500Y-5383679D01*
X22271179Y-5470000D01*
X22357500Y-5556322D01*
X22827500Y-5556322D02*
X22913821Y-5470000D01*
X22827500Y-5383679D01*
X22741178Y-5470000D01*
X22827500Y-5556322D01*
X23297500Y-5556322D02*
X23383821Y-5470000D01*
X23297500Y-5383679D01*
X23211178Y-5470000D01*
X23297500Y-5556322D01*
D11*
X10258277Y-13613984D02*
X10258277Y-13413984D01*
X10258277Y-13413984D02*
X10305896Y-13413984D01*
X10305896Y-13413984D02*
X10334467Y-13423508D01*
X10334467Y-13423508D02*
X10353515Y-13442555D01*
X10353515Y-13442555D02*
X10363039Y-13461603D01*
X10363039Y-13461603D02*
X10372563Y-13499698D01*
X10372563Y-13499698D02*
X10372563Y-13528269D01*
X10372563Y-13528269D02*
X10363039Y-13566365D01*
X10363039Y-13566365D02*
X10353515Y-13585412D01*
X10353515Y-13585412D02*
X10334467Y-13604460D01*
X10334467Y-13604460D02*
X10305896Y-13613984D01*
X10305896Y-13613984D02*
X10258277Y-13613984D01*
X10458277Y-13613984D02*
X10458277Y-13480650D01*
X10458277Y-13518746D02*
X10467801Y-13499698D01*
X10467801Y-13499698D02*
X10477324Y-13490174D01*
X10477324Y-13490174D02*
X10496372Y-13480650D01*
X10496372Y-13480650D02*
X10515420Y-13480650D01*
X10582086Y-13613984D02*
X10582086Y-13480650D01*
X10582086Y-13413984D02*
X10572563Y-13423508D01*
X10572563Y-13423508D02*
X10582086Y-13433031D01*
X10582086Y-13433031D02*
X10591610Y-13423508D01*
X10591610Y-13423508D02*
X10582086Y-13413984D01*
X10582086Y-13413984D02*
X10582086Y-13433031D01*
X10705896Y-13613984D02*
X10686848Y-13604460D01*
X10686848Y-13604460D02*
X10677324Y-13585412D01*
X10677324Y-13585412D02*
X10677324Y-13413984D01*
X10810658Y-13613984D02*
X10791610Y-13604460D01*
X10791610Y-13604460D02*
X10782086Y-13585412D01*
X10782086Y-13585412D02*
X10782086Y-13413984D01*
X11039229Y-13613984D02*
X11039229Y-13413984D01*
X11039229Y-13413984D02*
X11105896Y-13556841D01*
X11105896Y-13556841D02*
X11172563Y-13413984D01*
X11172563Y-13413984D02*
X11172563Y-13613984D01*
X11353515Y-13613984D02*
X11353515Y-13509222D01*
X11353515Y-13509222D02*
X11343991Y-13490174D01*
X11343991Y-13490174D02*
X11324943Y-13480650D01*
X11324943Y-13480650D02*
X11286848Y-13480650D01*
X11286848Y-13480650D02*
X11267801Y-13490174D01*
X11353515Y-13604460D02*
X11334467Y-13613984D01*
X11334467Y-13613984D02*
X11286848Y-13613984D01*
X11286848Y-13613984D02*
X11267801Y-13604460D01*
X11267801Y-13604460D02*
X11258277Y-13585412D01*
X11258277Y-13585412D02*
X11258277Y-13566365D01*
X11258277Y-13566365D02*
X11267801Y-13547317D01*
X11267801Y-13547317D02*
X11286848Y-13537793D01*
X11286848Y-13537793D02*
X11334467Y-13537793D01*
X11334467Y-13537793D02*
X11353515Y-13528269D01*
X11448753Y-13480650D02*
X11448753Y-13680650D01*
X11448753Y-13490174D02*
X11467801Y-13480650D01*
X11467801Y-13480650D02*
X11505896Y-13480650D01*
X11505896Y-13480650D02*
X11524943Y-13490174D01*
X11524943Y-13490174D02*
X11534467Y-13499698D01*
X11534467Y-13499698D02*
X11543991Y-13518746D01*
X11543991Y-13518746D02*
X11543991Y-13575888D01*
X11543991Y-13575888D02*
X11534467Y-13594936D01*
X11534467Y-13594936D02*
X11524943Y-13604460D01*
X11524943Y-13604460D02*
X11505896Y-13613984D01*
X11505896Y-13613984D02*
X11467801Y-13613984D01*
X11467801Y-13613984D02*
X11448753Y-13604460D01*
X11629705Y-13594936D02*
X11639229Y-13604460D01*
X11639229Y-13604460D02*
X11629705Y-13613984D01*
X11629705Y-13613984D02*
X11620182Y-13604460D01*
X11620182Y-13604460D02*
X11629705Y-13594936D01*
X11629705Y-13594936D02*
X11629705Y-13613984D01*
X11629705Y-13490174D02*
X11639229Y-13499698D01*
X11639229Y-13499698D02*
X11629705Y-13509222D01*
X11629705Y-13509222D02*
X11620182Y-13499698D01*
X11620182Y-13499698D02*
X11629705Y-13490174D01*
X11629705Y-13490174D02*
X11629705Y-13509222D01*
D12*
X9967500Y-13927500D02*
X9997500Y-13957500D01*
X9997500Y-13927500D02*
X9967500Y-13957500D01*
D11*
X10296372Y-13833984D02*
X10315420Y-13833984D01*
X10315420Y-13833984D02*
X10334467Y-13843508D01*
X10334467Y-13843508D02*
X10343991Y-13853031D01*
X10343991Y-13853031D02*
X10353515Y-13872079D01*
X10353515Y-13872079D02*
X10363039Y-13910174D01*
X10363039Y-13910174D02*
X10363039Y-13957793D01*
X10363039Y-13957793D02*
X10353515Y-13995888D01*
X10353515Y-13995888D02*
X10343991Y-14014936D01*
X10343991Y-14014936D02*
X10334467Y-14024460D01*
X10334467Y-14024460D02*
X10315420Y-14033984D01*
X10315420Y-14033984D02*
X10296372Y-14033984D01*
X10296372Y-14033984D02*
X10277324Y-14024460D01*
X10277324Y-14024460D02*
X10267801Y-14014936D01*
X10267801Y-14014936D02*
X10258277Y-13995888D01*
X10258277Y-13995888D02*
X10248753Y-13957793D01*
X10248753Y-13957793D02*
X10248753Y-13910174D01*
X10248753Y-13910174D02*
X10258277Y-13872079D01*
X10258277Y-13872079D02*
X10267801Y-13853031D01*
X10267801Y-13853031D02*
X10277324Y-13843508D01*
X10277324Y-13843508D02*
X10296372Y-13833984D01*
X10448753Y-14014936D02*
X10458277Y-14024460D01*
X10458277Y-14024460D02*
X10448753Y-14033984D01*
X10448753Y-14033984D02*
X10439229Y-14024460D01*
X10439229Y-14024460D02*
X10448753Y-14014936D01*
X10448753Y-14014936D02*
X10448753Y-14033984D01*
X10524944Y-13833984D02*
X10648753Y-13833984D01*
X10648753Y-13833984D02*
X10582086Y-13910174D01*
X10582086Y-13910174D02*
X10610658Y-13910174D01*
X10610658Y-13910174D02*
X10629705Y-13919698D01*
X10629705Y-13919698D02*
X10639229Y-13929222D01*
X10639229Y-13929222D02*
X10648753Y-13948269D01*
X10648753Y-13948269D02*
X10648753Y-13995888D01*
X10648753Y-13995888D02*
X10639229Y-14014936D01*
X10639229Y-14014936D02*
X10629705Y-14024460D01*
X10629705Y-14024460D02*
X10610658Y-14033984D01*
X10610658Y-14033984D02*
X10553515Y-14033984D01*
X10553515Y-14033984D02*
X10534467Y-14024460D01*
X10534467Y-14024460D02*
X10524944Y-14014936D01*
X10772563Y-13833984D02*
X10791610Y-13833984D01*
X10791610Y-13833984D02*
X10810658Y-13843508D01*
X10810658Y-13843508D02*
X10820182Y-13853031D01*
X10820182Y-13853031D02*
X10829705Y-13872079D01*
X10829705Y-13872079D02*
X10839229Y-13910174D01*
X10839229Y-13910174D02*
X10839229Y-13957793D01*
X10839229Y-13957793D02*
X10829705Y-13995888D01*
X10829705Y-13995888D02*
X10820182Y-14014936D01*
X10820182Y-14014936D02*
X10810658Y-14024460D01*
X10810658Y-14024460D02*
X10791610Y-14033984D01*
X10791610Y-14033984D02*
X10772563Y-14033984D01*
X10772563Y-14033984D02*
X10753515Y-14024460D01*
X10753515Y-14024460D02*
X10743991Y-14014936D01*
X10743991Y-14014936D02*
X10734467Y-13995888D01*
X10734467Y-13995888D02*
X10724944Y-13957793D01*
X10724944Y-13957793D02*
X10724944Y-13910174D01*
X10724944Y-13910174D02*
X10734467Y-13872079D01*
X10734467Y-13872079D02*
X10743991Y-13853031D01*
X10743991Y-13853031D02*
X10753515Y-13843508D01*
X10753515Y-13843508D02*
X10772563Y-13833984D01*
X10963039Y-13833984D02*
X10982086Y-13833984D01*
X10982086Y-13833984D02*
X11001134Y-13843508D01*
X11001134Y-13843508D02*
X11010658Y-13853031D01*
X11010658Y-13853031D02*
X11020182Y-13872079D01*
X11020182Y-13872079D02*
X11029705Y-13910174D01*
X11029705Y-13910174D02*
X11029705Y-13957793D01*
X11029705Y-13957793D02*
X11020182Y-13995888D01*
X11020182Y-13995888D02*
X11010658Y-14014936D01*
X11010658Y-14014936D02*
X11001134Y-14024460D01*
X11001134Y-14024460D02*
X10982086Y-14033984D01*
X10982086Y-14033984D02*
X10963039Y-14033984D01*
X10963039Y-14033984D02*
X10943991Y-14024460D01*
X10943991Y-14024460D02*
X10934467Y-14014936D01*
X10934467Y-14014936D02*
X10924944Y-13995888D01*
X10924944Y-13995888D02*
X10915420Y-13957793D01*
X10915420Y-13957793D02*
X10915420Y-13910174D01*
X10915420Y-13910174D02*
X10924944Y-13872079D01*
X10924944Y-13872079D02*
X10934467Y-13853031D01*
X10934467Y-13853031D02*
X10943991Y-13843508D01*
X10943991Y-13843508D02*
X10963039Y-13833984D01*
X11115420Y-14033984D02*
X11115420Y-13900650D01*
X11115420Y-13919698D02*
X11124944Y-13910174D01*
X11124944Y-13910174D02*
X11143991Y-13900650D01*
X11143991Y-13900650D02*
X11172563Y-13900650D01*
X11172563Y-13900650D02*
X11191610Y-13910174D01*
X11191610Y-13910174D02*
X11201134Y-13929222D01*
X11201134Y-13929222D02*
X11201134Y-14033984D01*
X11201134Y-13929222D02*
X11210658Y-13910174D01*
X11210658Y-13910174D02*
X11229705Y-13900650D01*
X11229705Y-13900650D02*
X11258277Y-13900650D01*
X11258277Y-13900650D02*
X11277324Y-13910174D01*
X11277324Y-13910174D02*
X11286848Y-13929222D01*
X11286848Y-13929222D02*
X11286848Y-14033984D01*
X11382086Y-14033984D02*
X11382086Y-13900650D01*
X11382086Y-13919698D02*
X11391610Y-13910174D01*
X11391610Y-13910174D02*
X11410658Y-13900650D01*
X11410658Y-13900650D02*
X11439229Y-13900650D01*
X11439229Y-13900650D02*
X11458277Y-13910174D01*
X11458277Y-13910174D02*
X11467801Y-13929222D01*
X11467801Y-13929222D02*
X11467801Y-14033984D01*
X11467801Y-13929222D02*
X11477324Y-13910174D01*
X11477324Y-13910174D02*
X11496372Y-13900650D01*
X11496372Y-13900650D02*
X11524943Y-13900650D01*
X11524943Y-13900650D02*
X11543991Y-13910174D01*
X11543991Y-13910174D02*
X11553515Y-13929222D01*
X11553515Y-13929222D02*
X11553515Y-14033984D01*
X11943991Y-13824460D02*
X11772563Y-14081603D01*
X12201134Y-13833984D02*
X12220182Y-13833984D01*
X12220182Y-13833984D02*
X12239229Y-13843508D01*
X12239229Y-13843508D02*
X12248753Y-13853031D01*
X12248753Y-13853031D02*
X12258277Y-13872079D01*
X12258277Y-13872079D02*
X12267801Y-13910174D01*
X12267801Y-13910174D02*
X12267801Y-13957793D01*
X12267801Y-13957793D02*
X12258277Y-13995888D01*
X12258277Y-13995888D02*
X12248753Y-14014936D01*
X12248753Y-14014936D02*
X12239229Y-14024460D01*
X12239229Y-14024460D02*
X12220182Y-14033984D01*
X12220182Y-14033984D02*
X12201134Y-14033984D01*
X12201134Y-14033984D02*
X12182086Y-14024460D01*
X12182086Y-14024460D02*
X12172563Y-14014936D01*
X12172563Y-14014936D02*
X12163039Y-13995888D01*
X12163039Y-13995888D02*
X12153515Y-13957793D01*
X12153515Y-13957793D02*
X12153515Y-13910174D01*
X12153515Y-13910174D02*
X12163039Y-13872079D01*
X12163039Y-13872079D02*
X12172563Y-13853031D01*
X12172563Y-13853031D02*
X12182086Y-13843508D01*
X12182086Y-13843508D02*
X12201134Y-13833984D01*
X12353515Y-14014936D02*
X12363039Y-14024460D01*
X12363039Y-14024460D02*
X12353515Y-14033984D01*
X12353515Y-14033984D02*
X12343991Y-14024460D01*
X12343991Y-14024460D02*
X12353515Y-14014936D01*
X12353515Y-14014936D02*
X12353515Y-14033984D01*
X12486848Y-13833984D02*
X12505896Y-13833984D01*
X12505896Y-13833984D02*
X12524944Y-13843508D01*
X12524944Y-13843508D02*
X12534467Y-13853031D01*
X12534467Y-13853031D02*
X12543991Y-13872079D01*
X12543991Y-13872079D02*
X12553515Y-13910174D01*
X12553515Y-13910174D02*
X12553515Y-13957793D01*
X12553515Y-13957793D02*
X12543991Y-13995888D01*
X12543991Y-13995888D02*
X12534467Y-14014936D01*
X12534467Y-14014936D02*
X12524944Y-14024460D01*
X12524944Y-14024460D02*
X12505896Y-14033984D01*
X12505896Y-14033984D02*
X12486848Y-14033984D01*
X12486848Y-14033984D02*
X12467801Y-14024460D01*
X12467801Y-14024460D02*
X12458277Y-14014936D01*
X12458277Y-14014936D02*
X12448753Y-13995888D01*
X12448753Y-13995888D02*
X12439229Y-13957793D01*
X12439229Y-13957793D02*
X12439229Y-13910174D01*
X12439229Y-13910174D02*
X12448753Y-13872079D01*
X12448753Y-13872079D02*
X12458277Y-13853031D01*
X12458277Y-13853031D02*
X12467801Y-13843508D01*
X12467801Y-13843508D02*
X12486848Y-13833984D01*
X12743991Y-14033984D02*
X12629706Y-14033984D01*
X12686848Y-14033984D02*
X12686848Y-13833984D01*
X12686848Y-13833984D02*
X12667801Y-13862555D01*
X12667801Y-13862555D02*
X12648753Y-13881603D01*
X12648753Y-13881603D02*
X12629706Y-13891127D01*
X12934467Y-14033984D02*
X12820182Y-14033984D01*
X12877325Y-14033984D02*
X12877325Y-13833984D01*
X12877325Y-13833984D02*
X12858277Y-13862555D01*
X12858277Y-13862555D02*
X12839229Y-13881603D01*
X12839229Y-13881603D02*
X12820182Y-13891127D01*
X13048753Y-13919698D02*
X13029706Y-13910174D01*
X13029706Y-13910174D02*
X13020182Y-13900650D01*
X13020182Y-13900650D02*
X13010658Y-13881603D01*
X13010658Y-13881603D02*
X13010658Y-13872079D01*
X13010658Y-13872079D02*
X13020182Y-13853031D01*
X13020182Y-13853031D02*
X13029706Y-13843508D01*
X13029706Y-13843508D02*
X13048753Y-13833984D01*
X13048753Y-13833984D02*
X13086848Y-13833984D01*
X13086848Y-13833984D02*
X13105896Y-13843508D01*
X13105896Y-13843508D02*
X13115420Y-13853031D01*
X13115420Y-13853031D02*
X13124944Y-13872079D01*
X13124944Y-13872079D02*
X13124944Y-13881603D01*
X13124944Y-13881603D02*
X13115420Y-13900650D01*
X13115420Y-13900650D02*
X13105896Y-13910174D01*
X13105896Y-13910174D02*
X13086848Y-13919698D01*
X13086848Y-13919698D02*
X13048753Y-13919698D01*
X13048753Y-13919698D02*
X13029706Y-13929222D01*
X13029706Y-13929222D02*
X13020182Y-13938746D01*
X13020182Y-13938746D02*
X13010658Y-13957793D01*
X13010658Y-13957793D02*
X13010658Y-13995888D01*
X13010658Y-13995888D02*
X13020182Y-14014936D01*
X13020182Y-14014936D02*
X13029706Y-14024460D01*
X13029706Y-14024460D02*
X13048753Y-14033984D01*
X13048753Y-14033984D02*
X13086848Y-14033984D01*
X13086848Y-14033984D02*
X13105896Y-14024460D01*
X13105896Y-14024460D02*
X13115420Y-14014936D01*
X13115420Y-14014936D02*
X13124944Y-13995888D01*
X13124944Y-13995888D02*
X13124944Y-13957793D01*
X13124944Y-13957793D02*
X13115420Y-13938746D01*
X13115420Y-13938746D02*
X13105896Y-13929222D01*
X13105896Y-13929222D02*
X13086848Y-13919698D01*
X13201134Y-13833984D02*
X13201134Y-13872079D01*
X13277325Y-13833984D02*
X13277325Y-13872079D01*
X13572563Y-14110174D02*
X13563039Y-14100650D01*
X13563039Y-14100650D02*
X13543991Y-14072079D01*
X13543991Y-14072079D02*
X13534468Y-14053031D01*
X13534468Y-14053031D02*
X13524944Y-14024460D01*
X13524944Y-14024460D02*
X13515420Y-13976841D01*
X13515420Y-13976841D02*
X13515420Y-13938746D01*
X13515420Y-13938746D02*
X13524944Y-13891127D01*
X13524944Y-13891127D02*
X13534468Y-13862555D01*
X13534468Y-13862555D02*
X13543991Y-13843508D01*
X13543991Y-13843508D02*
X13563039Y-13814936D01*
X13563039Y-13814936D02*
X13572563Y-13805412D01*
X13734468Y-13900650D02*
X13734468Y-14033984D01*
X13686848Y-13824460D02*
X13639229Y-13967317D01*
X13639229Y-13967317D02*
X13763039Y-13967317D01*
X13934468Y-13833984D02*
X13839229Y-13833984D01*
X13839229Y-13833984D02*
X13829706Y-13929222D01*
X13829706Y-13929222D02*
X13839229Y-13919698D01*
X13839229Y-13919698D02*
X13858277Y-13910174D01*
X13858277Y-13910174D02*
X13905896Y-13910174D01*
X13905896Y-13910174D02*
X13924944Y-13919698D01*
X13924944Y-13919698D02*
X13934468Y-13929222D01*
X13934468Y-13929222D02*
X13943991Y-13948269D01*
X13943991Y-13948269D02*
X13943991Y-13995888D01*
X13943991Y-13995888D02*
X13934468Y-14014936D01*
X13934468Y-14014936D02*
X13924944Y-14024460D01*
X13924944Y-14024460D02*
X13905896Y-14033984D01*
X13905896Y-14033984D02*
X13858277Y-14033984D01*
X13858277Y-14033984D02*
X13839229Y-14024460D01*
X13839229Y-14024460D02*
X13829706Y-14014936D01*
X14020182Y-13853031D02*
X14029706Y-13843508D01*
X14029706Y-13843508D02*
X14048753Y-13833984D01*
X14048753Y-13833984D02*
X14096372Y-13833984D01*
X14096372Y-13833984D02*
X14115420Y-13843508D01*
X14115420Y-13843508D02*
X14124944Y-13853031D01*
X14124944Y-13853031D02*
X14134468Y-13872079D01*
X14134468Y-13872079D02*
X14134468Y-13891127D01*
X14134468Y-13891127D02*
X14124944Y-13919698D01*
X14124944Y-13919698D02*
X14010658Y-14033984D01*
X14010658Y-14033984D02*
X14134468Y-14033984D01*
X14372563Y-14033984D02*
X14372563Y-13833984D01*
X14458277Y-14033984D02*
X14458277Y-13929222D01*
X14458277Y-13929222D02*
X14448753Y-13910174D01*
X14448753Y-13910174D02*
X14429706Y-13900650D01*
X14429706Y-13900650D02*
X14401134Y-13900650D01*
X14401134Y-13900650D02*
X14382087Y-13910174D01*
X14382087Y-13910174D02*
X14372563Y-13919698D01*
X14582087Y-14033984D02*
X14563039Y-14024460D01*
X14563039Y-14024460D02*
X14553515Y-14014936D01*
X14553515Y-14014936D02*
X14543991Y-13995888D01*
X14543991Y-13995888D02*
X14543991Y-13938746D01*
X14543991Y-13938746D02*
X14553515Y-13919698D01*
X14553515Y-13919698D02*
X14563039Y-13910174D01*
X14563039Y-13910174D02*
X14582087Y-13900650D01*
X14582087Y-13900650D02*
X14610658Y-13900650D01*
X14610658Y-13900650D02*
X14629706Y-13910174D01*
X14629706Y-13910174D02*
X14639230Y-13919698D01*
X14639230Y-13919698D02*
X14648753Y-13938746D01*
X14648753Y-13938746D02*
X14648753Y-13995888D01*
X14648753Y-13995888D02*
X14639230Y-14014936D01*
X14639230Y-14014936D02*
X14629706Y-14024460D01*
X14629706Y-14024460D02*
X14610658Y-14033984D01*
X14610658Y-14033984D02*
X14582087Y-14033984D01*
X14763039Y-14033984D02*
X14743991Y-14024460D01*
X14743991Y-14024460D02*
X14734468Y-14005412D01*
X14734468Y-14005412D02*
X14734468Y-13833984D01*
X14915420Y-14024460D02*
X14896372Y-14033984D01*
X14896372Y-14033984D02*
X14858277Y-14033984D01*
X14858277Y-14033984D02*
X14839230Y-14024460D01*
X14839230Y-14024460D02*
X14829706Y-14005412D01*
X14829706Y-14005412D02*
X14829706Y-13929222D01*
X14829706Y-13929222D02*
X14839230Y-13910174D01*
X14839230Y-13910174D02*
X14858277Y-13900650D01*
X14858277Y-13900650D02*
X14896372Y-13900650D01*
X14896372Y-13900650D02*
X14915420Y-13910174D01*
X14915420Y-13910174D02*
X14924944Y-13929222D01*
X14924944Y-13929222D02*
X14924944Y-13948269D01*
X14924944Y-13948269D02*
X14829706Y-13967317D01*
X15001134Y-14024460D02*
X15020182Y-14033984D01*
X15020182Y-14033984D02*
X15058277Y-14033984D01*
X15058277Y-14033984D02*
X15077325Y-14024460D01*
X15077325Y-14024460D02*
X15086849Y-14005412D01*
X15086849Y-14005412D02*
X15086849Y-13995888D01*
X15086849Y-13995888D02*
X15077325Y-13976841D01*
X15077325Y-13976841D02*
X15058277Y-13967317D01*
X15058277Y-13967317D02*
X15029706Y-13967317D01*
X15029706Y-13967317D02*
X15010658Y-13957793D01*
X15010658Y-13957793D02*
X15001134Y-13938746D01*
X15001134Y-13938746D02*
X15001134Y-13929222D01*
X15001134Y-13929222D02*
X15010658Y-13910174D01*
X15010658Y-13910174D02*
X15029706Y-13900650D01*
X15029706Y-13900650D02*
X15058277Y-13900650D01*
X15058277Y-13900650D02*
X15077325Y-13910174D01*
X15153515Y-14110174D02*
X15163039Y-14100650D01*
X15163039Y-14100650D02*
X15182087Y-14072079D01*
X15182087Y-14072079D02*
X15191611Y-14053031D01*
X15191611Y-14053031D02*
X15201134Y-14024460D01*
X15201134Y-14024460D02*
X15210658Y-13976841D01*
X15210658Y-13976841D02*
X15210658Y-13938746D01*
X15210658Y-13938746D02*
X15201134Y-13891127D01*
X15201134Y-13891127D02*
X15191611Y-13862555D01*
X15191611Y-13862555D02*
X15182087Y-13843508D01*
X15182087Y-13843508D02*
X15163039Y-13814936D01*
X15163039Y-13814936D02*
X15153515Y-13805412D01*
D12*
X9997500Y-14206500D02*
G75*
G02*
X9967500Y-14206500I-15000J0D01*
G01*
X9967500Y-14206500D02*
G75*
G02*
X9997500Y-14206500I15000J0D01*
G01*
D11*
X10296372Y-14097984D02*
X10315420Y-14097984D01*
X10315420Y-14097984D02*
X10334467Y-14107508D01*
X10334467Y-14107508D02*
X10343991Y-14117031D01*
X10343991Y-14117031D02*
X10353515Y-14136079D01*
X10353515Y-14136079D02*
X10363039Y-14174174D01*
X10363039Y-14174174D02*
X10363039Y-14221793D01*
X10363039Y-14221793D02*
X10353515Y-14259888D01*
X10353515Y-14259888D02*
X10343991Y-14278936D01*
X10343991Y-14278936D02*
X10334467Y-14288460D01*
X10334467Y-14288460D02*
X10315420Y-14297984D01*
X10315420Y-14297984D02*
X10296372Y-14297984D01*
X10296372Y-14297984D02*
X10277324Y-14288460D01*
X10277324Y-14288460D02*
X10267801Y-14278936D01*
X10267801Y-14278936D02*
X10258277Y-14259888D01*
X10258277Y-14259888D02*
X10248753Y-14221793D01*
X10248753Y-14221793D02*
X10248753Y-14174174D01*
X10248753Y-14174174D02*
X10258277Y-14136079D01*
X10258277Y-14136079D02*
X10267801Y-14117031D01*
X10267801Y-14117031D02*
X10277324Y-14107508D01*
X10277324Y-14107508D02*
X10296372Y-14097984D01*
X10448753Y-14278936D02*
X10458277Y-14288460D01*
X10458277Y-14288460D02*
X10448753Y-14297984D01*
X10448753Y-14297984D02*
X10439229Y-14288460D01*
X10439229Y-14288460D02*
X10448753Y-14278936D01*
X10448753Y-14278936D02*
X10448753Y-14297984D01*
X10524944Y-14097984D02*
X10648753Y-14097984D01*
X10648753Y-14097984D02*
X10582086Y-14174174D01*
X10582086Y-14174174D02*
X10610658Y-14174174D01*
X10610658Y-14174174D02*
X10629705Y-14183698D01*
X10629705Y-14183698D02*
X10639229Y-14193222D01*
X10639229Y-14193222D02*
X10648753Y-14212269D01*
X10648753Y-14212269D02*
X10648753Y-14259888D01*
X10648753Y-14259888D02*
X10639229Y-14278936D01*
X10639229Y-14278936D02*
X10629705Y-14288460D01*
X10629705Y-14288460D02*
X10610658Y-14297984D01*
X10610658Y-14297984D02*
X10553515Y-14297984D01*
X10553515Y-14297984D02*
X10534467Y-14288460D01*
X10534467Y-14288460D02*
X10524944Y-14278936D01*
X10772563Y-14097984D02*
X10791610Y-14097984D01*
X10791610Y-14097984D02*
X10810658Y-14107508D01*
X10810658Y-14107508D02*
X10820182Y-14117031D01*
X10820182Y-14117031D02*
X10829705Y-14136079D01*
X10829705Y-14136079D02*
X10839229Y-14174174D01*
X10839229Y-14174174D02*
X10839229Y-14221793D01*
X10839229Y-14221793D02*
X10829705Y-14259888D01*
X10829705Y-14259888D02*
X10820182Y-14278936D01*
X10820182Y-14278936D02*
X10810658Y-14288460D01*
X10810658Y-14288460D02*
X10791610Y-14297984D01*
X10791610Y-14297984D02*
X10772563Y-14297984D01*
X10772563Y-14297984D02*
X10753515Y-14288460D01*
X10753515Y-14288460D02*
X10743991Y-14278936D01*
X10743991Y-14278936D02*
X10734467Y-14259888D01*
X10734467Y-14259888D02*
X10724944Y-14221793D01*
X10724944Y-14221793D02*
X10724944Y-14174174D01*
X10724944Y-14174174D02*
X10734467Y-14136079D01*
X10734467Y-14136079D02*
X10743991Y-14117031D01*
X10743991Y-14117031D02*
X10753515Y-14107508D01*
X10753515Y-14107508D02*
X10772563Y-14097984D01*
X10963039Y-14097984D02*
X10982086Y-14097984D01*
X10982086Y-14097984D02*
X11001134Y-14107508D01*
X11001134Y-14107508D02*
X11010658Y-14117031D01*
X11010658Y-14117031D02*
X11020182Y-14136079D01*
X11020182Y-14136079D02*
X11029705Y-14174174D01*
X11029705Y-14174174D02*
X11029705Y-14221793D01*
X11029705Y-14221793D02*
X11020182Y-14259888D01*
X11020182Y-14259888D02*
X11010658Y-14278936D01*
X11010658Y-14278936D02*
X11001134Y-14288460D01*
X11001134Y-14288460D02*
X10982086Y-14297984D01*
X10982086Y-14297984D02*
X10963039Y-14297984D01*
X10963039Y-14297984D02*
X10943991Y-14288460D01*
X10943991Y-14288460D02*
X10934467Y-14278936D01*
X10934467Y-14278936D02*
X10924944Y-14259888D01*
X10924944Y-14259888D02*
X10915420Y-14221793D01*
X10915420Y-14221793D02*
X10915420Y-14174174D01*
X10915420Y-14174174D02*
X10924944Y-14136079D01*
X10924944Y-14136079D02*
X10934467Y-14117031D01*
X10934467Y-14117031D02*
X10943991Y-14107508D01*
X10943991Y-14107508D02*
X10963039Y-14097984D01*
X11115420Y-14297984D02*
X11115420Y-14164650D01*
X11115420Y-14183698D02*
X11124944Y-14174174D01*
X11124944Y-14174174D02*
X11143991Y-14164650D01*
X11143991Y-14164650D02*
X11172563Y-14164650D01*
X11172563Y-14164650D02*
X11191610Y-14174174D01*
X11191610Y-14174174D02*
X11201134Y-14193222D01*
X11201134Y-14193222D02*
X11201134Y-14297984D01*
X11201134Y-14193222D02*
X11210658Y-14174174D01*
X11210658Y-14174174D02*
X11229705Y-14164650D01*
X11229705Y-14164650D02*
X11258277Y-14164650D01*
X11258277Y-14164650D02*
X11277324Y-14174174D01*
X11277324Y-14174174D02*
X11286848Y-14193222D01*
X11286848Y-14193222D02*
X11286848Y-14297984D01*
X11382086Y-14297984D02*
X11382086Y-14164650D01*
X11382086Y-14183698D02*
X11391610Y-14174174D01*
X11391610Y-14174174D02*
X11410658Y-14164650D01*
X11410658Y-14164650D02*
X11439229Y-14164650D01*
X11439229Y-14164650D02*
X11458277Y-14174174D01*
X11458277Y-14174174D02*
X11467801Y-14193222D01*
X11467801Y-14193222D02*
X11467801Y-14297984D01*
X11467801Y-14193222D02*
X11477324Y-14174174D01*
X11477324Y-14174174D02*
X11496372Y-14164650D01*
X11496372Y-14164650D02*
X11524943Y-14164650D01*
X11524943Y-14164650D02*
X11543991Y-14174174D01*
X11543991Y-14174174D02*
X11553515Y-14193222D01*
X11553515Y-14193222D02*
X11553515Y-14297984D01*
X11943991Y-14088460D02*
X11772563Y-14345603D01*
X12201134Y-14097984D02*
X12220182Y-14097984D01*
X12220182Y-14097984D02*
X12239229Y-14107508D01*
X12239229Y-14107508D02*
X12248753Y-14117031D01*
X12248753Y-14117031D02*
X12258277Y-14136079D01*
X12258277Y-14136079D02*
X12267801Y-14174174D01*
X12267801Y-14174174D02*
X12267801Y-14221793D01*
X12267801Y-14221793D02*
X12258277Y-14259888D01*
X12258277Y-14259888D02*
X12248753Y-14278936D01*
X12248753Y-14278936D02*
X12239229Y-14288460D01*
X12239229Y-14288460D02*
X12220182Y-14297984D01*
X12220182Y-14297984D02*
X12201134Y-14297984D01*
X12201134Y-14297984D02*
X12182086Y-14288460D01*
X12182086Y-14288460D02*
X12172563Y-14278936D01*
X12172563Y-14278936D02*
X12163039Y-14259888D01*
X12163039Y-14259888D02*
X12153515Y-14221793D01*
X12153515Y-14221793D02*
X12153515Y-14174174D01*
X12153515Y-14174174D02*
X12163039Y-14136079D01*
X12163039Y-14136079D02*
X12172563Y-14117031D01*
X12172563Y-14117031D02*
X12182086Y-14107508D01*
X12182086Y-14107508D02*
X12201134Y-14097984D01*
X12353515Y-14278936D02*
X12363039Y-14288460D01*
X12363039Y-14288460D02*
X12353515Y-14297984D01*
X12353515Y-14297984D02*
X12343991Y-14288460D01*
X12343991Y-14288460D02*
X12353515Y-14278936D01*
X12353515Y-14278936D02*
X12353515Y-14297984D01*
X12486848Y-14097984D02*
X12505896Y-14097984D01*
X12505896Y-14097984D02*
X12524944Y-14107508D01*
X12524944Y-14107508D02*
X12534467Y-14117031D01*
X12534467Y-14117031D02*
X12543991Y-14136079D01*
X12543991Y-14136079D02*
X12553515Y-14174174D01*
X12553515Y-14174174D02*
X12553515Y-14221793D01*
X12553515Y-14221793D02*
X12543991Y-14259888D01*
X12543991Y-14259888D02*
X12534467Y-14278936D01*
X12534467Y-14278936D02*
X12524944Y-14288460D01*
X12524944Y-14288460D02*
X12505896Y-14297984D01*
X12505896Y-14297984D02*
X12486848Y-14297984D01*
X12486848Y-14297984D02*
X12467801Y-14288460D01*
X12467801Y-14288460D02*
X12458277Y-14278936D01*
X12458277Y-14278936D02*
X12448753Y-14259888D01*
X12448753Y-14259888D02*
X12439229Y-14221793D01*
X12439229Y-14221793D02*
X12439229Y-14174174D01*
X12439229Y-14174174D02*
X12448753Y-14136079D01*
X12448753Y-14136079D02*
X12458277Y-14117031D01*
X12458277Y-14117031D02*
X12467801Y-14107508D01*
X12467801Y-14107508D02*
X12486848Y-14097984D01*
X12743991Y-14297984D02*
X12629706Y-14297984D01*
X12686848Y-14297984D02*
X12686848Y-14097984D01*
X12686848Y-14097984D02*
X12667801Y-14126555D01*
X12667801Y-14126555D02*
X12648753Y-14145603D01*
X12648753Y-14145603D02*
X12629706Y-14155127D01*
X12934467Y-14297984D02*
X12820182Y-14297984D01*
X12877325Y-14297984D02*
X12877325Y-14097984D01*
X12877325Y-14097984D02*
X12858277Y-14126555D01*
X12858277Y-14126555D02*
X12839229Y-14145603D01*
X12839229Y-14145603D02*
X12820182Y-14155127D01*
X13048753Y-14183698D02*
X13029706Y-14174174D01*
X13029706Y-14174174D02*
X13020182Y-14164650D01*
X13020182Y-14164650D02*
X13010658Y-14145603D01*
X13010658Y-14145603D02*
X13010658Y-14136079D01*
X13010658Y-14136079D02*
X13020182Y-14117031D01*
X13020182Y-14117031D02*
X13029706Y-14107508D01*
X13029706Y-14107508D02*
X13048753Y-14097984D01*
X13048753Y-14097984D02*
X13086848Y-14097984D01*
X13086848Y-14097984D02*
X13105896Y-14107508D01*
X13105896Y-14107508D02*
X13115420Y-14117031D01*
X13115420Y-14117031D02*
X13124944Y-14136079D01*
X13124944Y-14136079D02*
X13124944Y-14145603D01*
X13124944Y-14145603D02*
X13115420Y-14164650D01*
X13115420Y-14164650D02*
X13105896Y-14174174D01*
X13105896Y-14174174D02*
X13086848Y-14183698D01*
X13086848Y-14183698D02*
X13048753Y-14183698D01*
X13048753Y-14183698D02*
X13029706Y-14193222D01*
X13029706Y-14193222D02*
X13020182Y-14202746D01*
X13020182Y-14202746D02*
X13010658Y-14221793D01*
X13010658Y-14221793D02*
X13010658Y-14259888D01*
X13010658Y-14259888D02*
X13020182Y-14278936D01*
X13020182Y-14278936D02*
X13029706Y-14288460D01*
X13029706Y-14288460D02*
X13048753Y-14297984D01*
X13048753Y-14297984D02*
X13086848Y-14297984D01*
X13086848Y-14297984D02*
X13105896Y-14288460D01*
X13105896Y-14288460D02*
X13115420Y-14278936D01*
X13115420Y-14278936D02*
X13124944Y-14259888D01*
X13124944Y-14259888D02*
X13124944Y-14221793D01*
X13124944Y-14221793D02*
X13115420Y-14202746D01*
X13115420Y-14202746D02*
X13105896Y-14193222D01*
X13105896Y-14193222D02*
X13086848Y-14183698D01*
X13201134Y-14097984D02*
X13201134Y-14136079D01*
X13277325Y-14097984D02*
X13277325Y-14136079D01*
X13572563Y-14374174D02*
X13563039Y-14364650D01*
X13563039Y-14364650D02*
X13543991Y-14336079D01*
X13543991Y-14336079D02*
X13534468Y-14317031D01*
X13534468Y-14317031D02*
X13524944Y-14288460D01*
X13524944Y-14288460D02*
X13515420Y-14240841D01*
X13515420Y-14240841D02*
X13515420Y-14202746D01*
X13515420Y-14202746D02*
X13524944Y-14155127D01*
X13524944Y-14155127D02*
X13534468Y-14126555D01*
X13534468Y-14126555D02*
X13543991Y-14107508D01*
X13543991Y-14107508D02*
X13563039Y-14078936D01*
X13563039Y-14078936D02*
X13572563Y-14069412D01*
X13658277Y-14297984D02*
X13696372Y-14297984D01*
X13696372Y-14297984D02*
X13715420Y-14288460D01*
X13715420Y-14288460D02*
X13724944Y-14278936D01*
X13724944Y-14278936D02*
X13743991Y-14250365D01*
X13743991Y-14250365D02*
X13753515Y-14212269D01*
X13753515Y-14212269D02*
X13753515Y-14136079D01*
X13753515Y-14136079D02*
X13743991Y-14117031D01*
X13743991Y-14117031D02*
X13734468Y-14107508D01*
X13734468Y-14107508D02*
X13715420Y-14097984D01*
X13715420Y-14097984D02*
X13677325Y-14097984D01*
X13677325Y-14097984D02*
X13658277Y-14107508D01*
X13658277Y-14107508D02*
X13648753Y-14117031D01*
X13648753Y-14117031D02*
X13639229Y-14136079D01*
X13639229Y-14136079D02*
X13639229Y-14183698D01*
X13639229Y-14183698D02*
X13648753Y-14202746D01*
X13648753Y-14202746D02*
X13658277Y-14212269D01*
X13658277Y-14212269D02*
X13677325Y-14221793D01*
X13677325Y-14221793D02*
X13715420Y-14221793D01*
X13715420Y-14221793D02*
X13734468Y-14212269D01*
X13734468Y-14212269D02*
X13743991Y-14202746D01*
X13743991Y-14202746D02*
X13753515Y-14183698D01*
X13991610Y-14297984D02*
X13991610Y-14097984D01*
X14077325Y-14297984D02*
X14077325Y-14193222D01*
X14077325Y-14193222D02*
X14067801Y-14174174D01*
X14067801Y-14174174D02*
X14048753Y-14164650D01*
X14048753Y-14164650D02*
X14020182Y-14164650D01*
X14020182Y-14164650D02*
X14001134Y-14174174D01*
X14001134Y-14174174D02*
X13991610Y-14183698D01*
X14201134Y-14297984D02*
X14182087Y-14288460D01*
X14182087Y-14288460D02*
X14172563Y-14278936D01*
X14172563Y-14278936D02*
X14163039Y-14259888D01*
X14163039Y-14259888D02*
X14163039Y-14202746D01*
X14163039Y-14202746D02*
X14172563Y-14183698D01*
X14172563Y-14183698D02*
X14182087Y-14174174D01*
X14182087Y-14174174D02*
X14201134Y-14164650D01*
X14201134Y-14164650D02*
X14229706Y-14164650D01*
X14229706Y-14164650D02*
X14248753Y-14174174D01*
X14248753Y-14174174D02*
X14258277Y-14183698D01*
X14258277Y-14183698D02*
X14267801Y-14202746D01*
X14267801Y-14202746D02*
X14267801Y-14259888D01*
X14267801Y-14259888D02*
X14258277Y-14278936D01*
X14258277Y-14278936D02*
X14248753Y-14288460D01*
X14248753Y-14288460D02*
X14229706Y-14297984D01*
X14229706Y-14297984D02*
X14201134Y-14297984D01*
X14382087Y-14297984D02*
X14363039Y-14288460D01*
X14363039Y-14288460D02*
X14353515Y-14269412D01*
X14353515Y-14269412D02*
X14353515Y-14097984D01*
X14534468Y-14288460D02*
X14515420Y-14297984D01*
X14515420Y-14297984D02*
X14477325Y-14297984D01*
X14477325Y-14297984D02*
X14458277Y-14288460D01*
X14458277Y-14288460D02*
X14448753Y-14269412D01*
X14448753Y-14269412D02*
X14448753Y-14193222D01*
X14448753Y-14193222D02*
X14458277Y-14174174D01*
X14458277Y-14174174D02*
X14477325Y-14164650D01*
X14477325Y-14164650D02*
X14515420Y-14164650D01*
X14515420Y-14164650D02*
X14534468Y-14174174D01*
X14534468Y-14174174D02*
X14543991Y-14193222D01*
X14543991Y-14193222D02*
X14543991Y-14212269D01*
X14543991Y-14212269D02*
X14448753Y-14231317D01*
X14620182Y-14288460D02*
X14639230Y-14297984D01*
X14639230Y-14297984D02*
X14677325Y-14297984D01*
X14677325Y-14297984D02*
X14696372Y-14288460D01*
X14696372Y-14288460D02*
X14705896Y-14269412D01*
X14705896Y-14269412D02*
X14705896Y-14259888D01*
X14705896Y-14259888D02*
X14696372Y-14240841D01*
X14696372Y-14240841D02*
X14677325Y-14231317D01*
X14677325Y-14231317D02*
X14648753Y-14231317D01*
X14648753Y-14231317D02*
X14629706Y-14221793D01*
X14629706Y-14221793D02*
X14620182Y-14202746D01*
X14620182Y-14202746D02*
X14620182Y-14193222D01*
X14620182Y-14193222D02*
X14629706Y-14174174D01*
X14629706Y-14174174D02*
X14648753Y-14164650D01*
X14648753Y-14164650D02*
X14677325Y-14164650D01*
X14677325Y-14164650D02*
X14696372Y-14174174D01*
X14772563Y-14374174D02*
X14782087Y-14364650D01*
X14782087Y-14364650D02*
X14801134Y-14336079D01*
X14801134Y-14336079D02*
X14810658Y-14317031D01*
X14810658Y-14317031D02*
X14820182Y-14288460D01*
X14820182Y-14288460D02*
X14829706Y-14240841D01*
X14829706Y-14240841D02*
X14829706Y-14202746D01*
X14829706Y-14202746D02*
X14820182Y-14155127D01*
X14820182Y-14155127D02*
X14810658Y-14126555D01*
X14810658Y-14126555D02*
X14801134Y-14107508D01*
X14801134Y-14107508D02*
X14782087Y-14078936D01*
X14782087Y-14078936D02*
X14772563Y-14069412D01*
D12*
X9967500Y-14440500D02*
X9967500Y-14500500D01*
X9937500Y-14470500D02*
X9997500Y-14470500D01*
D11*
X10296372Y-14361984D02*
X10315420Y-14361984D01*
X10315420Y-14361984D02*
X10334467Y-14371508D01*
X10334467Y-14371508D02*
X10343991Y-14381031D01*
X10343991Y-14381031D02*
X10353515Y-14400079D01*
X10353515Y-14400079D02*
X10363039Y-14438174D01*
X10363039Y-14438174D02*
X10363039Y-14485793D01*
X10363039Y-14485793D02*
X10353515Y-14523888D01*
X10353515Y-14523888D02*
X10343991Y-14542936D01*
X10343991Y-14542936D02*
X10334467Y-14552460D01*
X10334467Y-14552460D02*
X10315420Y-14561984D01*
X10315420Y-14561984D02*
X10296372Y-14561984D01*
X10296372Y-14561984D02*
X10277324Y-14552460D01*
X10277324Y-14552460D02*
X10267801Y-14542936D01*
X10267801Y-14542936D02*
X10258277Y-14523888D01*
X10258277Y-14523888D02*
X10248753Y-14485793D01*
X10248753Y-14485793D02*
X10248753Y-14438174D01*
X10248753Y-14438174D02*
X10258277Y-14400079D01*
X10258277Y-14400079D02*
X10267801Y-14381031D01*
X10267801Y-14381031D02*
X10277324Y-14371508D01*
X10277324Y-14371508D02*
X10296372Y-14361984D01*
X10448753Y-14542936D02*
X10458277Y-14552460D01*
X10458277Y-14552460D02*
X10448753Y-14561984D01*
X10448753Y-14561984D02*
X10439229Y-14552460D01*
X10439229Y-14552460D02*
X10448753Y-14542936D01*
X10448753Y-14542936D02*
X10448753Y-14561984D01*
X10629705Y-14361984D02*
X10591610Y-14361984D01*
X10591610Y-14361984D02*
X10572563Y-14371508D01*
X10572563Y-14371508D02*
X10563039Y-14381031D01*
X10563039Y-14381031D02*
X10543991Y-14409603D01*
X10543991Y-14409603D02*
X10534467Y-14447698D01*
X10534467Y-14447698D02*
X10534467Y-14523888D01*
X10534467Y-14523888D02*
X10543991Y-14542936D01*
X10543991Y-14542936D02*
X10553515Y-14552460D01*
X10553515Y-14552460D02*
X10572563Y-14561984D01*
X10572563Y-14561984D02*
X10610658Y-14561984D01*
X10610658Y-14561984D02*
X10629705Y-14552460D01*
X10629705Y-14552460D02*
X10639229Y-14542936D01*
X10639229Y-14542936D02*
X10648753Y-14523888D01*
X10648753Y-14523888D02*
X10648753Y-14476269D01*
X10648753Y-14476269D02*
X10639229Y-14457222D01*
X10639229Y-14457222D02*
X10629705Y-14447698D01*
X10629705Y-14447698D02*
X10610658Y-14438174D01*
X10610658Y-14438174D02*
X10572563Y-14438174D01*
X10572563Y-14438174D02*
X10553515Y-14447698D01*
X10553515Y-14447698D02*
X10543991Y-14457222D01*
X10543991Y-14457222D02*
X10534467Y-14476269D01*
X10772563Y-14361984D02*
X10791610Y-14361984D01*
X10791610Y-14361984D02*
X10810658Y-14371508D01*
X10810658Y-14371508D02*
X10820182Y-14381031D01*
X10820182Y-14381031D02*
X10829705Y-14400079D01*
X10829705Y-14400079D02*
X10839229Y-14438174D01*
X10839229Y-14438174D02*
X10839229Y-14485793D01*
X10839229Y-14485793D02*
X10829705Y-14523888D01*
X10829705Y-14523888D02*
X10820182Y-14542936D01*
X10820182Y-14542936D02*
X10810658Y-14552460D01*
X10810658Y-14552460D02*
X10791610Y-14561984D01*
X10791610Y-14561984D02*
X10772563Y-14561984D01*
X10772563Y-14561984D02*
X10753515Y-14552460D01*
X10753515Y-14552460D02*
X10743991Y-14542936D01*
X10743991Y-14542936D02*
X10734467Y-14523888D01*
X10734467Y-14523888D02*
X10724944Y-14485793D01*
X10724944Y-14485793D02*
X10724944Y-14438174D01*
X10724944Y-14438174D02*
X10734467Y-14400079D01*
X10734467Y-14400079D02*
X10743991Y-14381031D01*
X10743991Y-14381031D02*
X10753515Y-14371508D01*
X10753515Y-14371508D02*
X10772563Y-14361984D01*
X10963039Y-14361984D02*
X10982086Y-14361984D01*
X10982086Y-14361984D02*
X11001134Y-14371508D01*
X11001134Y-14371508D02*
X11010658Y-14381031D01*
X11010658Y-14381031D02*
X11020182Y-14400079D01*
X11020182Y-14400079D02*
X11029705Y-14438174D01*
X11029705Y-14438174D02*
X11029705Y-14485793D01*
X11029705Y-14485793D02*
X11020182Y-14523888D01*
X11020182Y-14523888D02*
X11010658Y-14542936D01*
X11010658Y-14542936D02*
X11001134Y-14552460D01*
X11001134Y-14552460D02*
X10982086Y-14561984D01*
X10982086Y-14561984D02*
X10963039Y-14561984D01*
X10963039Y-14561984D02*
X10943991Y-14552460D01*
X10943991Y-14552460D02*
X10934467Y-14542936D01*
X10934467Y-14542936D02*
X10924944Y-14523888D01*
X10924944Y-14523888D02*
X10915420Y-14485793D01*
X10915420Y-14485793D02*
X10915420Y-14438174D01*
X10915420Y-14438174D02*
X10924944Y-14400079D01*
X10924944Y-14400079D02*
X10934467Y-14381031D01*
X10934467Y-14381031D02*
X10943991Y-14371508D01*
X10943991Y-14371508D02*
X10963039Y-14361984D01*
X11115420Y-14561984D02*
X11115420Y-14428650D01*
X11115420Y-14447698D02*
X11124944Y-14438174D01*
X11124944Y-14438174D02*
X11143991Y-14428650D01*
X11143991Y-14428650D02*
X11172563Y-14428650D01*
X11172563Y-14428650D02*
X11191610Y-14438174D01*
X11191610Y-14438174D02*
X11201134Y-14457222D01*
X11201134Y-14457222D02*
X11201134Y-14561984D01*
X11201134Y-14457222D02*
X11210658Y-14438174D01*
X11210658Y-14438174D02*
X11229705Y-14428650D01*
X11229705Y-14428650D02*
X11258277Y-14428650D01*
X11258277Y-14428650D02*
X11277324Y-14438174D01*
X11277324Y-14438174D02*
X11286848Y-14457222D01*
X11286848Y-14457222D02*
X11286848Y-14561984D01*
X11382086Y-14561984D02*
X11382086Y-14428650D01*
X11382086Y-14447698D02*
X11391610Y-14438174D01*
X11391610Y-14438174D02*
X11410658Y-14428650D01*
X11410658Y-14428650D02*
X11439229Y-14428650D01*
X11439229Y-14428650D02*
X11458277Y-14438174D01*
X11458277Y-14438174D02*
X11467801Y-14457222D01*
X11467801Y-14457222D02*
X11467801Y-14561984D01*
X11467801Y-14457222D02*
X11477324Y-14438174D01*
X11477324Y-14438174D02*
X11496372Y-14428650D01*
X11496372Y-14428650D02*
X11524943Y-14428650D01*
X11524943Y-14428650D02*
X11543991Y-14438174D01*
X11543991Y-14438174D02*
X11553515Y-14457222D01*
X11553515Y-14457222D02*
X11553515Y-14561984D01*
X11943991Y-14352460D02*
X11772563Y-14609603D01*
X12201134Y-14361984D02*
X12220182Y-14361984D01*
X12220182Y-14361984D02*
X12239229Y-14371508D01*
X12239229Y-14371508D02*
X12248753Y-14381031D01*
X12248753Y-14381031D02*
X12258277Y-14400079D01*
X12258277Y-14400079D02*
X12267801Y-14438174D01*
X12267801Y-14438174D02*
X12267801Y-14485793D01*
X12267801Y-14485793D02*
X12258277Y-14523888D01*
X12258277Y-14523888D02*
X12248753Y-14542936D01*
X12248753Y-14542936D02*
X12239229Y-14552460D01*
X12239229Y-14552460D02*
X12220182Y-14561984D01*
X12220182Y-14561984D02*
X12201134Y-14561984D01*
X12201134Y-14561984D02*
X12182086Y-14552460D01*
X12182086Y-14552460D02*
X12172563Y-14542936D01*
X12172563Y-14542936D02*
X12163039Y-14523888D01*
X12163039Y-14523888D02*
X12153515Y-14485793D01*
X12153515Y-14485793D02*
X12153515Y-14438174D01*
X12153515Y-14438174D02*
X12163039Y-14400079D01*
X12163039Y-14400079D02*
X12172563Y-14381031D01*
X12172563Y-14381031D02*
X12182086Y-14371508D01*
X12182086Y-14371508D02*
X12201134Y-14361984D01*
X12353515Y-14542936D02*
X12363039Y-14552460D01*
X12363039Y-14552460D02*
X12353515Y-14561984D01*
X12353515Y-14561984D02*
X12343991Y-14552460D01*
X12343991Y-14552460D02*
X12353515Y-14542936D01*
X12353515Y-14542936D02*
X12353515Y-14561984D01*
X12486848Y-14361984D02*
X12505896Y-14361984D01*
X12505896Y-14361984D02*
X12524944Y-14371508D01*
X12524944Y-14371508D02*
X12534467Y-14381031D01*
X12534467Y-14381031D02*
X12543991Y-14400079D01*
X12543991Y-14400079D02*
X12553515Y-14438174D01*
X12553515Y-14438174D02*
X12553515Y-14485793D01*
X12553515Y-14485793D02*
X12543991Y-14523888D01*
X12543991Y-14523888D02*
X12534467Y-14542936D01*
X12534467Y-14542936D02*
X12524944Y-14552460D01*
X12524944Y-14552460D02*
X12505896Y-14561984D01*
X12505896Y-14561984D02*
X12486848Y-14561984D01*
X12486848Y-14561984D02*
X12467801Y-14552460D01*
X12467801Y-14552460D02*
X12458277Y-14542936D01*
X12458277Y-14542936D02*
X12448753Y-14523888D01*
X12448753Y-14523888D02*
X12439229Y-14485793D01*
X12439229Y-14485793D02*
X12439229Y-14438174D01*
X12439229Y-14438174D02*
X12448753Y-14400079D01*
X12448753Y-14400079D02*
X12458277Y-14381031D01*
X12458277Y-14381031D02*
X12467801Y-14371508D01*
X12467801Y-14371508D02*
X12486848Y-14361984D01*
X12629706Y-14381031D02*
X12639229Y-14371508D01*
X12639229Y-14371508D02*
X12658277Y-14361984D01*
X12658277Y-14361984D02*
X12705896Y-14361984D01*
X12705896Y-14361984D02*
X12724944Y-14371508D01*
X12724944Y-14371508D02*
X12734467Y-14381031D01*
X12734467Y-14381031D02*
X12743991Y-14400079D01*
X12743991Y-14400079D02*
X12743991Y-14419127D01*
X12743991Y-14419127D02*
X12734467Y-14447698D01*
X12734467Y-14447698D02*
X12620182Y-14561984D01*
X12620182Y-14561984D02*
X12743991Y-14561984D01*
X12810658Y-14361984D02*
X12934467Y-14361984D01*
X12934467Y-14361984D02*
X12867801Y-14438174D01*
X12867801Y-14438174D02*
X12896372Y-14438174D01*
X12896372Y-14438174D02*
X12915420Y-14447698D01*
X12915420Y-14447698D02*
X12924944Y-14457222D01*
X12924944Y-14457222D02*
X12934467Y-14476269D01*
X12934467Y-14476269D02*
X12934467Y-14523888D01*
X12934467Y-14523888D02*
X12924944Y-14542936D01*
X12924944Y-14542936D02*
X12915420Y-14552460D01*
X12915420Y-14552460D02*
X12896372Y-14561984D01*
X12896372Y-14561984D02*
X12839229Y-14561984D01*
X12839229Y-14561984D02*
X12820182Y-14552460D01*
X12820182Y-14552460D02*
X12810658Y-14542936D01*
X13105896Y-14361984D02*
X13067801Y-14361984D01*
X13067801Y-14361984D02*
X13048753Y-14371508D01*
X13048753Y-14371508D02*
X13039229Y-14381031D01*
X13039229Y-14381031D02*
X13020182Y-14409603D01*
X13020182Y-14409603D02*
X13010658Y-14447698D01*
X13010658Y-14447698D02*
X13010658Y-14523888D01*
X13010658Y-14523888D02*
X13020182Y-14542936D01*
X13020182Y-14542936D02*
X13029706Y-14552460D01*
X13029706Y-14552460D02*
X13048753Y-14561984D01*
X13048753Y-14561984D02*
X13086848Y-14561984D01*
X13086848Y-14561984D02*
X13105896Y-14552460D01*
X13105896Y-14552460D02*
X13115420Y-14542936D01*
X13115420Y-14542936D02*
X13124944Y-14523888D01*
X13124944Y-14523888D02*
X13124944Y-14476269D01*
X13124944Y-14476269D02*
X13115420Y-14457222D01*
X13115420Y-14457222D02*
X13105896Y-14447698D01*
X13105896Y-14447698D02*
X13086848Y-14438174D01*
X13086848Y-14438174D02*
X13048753Y-14438174D01*
X13048753Y-14438174D02*
X13029706Y-14447698D01*
X13029706Y-14447698D02*
X13020182Y-14457222D01*
X13020182Y-14457222D02*
X13010658Y-14476269D01*
X13201134Y-14361984D02*
X13201134Y-14400079D01*
X13277325Y-14361984D02*
X13277325Y-14400079D01*
X13572563Y-14638174D02*
X13563039Y-14628650D01*
X13563039Y-14628650D02*
X13543991Y-14600079D01*
X13543991Y-14600079D02*
X13534468Y-14581031D01*
X13534468Y-14581031D02*
X13524944Y-14552460D01*
X13524944Y-14552460D02*
X13515420Y-14504841D01*
X13515420Y-14504841D02*
X13515420Y-14466746D01*
X13515420Y-14466746D02*
X13524944Y-14419127D01*
X13524944Y-14419127D02*
X13534468Y-14390555D01*
X13534468Y-14390555D02*
X13543991Y-14371508D01*
X13543991Y-14371508D02*
X13563039Y-14342936D01*
X13563039Y-14342936D02*
X13572563Y-14333412D01*
X13686848Y-14361984D02*
X13705896Y-14361984D01*
X13705896Y-14361984D02*
X13724944Y-14371508D01*
X13724944Y-14371508D02*
X13734468Y-14381031D01*
X13734468Y-14381031D02*
X13743991Y-14400079D01*
X13743991Y-14400079D02*
X13753515Y-14438174D01*
X13753515Y-14438174D02*
X13753515Y-14485793D01*
X13753515Y-14485793D02*
X13743991Y-14523888D01*
X13743991Y-14523888D02*
X13734468Y-14542936D01*
X13734468Y-14542936D02*
X13724944Y-14552460D01*
X13724944Y-14552460D02*
X13705896Y-14561984D01*
X13705896Y-14561984D02*
X13686848Y-14561984D01*
X13686848Y-14561984D02*
X13667801Y-14552460D01*
X13667801Y-14552460D02*
X13658277Y-14542936D01*
X13658277Y-14542936D02*
X13648753Y-14523888D01*
X13648753Y-14523888D02*
X13639229Y-14485793D01*
X13639229Y-14485793D02*
X13639229Y-14438174D01*
X13639229Y-14438174D02*
X13648753Y-14400079D01*
X13648753Y-14400079D02*
X13658277Y-14381031D01*
X13658277Y-14381031D02*
X13667801Y-14371508D01*
X13667801Y-14371508D02*
X13686848Y-14361984D01*
X13991610Y-14561984D02*
X13991610Y-14361984D01*
X14077325Y-14561984D02*
X14077325Y-14457222D01*
X14077325Y-14457222D02*
X14067801Y-14438174D01*
X14067801Y-14438174D02*
X14048753Y-14428650D01*
X14048753Y-14428650D02*
X14020182Y-14428650D01*
X14020182Y-14428650D02*
X14001134Y-14438174D01*
X14001134Y-14438174D02*
X13991610Y-14447698D01*
X14201134Y-14561984D02*
X14182087Y-14552460D01*
X14182087Y-14552460D02*
X14172563Y-14542936D01*
X14172563Y-14542936D02*
X14163039Y-14523888D01*
X14163039Y-14523888D02*
X14163039Y-14466746D01*
X14163039Y-14466746D02*
X14172563Y-14447698D01*
X14172563Y-14447698D02*
X14182087Y-14438174D01*
X14182087Y-14438174D02*
X14201134Y-14428650D01*
X14201134Y-14428650D02*
X14229706Y-14428650D01*
X14229706Y-14428650D02*
X14248753Y-14438174D01*
X14248753Y-14438174D02*
X14258277Y-14447698D01*
X14258277Y-14447698D02*
X14267801Y-14466746D01*
X14267801Y-14466746D02*
X14267801Y-14523888D01*
X14267801Y-14523888D02*
X14258277Y-14542936D01*
X14258277Y-14542936D02*
X14248753Y-14552460D01*
X14248753Y-14552460D02*
X14229706Y-14561984D01*
X14229706Y-14561984D02*
X14201134Y-14561984D01*
X14382087Y-14561984D02*
X14363039Y-14552460D01*
X14363039Y-14552460D02*
X14353515Y-14533412D01*
X14353515Y-14533412D02*
X14353515Y-14361984D01*
X14534468Y-14552460D02*
X14515420Y-14561984D01*
X14515420Y-14561984D02*
X14477325Y-14561984D01*
X14477325Y-14561984D02*
X14458277Y-14552460D01*
X14458277Y-14552460D02*
X14448753Y-14533412D01*
X14448753Y-14533412D02*
X14448753Y-14457222D01*
X14448753Y-14457222D02*
X14458277Y-14438174D01*
X14458277Y-14438174D02*
X14477325Y-14428650D01*
X14477325Y-14428650D02*
X14515420Y-14428650D01*
X14515420Y-14428650D02*
X14534468Y-14438174D01*
X14534468Y-14438174D02*
X14543991Y-14457222D01*
X14543991Y-14457222D02*
X14543991Y-14476269D01*
X14543991Y-14476269D02*
X14448753Y-14495317D01*
X14620182Y-14552460D02*
X14639230Y-14561984D01*
X14639230Y-14561984D02*
X14677325Y-14561984D01*
X14677325Y-14561984D02*
X14696372Y-14552460D01*
X14696372Y-14552460D02*
X14705896Y-14533412D01*
X14705896Y-14533412D02*
X14705896Y-14523888D01*
X14705896Y-14523888D02*
X14696372Y-14504841D01*
X14696372Y-14504841D02*
X14677325Y-14495317D01*
X14677325Y-14495317D02*
X14648753Y-14495317D01*
X14648753Y-14495317D02*
X14629706Y-14485793D01*
X14629706Y-14485793D02*
X14620182Y-14466746D01*
X14620182Y-14466746D02*
X14620182Y-14457222D01*
X14620182Y-14457222D02*
X14629706Y-14438174D01*
X14629706Y-14438174D02*
X14648753Y-14428650D01*
X14648753Y-14428650D02*
X14677325Y-14428650D01*
X14677325Y-14428650D02*
X14696372Y-14438174D01*
X14943992Y-14485793D02*
X15096373Y-14485793D01*
X15020182Y-14561984D02*
X15020182Y-14409603D01*
X15429706Y-14428650D02*
X15429706Y-14561984D01*
X15382087Y-14352460D02*
X15334468Y-14495317D01*
X15334468Y-14495317D02*
X15458277Y-14495317D01*
X15677325Y-14552460D02*
X15696373Y-14561984D01*
X15696373Y-14561984D02*
X15734468Y-14561984D01*
X15734468Y-14561984D02*
X15753515Y-14552460D01*
X15753515Y-14552460D02*
X15763039Y-14533412D01*
X15763039Y-14533412D02*
X15763039Y-14523888D01*
X15763039Y-14523888D02*
X15753515Y-14504841D01*
X15753515Y-14504841D02*
X15734468Y-14495317D01*
X15734468Y-14495317D02*
X15705896Y-14495317D01*
X15705896Y-14495317D02*
X15686849Y-14485793D01*
X15686849Y-14485793D02*
X15677325Y-14466746D01*
X15677325Y-14466746D02*
X15677325Y-14457222D01*
X15677325Y-14457222D02*
X15686849Y-14438174D01*
X15686849Y-14438174D02*
X15705896Y-14428650D01*
X15705896Y-14428650D02*
X15734468Y-14428650D01*
X15734468Y-14428650D02*
X15753515Y-14438174D01*
X15877325Y-14561984D02*
X15858277Y-14552460D01*
X15858277Y-14552460D02*
X15848754Y-14533412D01*
X15848754Y-14533412D02*
X15848754Y-14361984D01*
X15982087Y-14561984D02*
X15963039Y-14552460D01*
X15963039Y-14552460D02*
X15953515Y-14542936D01*
X15953515Y-14542936D02*
X15943992Y-14523888D01*
X15943992Y-14523888D02*
X15943992Y-14466746D01*
X15943992Y-14466746D02*
X15953515Y-14447698D01*
X15953515Y-14447698D02*
X15963039Y-14438174D01*
X15963039Y-14438174D02*
X15982087Y-14428650D01*
X15982087Y-14428650D02*
X16010658Y-14428650D01*
X16010658Y-14428650D02*
X16029706Y-14438174D01*
X16029706Y-14438174D02*
X16039230Y-14447698D01*
X16039230Y-14447698D02*
X16048754Y-14466746D01*
X16048754Y-14466746D02*
X16048754Y-14523888D01*
X16048754Y-14523888D02*
X16039230Y-14542936D01*
X16039230Y-14542936D02*
X16029706Y-14552460D01*
X16029706Y-14552460D02*
X16010658Y-14561984D01*
X16010658Y-14561984D02*
X15982087Y-14561984D01*
X16105896Y-14428650D02*
X16182087Y-14428650D01*
X16134468Y-14361984D02*
X16134468Y-14533412D01*
X16134468Y-14533412D02*
X16143992Y-14552460D01*
X16143992Y-14552460D02*
X16163039Y-14561984D01*
X16163039Y-14561984D02*
X16182087Y-14561984D01*
X16239230Y-14552460D02*
X16258277Y-14561984D01*
X16258277Y-14561984D02*
X16296373Y-14561984D01*
X16296373Y-14561984D02*
X16315420Y-14552460D01*
X16315420Y-14552460D02*
X16324944Y-14533412D01*
X16324944Y-14533412D02*
X16324944Y-14523888D01*
X16324944Y-14523888D02*
X16315420Y-14504841D01*
X16315420Y-14504841D02*
X16296373Y-14495317D01*
X16296373Y-14495317D02*
X16267801Y-14495317D01*
X16267801Y-14495317D02*
X16248754Y-14485793D01*
X16248754Y-14485793D02*
X16239230Y-14466746D01*
X16239230Y-14466746D02*
X16239230Y-14457222D01*
X16239230Y-14457222D02*
X16248754Y-14438174D01*
X16248754Y-14438174D02*
X16267801Y-14428650D01*
X16267801Y-14428650D02*
X16296373Y-14428650D01*
X16296373Y-14428650D02*
X16315420Y-14438174D01*
X16391611Y-14638174D02*
X16401135Y-14628650D01*
X16401135Y-14628650D02*
X16420182Y-14600079D01*
X16420182Y-14600079D02*
X16429706Y-14581031D01*
X16429706Y-14581031D02*
X16439230Y-14552460D01*
X16439230Y-14552460D02*
X16448754Y-14504841D01*
X16448754Y-14504841D02*
X16448754Y-14466746D01*
X16448754Y-14466746D02*
X16439230Y-14419127D01*
X16439230Y-14419127D02*
X16429706Y-14390555D01*
X16429706Y-14390555D02*
X16420182Y-14371508D01*
X16420182Y-14371508D02*
X16401135Y-14342936D01*
X16401135Y-14342936D02*
X16391611Y-14333412D01*
D12*
X9982856Y-14769856D02*
X9982856Y-14699144D01*
X9912144Y-14699144D01*
X9912144Y-14769856D01*
X9982856Y-14769856D01*
D11*
X10363039Y-14825984D02*
X10248753Y-14825984D01*
X10305896Y-14825984D02*
X10305896Y-14625984D01*
X10305896Y-14625984D02*
X10286848Y-14654555D01*
X10286848Y-14654555D02*
X10267801Y-14673603D01*
X10267801Y-14673603D02*
X10248753Y-14683127D01*
X10448753Y-14806936D02*
X10458277Y-14816460D01*
X10458277Y-14816460D02*
X10448753Y-14825984D01*
X10448753Y-14825984D02*
X10439229Y-14816460D01*
X10439229Y-14816460D02*
X10448753Y-14806936D01*
X10448753Y-14806936D02*
X10448753Y-14825984D01*
X10582086Y-14625984D02*
X10601134Y-14625984D01*
X10601134Y-14625984D02*
X10620182Y-14635508D01*
X10620182Y-14635508D02*
X10629705Y-14645031D01*
X10629705Y-14645031D02*
X10639229Y-14664079D01*
X10639229Y-14664079D02*
X10648753Y-14702174D01*
X10648753Y-14702174D02*
X10648753Y-14749793D01*
X10648753Y-14749793D02*
X10639229Y-14787888D01*
X10639229Y-14787888D02*
X10629705Y-14806936D01*
X10629705Y-14806936D02*
X10620182Y-14816460D01*
X10620182Y-14816460D02*
X10601134Y-14825984D01*
X10601134Y-14825984D02*
X10582086Y-14825984D01*
X10582086Y-14825984D02*
X10563039Y-14816460D01*
X10563039Y-14816460D02*
X10553515Y-14806936D01*
X10553515Y-14806936D02*
X10543991Y-14787888D01*
X10543991Y-14787888D02*
X10534467Y-14749793D01*
X10534467Y-14749793D02*
X10534467Y-14702174D01*
X10534467Y-14702174D02*
X10543991Y-14664079D01*
X10543991Y-14664079D02*
X10553515Y-14645031D01*
X10553515Y-14645031D02*
X10563039Y-14635508D01*
X10563039Y-14635508D02*
X10582086Y-14625984D01*
X10772563Y-14625984D02*
X10791610Y-14625984D01*
X10791610Y-14625984D02*
X10810658Y-14635508D01*
X10810658Y-14635508D02*
X10820182Y-14645031D01*
X10820182Y-14645031D02*
X10829705Y-14664079D01*
X10829705Y-14664079D02*
X10839229Y-14702174D01*
X10839229Y-14702174D02*
X10839229Y-14749793D01*
X10839229Y-14749793D02*
X10829705Y-14787888D01*
X10829705Y-14787888D02*
X10820182Y-14806936D01*
X10820182Y-14806936D02*
X10810658Y-14816460D01*
X10810658Y-14816460D02*
X10791610Y-14825984D01*
X10791610Y-14825984D02*
X10772563Y-14825984D01*
X10772563Y-14825984D02*
X10753515Y-14816460D01*
X10753515Y-14816460D02*
X10743991Y-14806936D01*
X10743991Y-14806936D02*
X10734467Y-14787888D01*
X10734467Y-14787888D02*
X10724944Y-14749793D01*
X10724944Y-14749793D02*
X10724944Y-14702174D01*
X10724944Y-14702174D02*
X10734467Y-14664079D01*
X10734467Y-14664079D02*
X10743991Y-14645031D01*
X10743991Y-14645031D02*
X10753515Y-14635508D01*
X10753515Y-14635508D02*
X10772563Y-14625984D01*
X10963039Y-14625984D02*
X10982086Y-14625984D01*
X10982086Y-14625984D02*
X11001134Y-14635508D01*
X11001134Y-14635508D02*
X11010658Y-14645031D01*
X11010658Y-14645031D02*
X11020182Y-14664079D01*
X11020182Y-14664079D02*
X11029705Y-14702174D01*
X11029705Y-14702174D02*
X11029705Y-14749793D01*
X11029705Y-14749793D02*
X11020182Y-14787888D01*
X11020182Y-14787888D02*
X11010658Y-14806936D01*
X11010658Y-14806936D02*
X11001134Y-14816460D01*
X11001134Y-14816460D02*
X10982086Y-14825984D01*
X10982086Y-14825984D02*
X10963039Y-14825984D01*
X10963039Y-14825984D02*
X10943991Y-14816460D01*
X10943991Y-14816460D02*
X10934467Y-14806936D01*
X10934467Y-14806936D02*
X10924944Y-14787888D01*
X10924944Y-14787888D02*
X10915420Y-14749793D01*
X10915420Y-14749793D02*
X10915420Y-14702174D01*
X10915420Y-14702174D02*
X10924944Y-14664079D01*
X10924944Y-14664079D02*
X10934467Y-14645031D01*
X10934467Y-14645031D02*
X10943991Y-14635508D01*
X10943991Y-14635508D02*
X10963039Y-14625984D01*
X11115420Y-14825984D02*
X11115420Y-14692650D01*
X11115420Y-14711698D02*
X11124944Y-14702174D01*
X11124944Y-14702174D02*
X11143991Y-14692650D01*
X11143991Y-14692650D02*
X11172563Y-14692650D01*
X11172563Y-14692650D02*
X11191610Y-14702174D01*
X11191610Y-14702174D02*
X11201134Y-14721222D01*
X11201134Y-14721222D02*
X11201134Y-14825984D01*
X11201134Y-14721222D02*
X11210658Y-14702174D01*
X11210658Y-14702174D02*
X11229705Y-14692650D01*
X11229705Y-14692650D02*
X11258277Y-14692650D01*
X11258277Y-14692650D02*
X11277324Y-14702174D01*
X11277324Y-14702174D02*
X11286848Y-14721222D01*
X11286848Y-14721222D02*
X11286848Y-14825984D01*
X11382086Y-14825984D02*
X11382086Y-14692650D01*
X11382086Y-14711698D02*
X11391610Y-14702174D01*
X11391610Y-14702174D02*
X11410658Y-14692650D01*
X11410658Y-14692650D02*
X11439229Y-14692650D01*
X11439229Y-14692650D02*
X11458277Y-14702174D01*
X11458277Y-14702174D02*
X11467801Y-14721222D01*
X11467801Y-14721222D02*
X11467801Y-14825984D01*
X11467801Y-14721222D02*
X11477324Y-14702174D01*
X11477324Y-14702174D02*
X11496372Y-14692650D01*
X11496372Y-14692650D02*
X11524943Y-14692650D01*
X11524943Y-14692650D02*
X11543991Y-14702174D01*
X11543991Y-14702174D02*
X11553515Y-14721222D01*
X11553515Y-14721222D02*
X11553515Y-14825984D01*
X11943991Y-14616460D02*
X11772563Y-14873603D01*
X12201134Y-14625984D02*
X12220182Y-14625984D01*
X12220182Y-14625984D02*
X12239229Y-14635508D01*
X12239229Y-14635508D02*
X12248753Y-14645031D01*
X12248753Y-14645031D02*
X12258277Y-14664079D01*
X12258277Y-14664079D02*
X12267801Y-14702174D01*
X12267801Y-14702174D02*
X12267801Y-14749793D01*
X12267801Y-14749793D02*
X12258277Y-14787888D01*
X12258277Y-14787888D02*
X12248753Y-14806936D01*
X12248753Y-14806936D02*
X12239229Y-14816460D01*
X12239229Y-14816460D02*
X12220182Y-14825984D01*
X12220182Y-14825984D02*
X12201134Y-14825984D01*
X12201134Y-14825984D02*
X12182086Y-14816460D01*
X12182086Y-14816460D02*
X12172563Y-14806936D01*
X12172563Y-14806936D02*
X12163039Y-14787888D01*
X12163039Y-14787888D02*
X12153515Y-14749793D01*
X12153515Y-14749793D02*
X12153515Y-14702174D01*
X12153515Y-14702174D02*
X12163039Y-14664079D01*
X12163039Y-14664079D02*
X12172563Y-14645031D01*
X12172563Y-14645031D02*
X12182086Y-14635508D01*
X12182086Y-14635508D02*
X12201134Y-14625984D01*
X12353515Y-14806936D02*
X12363039Y-14816460D01*
X12363039Y-14816460D02*
X12353515Y-14825984D01*
X12353515Y-14825984D02*
X12343991Y-14816460D01*
X12343991Y-14816460D02*
X12353515Y-14806936D01*
X12353515Y-14806936D02*
X12353515Y-14825984D01*
X12486848Y-14625984D02*
X12505896Y-14625984D01*
X12505896Y-14625984D02*
X12524944Y-14635508D01*
X12524944Y-14635508D02*
X12534467Y-14645031D01*
X12534467Y-14645031D02*
X12543991Y-14664079D01*
X12543991Y-14664079D02*
X12553515Y-14702174D01*
X12553515Y-14702174D02*
X12553515Y-14749793D01*
X12553515Y-14749793D02*
X12543991Y-14787888D01*
X12543991Y-14787888D02*
X12534467Y-14806936D01*
X12534467Y-14806936D02*
X12524944Y-14816460D01*
X12524944Y-14816460D02*
X12505896Y-14825984D01*
X12505896Y-14825984D02*
X12486848Y-14825984D01*
X12486848Y-14825984D02*
X12467801Y-14816460D01*
X12467801Y-14816460D02*
X12458277Y-14806936D01*
X12458277Y-14806936D02*
X12448753Y-14787888D01*
X12448753Y-14787888D02*
X12439229Y-14749793D01*
X12439229Y-14749793D02*
X12439229Y-14702174D01*
X12439229Y-14702174D02*
X12448753Y-14664079D01*
X12448753Y-14664079D02*
X12458277Y-14645031D01*
X12458277Y-14645031D02*
X12467801Y-14635508D01*
X12467801Y-14635508D02*
X12486848Y-14625984D01*
X12620182Y-14625984D02*
X12743991Y-14625984D01*
X12743991Y-14625984D02*
X12677325Y-14702174D01*
X12677325Y-14702174D02*
X12705896Y-14702174D01*
X12705896Y-14702174D02*
X12724944Y-14711698D01*
X12724944Y-14711698D02*
X12734467Y-14721222D01*
X12734467Y-14721222D02*
X12743991Y-14740269D01*
X12743991Y-14740269D02*
X12743991Y-14787888D01*
X12743991Y-14787888D02*
X12734467Y-14806936D01*
X12734467Y-14806936D02*
X12724944Y-14816460D01*
X12724944Y-14816460D02*
X12705896Y-14825984D01*
X12705896Y-14825984D02*
X12648753Y-14825984D01*
X12648753Y-14825984D02*
X12629706Y-14816460D01*
X12629706Y-14816460D02*
X12620182Y-14806936D01*
X12839229Y-14825984D02*
X12877325Y-14825984D01*
X12877325Y-14825984D02*
X12896372Y-14816460D01*
X12896372Y-14816460D02*
X12905896Y-14806936D01*
X12905896Y-14806936D02*
X12924944Y-14778365D01*
X12924944Y-14778365D02*
X12934467Y-14740269D01*
X12934467Y-14740269D02*
X12934467Y-14664079D01*
X12934467Y-14664079D02*
X12924944Y-14645031D01*
X12924944Y-14645031D02*
X12915420Y-14635508D01*
X12915420Y-14635508D02*
X12896372Y-14625984D01*
X12896372Y-14625984D02*
X12858277Y-14625984D01*
X12858277Y-14625984D02*
X12839229Y-14635508D01*
X12839229Y-14635508D02*
X12829706Y-14645031D01*
X12829706Y-14645031D02*
X12820182Y-14664079D01*
X12820182Y-14664079D02*
X12820182Y-14711698D01*
X12820182Y-14711698D02*
X12829706Y-14730746D01*
X12829706Y-14730746D02*
X12839229Y-14740269D01*
X12839229Y-14740269D02*
X12858277Y-14749793D01*
X12858277Y-14749793D02*
X12896372Y-14749793D01*
X12896372Y-14749793D02*
X12915420Y-14740269D01*
X12915420Y-14740269D02*
X12924944Y-14730746D01*
X12924944Y-14730746D02*
X12934467Y-14711698D01*
X13105896Y-14692650D02*
X13105896Y-14825984D01*
X13058277Y-14616460D02*
X13010658Y-14759317D01*
X13010658Y-14759317D02*
X13134467Y-14759317D01*
X13201134Y-14625984D02*
X13201134Y-14664079D01*
X13277325Y-14625984D02*
X13277325Y-14664079D01*
X13572563Y-14902174D02*
X13563039Y-14892650D01*
X13563039Y-14892650D02*
X13543991Y-14864079D01*
X13543991Y-14864079D02*
X13534468Y-14845031D01*
X13534468Y-14845031D02*
X13524944Y-14816460D01*
X13524944Y-14816460D02*
X13515420Y-14768841D01*
X13515420Y-14768841D02*
X13515420Y-14730746D01*
X13515420Y-14730746D02*
X13524944Y-14683127D01*
X13524944Y-14683127D02*
X13534468Y-14654555D01*
X13534468Y-14654555D02*
X13543991Y-14635508D01*
X13543991Y-14635508D02*
X13563039Y-14606936D01*
X13563039Y-14606936D02*
X13572563Y-14597412D01*
X13639229Y-14645031D02*
X13648753Y-14635508D01*
X13648753Y-14635508D02*
X13667801Y-14625984D01*
X13667801Y-14625984D02*
X13715420Y-14625984D01*
X13715420Y-14625984D02*
X13734468Y-14635508D01*
X13734468Y-14635508D02*
X13743991Y-14645031D01*
X13743991Y-14645031D02*
X13753515Y-14664079D01*
X13753515Y-14664079D02*
X13753515Y-14683127D01*
X13753515Y-14683127D02*
X13743991Y-14711698D01*
X13743991Y-14711698D02*
X13629706Y-14825984D01*
X13629706Y-14825984D02*
X13753515Y-14825984D01*
X13991610Y-14825984D02*
X13991610Y-14625984D01*
X14077325Y-14825984D02*
X14077325Y-14721222D01*
X14077325Y-14721222D02*
X14067801Y-14702174D01*
X14067801Y-14702174D02*
X14048753Y-14692650D01*
X14048753Y-14692650D02*
X14020182Y-14692650D01*
X14020182Y-14692650D02*
X14001134Y-14702174D01*
X14001134Y-14702174D02*
X13991610Y-14711698D01*
X14201134Y-14825984D02*
X14182087Y-14816460D01*
X14182087Y-14816460D02*
X14172563Y-14806936D01*
X14172563Y-14806936D02*
X14163039Y-14787888D01*
X14163039Y-14787888D02*
X14163039Y-14730746D01*
X14163039Y-14730746D02*
X14172563Y-14711698D01*
X14172563Y-14711698D02*
X14182087Y-14702174D01*
X14182087Y-14702174D02*
X14201134Y-14692650D01*
X14201134Y-14692650D02*
X14229706Y-14692650D01*
X14229706Y-14692650D02*
X14248753Y-14702174D01*
X14248753Y-14702174D02*
X14258277Y-14711698D01*
X14258277Y-14711698D02*
X14267801Y-14730746D01*
X14267801Y-14730746D02*
X14267801Y-14787888D01*
X14267801Y-14787888D02*
X14258277Y-14806936D01*
X14258277Y-14806936D02*
X14248753Y-14816460D01*
X14248753Y-14816460D02*
X14229706Y-14825984D01*
X14229706Y-14825984D02*
X14201134Y-14825984D01*
X14382087Y-14825984D02*
X14363039Y-14816460D01*
X14363039Y-14816460D02*
X14353515Y-14797412D01*
X14353515Y-14797412D02*
X14353515Y-14625984D01*
X14534468Y-14816460D02*
X14515420Y-14825984D01*
X14515420Y-14825984D02*
X14477325Y-14825984D01*
X14477325Y-14825984D02*
X14458277Y-14816460D01*
X14458277Y-14816460D02*
X14448753Y-14797412D01*
X14448753Y-14797412D02*
X14448753Y-14721222D01*
X14448753Y-14721222D02*
X14458277Y-14702174D01*
X14458277Y-14702174D02*
X14477325Y-14692650D01*
X14477325Y-14692650D02*
X14515420Y-14692650D01*
X14515420Y-14692650D02*
X14534468Y-14702174D01*
X14534468Y-14702174D02*
X14543991Y-14721222D01*
X14543991Y-14721222D02*
X14543991Y-14740269D01*
X14543991Y-14740269D02*
X14448753Y-14759317D01*
X14620182Y-14816460D02*
X14639230Y-14825984D01*
X14639230Y-14825984D02*
X14677325Y-14825984D01*
X14677325Y-14825984D02*
X14696372Y-14816460D01*
X14696372Y-14816460D02*
X14705896Y-14797412D01*
X14705896Y-14797412D02*
X14705896Y-14787888D01*
X14705896Y-14787888D02*
X14696372Y-14768841D01*
X14696372Y-14768841D02*
X14677325Y-14759317D01*
X14677325Y-14759317D02*
X14648753Y-14759317D01*
X14648753Y-14759317D02*
X14629706Y-14749793D01*
X14629706Y-14749793D02*
X14620182Y-14730746D01*
X14620182Y-14730746D02*
X14620182Y-14721222D01*
X14620182Y-14721222D02*
X14629706Y-14702174D01*
X14629706Y-14702174D02*
X14648753Y-14692650D01*
X14648753Y-14692650D02*
X14677325Y-14692650D01*
X14677325Y-14692650D02*
X14696372Y-14702174D01*
X14772563Y-14902174D02*
X14782087Y-14892650D01*
X14782087Y-14892650D02*
X14801134Y-14864079D01*
X14801134Y-14864079D02*
X14810658Y-14845031D01*
X14810658Y-14845031D02*
X14820182Y-14816460D01*
X14820182Y-14816460D02*
X14829706Y-14768841D01*
X14829706Y-14768841D02*
X14829706Y-14730746D01*
X14829706Y-14730746D02*
X14820182Y-14683127D01*
X14820182Y-14683127D02*
X14810658Y-14654555D01*
X14810658Y-14654555D02*
X14801134Y-14635508D01*
X14801134Y-14635508D02*
X14782087Y-14606936D01*
X14782087Y-14606936D02*
X14772563Y-14597412D01*
D13*
X9911179Y-15084821D02*
X9997500Y-14998500D01*
X9911179Y-14912178D01*
X9824857Y-14998500D01*
X9911179Y-15084821D01*
D11*
X10363039Y-15089984D02*
X10248753Y-15089984D01*
X10305896Y-15089984D02*
X10305896Y-14889984D01*
X10305896Y-14889984D02*
X10286848Y-14918555D01*
X10286848Y-14918555D02*
X10267801Y-14937603D01*
X10267801Y-14937603D02*
X10248753Y-14947127D01*
X10448753Y-15070936D02*
X10458277Y-15080460D01*
X10458277Y-15080460D02*
X10448753Y-15089984D01*
X10448753Y-15089984D02*
X10439229Y-15080460D01*
X10439229Y-15080460D02*
X10448753Y-15070936D01*
X10448753Y-15070936D02*
X10448753Y-15089984D01*
X10524944Y-14889984D02*
X10658277Y-14889984D01*
X10658277Y-14889984D02*
X10572563Y-15089984D01*
X10724944Y-14909031D02*
X10734467Y-14899508D01*
X10734467Y-14899508D02*
X10753515Y-14889984D01*
X10753515Y-14889984D02*
X10801134Y-14889984D01*
X10801134Y-14889984D02*
X10820182Y-14899508D01*
X10820182Y-14899508D02*
X10829705Y-14909031D01*
X10829705Y-14909031D02*
X10839229Y-14928079D01*
X10839229Y-14928079D02*
X10839229Y-14947127D01*
X10839229Y-14947127D02*
X10829705Y-14975698D01*
X10829705Y-14975698D02*
X10715420Y-15089984D01*
X10715420Y-15089984D02*
X10839229Y-15089984D01*
X11010658Y-14889984D02*
X10972563Y-14889984D01*
X10972563Y-14889984D02*
X10953515Y-14899508D01*
X10953515Y-14899508D02*
X10943991Y-14909031D01*
X10943991Y-14909031D02*
X10924944Y-14937603D01*
X10924944Y-14937603D02*
X10915420Y-14975698D01*
X10915420Y-14975698D02*
X10915420Y-15051888D01*
X10915420Y-15051888D02*
X10924944Y-15070936D01*
X10924944Y-15070936D02*
X10934467Y-15080460D01*
X10934467Y-15080460D02*
X10953515Y-15089984D01*
X10953515Y-15089984D02*
X10991610Y-15089984D01*
X10991610Y-15089984D02*
X11010658Y-15080460D01*
X11010658Y-15080460D02*
X11020182Y-15070936D01*
X11020182Y-15070936D02*
X11029705Y-15051888D01*
X11029705Y-15051888D02*
X11029705Y-15004269D01*
X11029705Y-15004269D02*
X11020182Y-14985222D01*
X11020182Y-14985222D02*
X11010658Y-14975698D01*
X11010658Y-14975698D02*
X10991610Y-14966174D01*
X10991610Y-14966174D02*
X10953515Y-14966174D01*
X10953515Y-14966174D02*
X10934467Y-14975698D01*
X10934467Y-14975698D02*
X10924944Y-14985222D01*
X10924944Y-14985222D02*
X10915420Y-15004269D01*
X11115420Y-15089984D02*
X11115420Y-14956650D01*
X11115420Y-14975698D02*
X11124944Y-14966174D01*
X11124944Y-14966174D02*
X11143991Y-14956650D01*
X11143991Y-14956650D02*
X11172563Y-14956650D01*
X11172563Y-14956650D02*
X11191610Y-14966174D01*
X11191610Y-14966174D02*
X11201134Y-14985222D01*
X11201134Y-14985222D02*
X11201134Y-15089984D01*
X11201134Y-14985222D02*
X11210658Y-14966174D01*
X11210658Y-14966174D02*
X11229705Y-14956650D01*
X11229705Y-14956650D02*
X11258277Y-14956650D01*
X11258277Y-14956650D02*
X11277324Y-14966174D01*
X11277324Y-14966174D02*
X11286848Y-14985222D01*
X11286848Y-14985222D02*
X11286848Y-15089984D01*
X11382086Y-15089984D02*
X11382086Y-14956650D01*
X11382086Y-14975698D02*
X11391610Y-14966174D01*
X11391610Y-14966174D02*
X11410658Y-14956650D01*
X11410658Y-14956650D02*
X11439229Y-14956650D01*
X11439229Y-14956650D02*
X11458277Y-14966174D01*
X11458277Y-14966174D02*
X11467801Y-14985222D01*
X11467801Y-14985222D02*
X11467801Y-15089984D01*
X11467801Y-14985222D02*
X11477324Y-14966174D01*
X11477324Y-14966174D02*
X11496372Y-14956650D01*
X11496372Y-14956650D02*
X11524943Y-14956650D01*
X11524943Y-14956650D02*
X11543991Y-14966174D01*
X11543991Y-14966174D02*
X11553515Y-14985222D01*
X11553515Y-14985222D02*
X11553515Y-15089984D01*
X11943991Y-14880460D02*
X11772563Y-15137603D01*
X12201134Y-14889984D02*
X12220182Y-14889984D01*
X12220182Y-14889984D02*
X12239229Y-14899508D01*
X12239229Y-14899508D02*
X12248753Y-14909031D01*
X12248753Y-14909031D02*
X12258277Y-14928079D01*
X12258277Y-14928079D02*
X12267801Y-14966174D01*
X12267801Y-14966174D02*
X12267801Y-15013793D01*
X12267801Y-15013793D02*
X12258277Y-15051888D01*
X12258277Y-15051888D02*
X12248753Y-15070936D01*
X12248753Y-15070936D02*
X12239229Y-15080460D01*
X12239229Y-15080460D02*
X12220182Y-15089984D01*
X12220182Y-15089984D02*
X12201134Y-15089984D01*
X12201134Y-15089984D02*
X12182086Y-15080460D01*
X12182086Y-15080460D02*
X12172563Y-15070936D01*
X12172563Y-15070936D02*
X12163039Y-15051888D01*
X12163039Y-15051888D02*
X12153515Y-15013793D01*
X12153515Y-15013793D02*
X12153515Y-14966174D01*
X12153515Y-14966174D02*
X12163039Y-14928079D01*
X12163039Y-14928079D02*
X12172563Y-14909031D01*
X12172563Y-14909031D02*
X12182086Y-14899508D01*
X12182086Y-14899508D02*
X12201134Y-14889984D01*
X12353515Y-15070936D02*
X12363039Y-15080460D01*
X12363039Y-15080460D02*
X12353515Y-15089984D01*
X12353515Y-15089984D02*
X12343991Y-15080460D01*
X12343991Y-15080460D02*
X12353515Y-15070936D01*
X12353515Y-15070936D02*
X12353515Y-15089984D01*
X12486848Y-14889984D02*
X12505896Y-14889984D01*
X12505896Y-14889984D02*
X12524944Y-14899508D01*
X12524944Y-14899508D02*
X12534467Y-14909031D01*
X12534467Y-14909031D02*
X12543991Y-14928079D01*
X12543991Y-14928079D02*
X12553515Y-14966174D01*
X12553515Y-14966174D02*
X12553515Y-15013793D01*
X12553515Y-15013793D02*
X12543991Y-15051888D01*
X12543991Y-15051888D02*
X12534467Y-15070936D01*
X12534467Y-15070936D02*
X12524944Y-15080460D01*
X12524944Y-15080460D02*
X12505896Y-15089984D01*
X12505896Y-15089984D02*
X12486848Y-15089984D01*
X12486848Y-15089984D02*
X12467801Y-15080460D01*
X12467801Y-15080460D02*
X12458277Y-15070936D01*
X12458277Y-15070936D02*
X12448753Y-15051888D01*
X12448753Y-15051888D02*
X12439229Y-15013793D01*
X12439229Y-15013793D02*
X12439229Y-14966174D01*
X12439229Y-14966174D02*
X12448753Y-14928079D01*
X12448753Y-14928079D02*
X12458277Y-14909031D01*
X12458277Y-14909031D02*
X12467801Y-14899508D01*
X12467801Y-14899508D02*
X12486848Y-14889984D01*
X12724944Y-14889984D02*
X12686848Y-14889984D01*
X12686848Y-14889984D02*
X12667801Y-14899508D01*
X12667801Y-14899508D02*
X12658277Y-14909031D01*
X12658277Y-14909031D02*
X12639229Y-14937603D01*
X12639229Y-14937603D02*
X12629706Y-14975698D01*
X12629706Y-14975698D02*
X12629706Y-15051888D01*
X12629706Y-15051888D02*
X12639229Y-15070936D01*
X12639229Y-15070936D02*
X12648753Y-15080460D01*
X12648753Y-15080460D02*
X12667801Y-15089984D01*
X12667801Y-15089984D02*
X12705896Y-15089984D01*
X12705896Y-15089984D02*
X12724944Y-15080460D01*
X12724944Y-15080460D02*
X12734467Y-15070936D01*
X12734467Y-15070936D02*
X12743991Y-15051888D01*
X12743991Y-15051888D02*
X12743991Y-15004269D01*
X12743991Y-15004269D02*
X12734467Y-14985222D01*
X12734467Y-14985222D02*
X12724944Y-14975698D01*
X12724944Y-14975698D02*
X12705896Y-14966174D01*
X12705896Y-14966174D02*
X12667801Y-14966174D01*
X12667801Y-14966174D02*
X12648753Y-14975698D01*
X12648753Y-14975698D02*
X12639229Y-14985222D01*
X12639229Y-14985222D02*
X12629706Y-15004269D01*
X12858277Y-14975698D02*
X12839229Y-14966174D01*
X12839229Y-14966174D02*
X12829706Y-14956650D01*
X12829706Y-14956650D02*
X12820182Y-14937603D01*
X12820182Y-14937603D02*
X12820182Y-14928079D01*
X12820182Y-14928079D02*
X12829706Y-14909031D01*
X12829706Y-14909031D02*
X12839229Y-14899508D01*
X12839229Y-14899508D02*
X12858277Y-14889984D01*
X12858277Y-14889984D02*
X12896372Y-14889984D01*
X12896372Y-14889984D02*
X12915420Y-14899508D01*
X12915420Y-14899508D02*
X12924944Y-14909031D01*
X12924944Y-14909031D02*
X12934467Y-14928079D01*
X12934467Y-14928079D02*
X12934467Y-14937603D01*
X12934467Y-14937603D02*
X12924944Y-14956650D01*
X12924944Y-14956650D02*
X12915420Y-14966174D01*
X12915420Y-14966174D02*
X12896372Y-14975698D01*
X12896372Y-14975698D02*
X12858277Y-14975698D01*
X12858277Y-14975698D02*
X12839229Y-14985222D01*
X12839229Y-14985222D02*
X12829706Y-14994746D01*
X12829706Y-14994746D02*
X12820182Y-15013793D01*
X12820182Y-15013793D02*
X12820182Y-15051888D01*
X12820182Y-15051888D02*
X12829706Y-15070936D01*
X12829706Y-15070936D02*
X12839229Y-15080460D01*
X12839229Y-15080460D02*
X12858277Y-15089984D01*
X12858277Y-15089984D02*
X12896372Y-15089984D01*
X12896372Y-15089984D02*
X12915420Y-15080460D01*
X12915420Y-15080460D02*
X12924944Y-15070936D01*
X12924944Y-15070936D02*
X12934467Y-15051888D01*
X12934467Y-15051888D02*
X12934467Y-15013793D01*
X12934467Y-15013793D02*
X12924944Y-14994746D01*
X12924944Y-14994746D02*
X12915420Y-14985222D01*
X12915420Y-14985222D02*
X12896372Y-14975698D01*
X13058277Y-14889984D02*
X13077325Y-14889984D01*
X13077325Y-14889984D02*
X13096372Y-14899508D01*
X13096372Y-14899508D02*
X13105896Y-14909031D01*
X13105896Y-14909031D02*
X13115420Y-14928079D01*
X13115420Y-14928079D02*
X13124944Y-14966174D01*
X13124944Y-14966174D02*
X13124944Y-15013793D01*
X13124944Y-15013793D02*
X13115420Y-15051888D01*
X13115420Y-15051888D02*
X13105896Y-15070936D01*
X13105896Y-15070936D02*
X13096372Y-15080460D01*
X13096372Y-15080460D02*
X13077325Y-15089984D01*
X13077325Y-15089984D02*
X13058277Y-15089984D01*
X13058277Y-15089984D02*
X13039229Y-15080460D01*
X13039229Y-15080460D02*
X13029706Y-15070936D01*
X13029706Y-15070936D02*
X13020182Y-15051888D01*
X13020182Y-15051888D02*
X13010658Y-15013793D01*
X13010658Y-15013793D02*
X13010658Y-14966174D01*
X13010658Y-14966174D02*
X13020182Y-14928079D01*
X13020182Y-14928079D02*
X13029706Y-14909031D01*
X13029706Y-14909031D02*
X13039229Y-14899508D01*
X13039229Y-14899508D02*
X13058277Y-14889984D01*
X13201134Y-14889984D02*
X13201134Y-14928079D01*
X13277325Y-14889984D02*
X13277325Y-14928079D01*
X13572563Y-15166174D02*
X13563039Y-15156650D01*
X13563039Y-15156650D02*
X13543991Y-15128079D01*
X13543991Y-15128079D02*
X13534468Y-15109031D01*
X13534468Y-15109031D02*
X13524944Y-15080460D01*
X13524944Y-15080460D02*
X13515420Y-15032841D01*
X13515420Y-15032841D02*
X13515420Y-14994746D01*
X13515420Y-14994746D02*
X13524944Y-14947127D01*
X13524944Y-14947127D02*
X13534468Y-14918555D01*
X13534468Y-14918555D02*
X13543991Y-14899508D01*
X13543991Y-14899508D02*
X13563039Y-14870936D01*
X13563039Y-14870936D02*
X13572563Y-14861412D01*
X13629706Y-14889984D02*
X13753515Y-14889984D01*
X13753515Y-14889984D02*
X13686848Y-14966174D01*
X13686848Y-14966174D02*
X13715420Y-14966174D01*
X13715420Y-14966174D02*
X13734468Y-14975698D01*
X13734468Y-14975698D02*
X13743991Y-14985222D01*
X13743991Y-14985222D02*
X13753515Y-15004269D01*
X13753515Y-15004269D02*
X13753515Y-15051888D01*
X13753515Y-15051888D02*
X13743991Y-15070936D01*
X13743991Y-15070936D02*
X13734468Y-15080460D01*
X13734468Y-15080460D02*
X13715420Y-15089984D01*
X13715420Y-15089984D02*
X13658277Y-15089984D01*
X13658277Y-15089984D02*
X13639229Y-15080460D01*
X13639229Y-15080460D02*
X13629706Y-15070936D01*
X13991610Y-15089984D02*
X13991610Y-14889984D01*
X14077325Y-15089984D02*
X14077325Y-14985222D01*
X14077325Y-14985222D02*
X14067801Y-14966174D01*
X14067801Y-14966174D02*
X14048753Y-14956650D01*
X14048753Y-14956650D02*
X14020182Y-14956650D01*
X14020182Y-14956650D02*
X14001134Y-14966174D01*
X14001134Y-14966174D02*
X13991610Y-14975698D01*
X14201134Y-15089984D02*
X14182087Y-15080460D01*
X14182087Y-15080460D02*
X14172563Y-15070936D01*
X14172563Y-15070936D02*
X14163039Y-15051888D01*
X14163039Y-15051888D02*
X14163039Y-14994746D01*
X14163039Y-14994746D02*
X14172563Y-14975698D01*
X14172563Y-14975698D02*
X14182087Y-14966174D01*
X14182087Y-14966174D02*
X14201134Y-14956650D01*
X14201134Y-14956650D02*
X14229706Y-14956650D01*
X14229706Y-14956650D02*
X14248753Y-14966174D01*
X14248753Y-14966174D02*
X14258277Y-14975698D01*
X14258277Y-14975698D02*
X14267801Y-14994746D01*
X14267801Y-14994746D02*
X14267801Y-15051888D01*
X14267801Y-15051888D02*
X14258277Y-15070936D01*
X14258277Y-15070936D02*
X14248753Y-15080460D01*
X14248753Y-15080460D02*
X14229706Y-15089984D01*
X14229706Y-15089984D02*
X14201134Y-15089984D01*
X14382087Y-15089984D02*
X14363039Y-15080460D01*
X14363039Y-15080460D02*
X14353515Y-15061412D01*
X14353515Y-15061412D02*
X14353515Y-14889984D01*
X14534468Y-15080460D02*
X14515420Y-15089984D01*
X14515420Y-15089984D02*
X14477325Y-15089984D01*
X14477325Y-15089984D02*
X14458277Y-15080460D01*
X14458277Y-15080460D02*
X14448753Y-15061412D01*
X14448753Y-15061412D02*
X14448753Y-14985222D01*
X14448753Y-14985222D02*
X14458277Y-14966174D01*
X14458277Y-14966174D02*
X14477325Y-14956650D01*
X14477325Y-14956650D02*
X14515420Y-14956650D01*
X14515420Y-14956650D02*
X14534468Y-14966174D01*
X14534468Y-14966174D02*
X14543991Y-14985222D01*
X14543991Y-14985222D02*
X14543991Y-15004269D01*
X14543991Y-15004269D02*
X14448753Y-15023317D01*
X14620182Y-15080460D02*
X14639230Y-15089984D01*
X14639230Y-15089984D02*
X14677325Y-15089984D01*
X14677325Y-15089984D02*
X14696372Y-15080460D01*
X14696372Y-15080460D02*
X14705896Y-15061412D01*
X14705896Y-15061412D02*
X14705896Y-15051888D01*
X14705896Y-15051888D02*
X14696372Y-15032841D01*
X14696372Y-15032841D02*
X14677325Y-15023317D01*
X14677325Y-15023317D02*
X14648753Y-15023317D01*
X14648753Y-15023317D02*
X14629706Y-15013793D01*
X14629706Y-15013793D02*
X14620182Y-14994746D01*
X14620182Y-14994746D02*
X14620182Y-14985222D01*
X14620182Y-14985222D02*
X14629706Y-14966174D01*
X14629706Y-14966174D02*
X14648753Y-14956650D01*
X14648753Y-14956650D02*
X14677325Y-14956650D01*
X14677325Y-14956650D02*
X14696372Y-14966174D01*
X14772563Y-15166174D02*
X14782087Y-15156650D01*
X14782087Y-15156650D02*
X14801134Y-15128079D01*
X14801134Y-15128079D02*
X14810658Y-15109031D01*
X14810658Y-15109031D02*
X14820182Y-15080460D01*
X14820182Y-15080460D02*
X14829706Y-15032841D01*
X14829706Y-15032841D02*
X14829706Y-14994746D01*
X14829706Y-14994746D02*
X14820182Y-14947127D01*
X14820182Y-14947127D02*
X14810658Y-14918555D01*
X14810658Y-14918555D02*
X14801134Y-14899508D01*
X14801134Y-14899508D02*
X14782087Y-14870936D01*
X14782087Y-14870936D02*
X14772563Y-14861412D01*
M02*
